<?xml version="1.0" standalone="no"?><!DOCTYPE svg PUBLIC "-//W3C//DTD SVG 1.1//EN" "http://www.w3.org/Graphics/SVG/1.1/DTD/svg11.dtd" ><svg xmlns="http://www.w3.org/2000/svg"><metadata></metadata><defs><font id="NicoleFally: HammersmithOne Regular: 2011" horiz-adv-x="3236"><font-face font-family="HammersmithOne" font-weight="400" font-stretch="normal" units-per-em="2048" panose-1="2 1 7 3 3 5 1 6 5 4" ascent="1844" descent="-716" x-height="4" bbox="-145 -716 3056 1843" underline-thickness="50" underline-position="-75" unicode-range="U+0001-fb02" /><missing-glyph horiz-adv-x="0"  /><glyph glyph-name=".null" unicode="" d="" /><glyph glyph-name=".null" unicode="" d="" /><glyph glyph-name=".null" unicode="" d="" /><glyph glyph-name=".null" unicode="" d="" /><glyph glyph-name=".null" unicode="" d="" /><glyph glyph-name=".null" unicode="" d="" /><glyph glyph-name=".null" unicode="" d="" /><glyph glyph-name=".null" unicode="" d="" /><glyph glyph-name="nonmarkingreturn" unicode="" d="" /><glyph glyph-name=".null" unicode="" d="" /><glyph glyph-name=".null" unicode="" d="" /><glyph glyph-name=".null" unicode="" d="" /><glyph glyph-name=".null" unicode="" d="" /><glyph glyph-name=".null" unicode="" d="" /><glyph glyph-name=".null" unicode="" d="" /><glyph glyph-name=".null" unicode="" d="" /><glyph glyph-name=".null" unicode="" d="" /><glyph glyph-name=".null" unicode="" d="" /><glyph glyph-name=".null" unicode="" d="" /><glyph glyph-name="space" unicode=" " d="" /><glyph glyph-name="exclam" unicode="!" d="M468 374 q-51 6 -175 6 l-80 0 l-2 978 l91 -4 l22 0 q116 0 148 8 l-4 -988 ZM474 240 q-4 -50 -4 -127.5 q0 -77.5 4 -112.5 l-265 0 q8 62 8 122.5 q0 60.5 -6 117.5 l263 0 Z" /><glyph glyph-name="quotedbl" unicode="&quot;" d="M203 1110 q-7 230 -16 320 l251 0 q-12 -111 -17 -321 l-3 -132 l-211 0 l-4 133 ZM604 1110 q-7 230 -16 320 l251 0 q-12 -111 -17 -321 l-3 -132 l-211 0 l-4 133 Z" /><glyph glyph-name="numbersign" unicode="#" d="M1253 491 q-48 5 -124 5 l-94 0 l-44 -319 l-226 0 l44 319 l-184 0 l-44 -319 l-226 0 l44 319 l-41 0 q-76 0 -124 -5 l3 207 q23 -6 132 -6 l58 0 l28 201 l-70 0 q-76 0 -124 -5 l3 207 q22 -6 132 -6 l86 0 l45 321 l226 0 l-45 -321 l184 0 l45 321 l226 0 l-45 -321 l47 0 q109 0 132 6 l3 -207 q-48 5 -124 5 l-85 0 l-28 -201 l55 0 q110 0 132 6 l3 -207 ZM837 692 l28 201 l-184 0 l-28 -201 l184 0 Z" /><glyph glyph-name="dollar" unicode="$" d="M412 -195 q9 34 9 135 l0 47 q-92 16 -166 49.5 q-74 33.5 -111 73.5 l29 252 l7 6 q38 -57 150 -104 q117 -49 232 -49 q155 0 212 94 q17 28 17 57 q0 29 -10.5 51 q-10.5 22 -36.5 43 q-50 40 -167.5 86.5 q-117.5 46.5 -188 89.5 q-70.5 43 -112.5 91 q-78 88 -78 223 q0 120 87 226 q91 111 236 155 l0 80 q0 101 -9 135 l269 0 q-4 -58 -4 -124 l0 -74 q102 -15 197 -64 l-31 -247 l-7 -2 q-149 81 -275 81 q-90 0 -152 -44 q-55 -40 -55 -95 q0 -49 38 -81 q70 -58 184.5 -95.5 q114.5 -37.5 183.5 -77 q69 -39.5 111 -85.5 q78 -87 78 -220 q0 -143 -91 -260 q-104 -135 -281 -170 l0 -59 q4 -121 4 -124 l-269 0 Z" /><glyph glyph-name="percent" unicode="%" d="M551 612 q-90 0 -163 27 q-73 27 -126 75 q-114 105 -114 263 q0 150 103 257 q117 121 316 121 q182 0 294 -113 q104 -106 104 -257 q0 -154 -115 -261 q-119 -112 -299 -112 ZM1346 1330 l245 0 l-750 -1330 l-245 0 l750 1330 ZM562 816 q47 0 83 14 q36 14 61 38 q53 48 53 120 q0 67 -53 116 q-56 53 -149 53 q-91 0 -147 -52 q-51 -48 -51 -120 q0 -70 53 -117 q57 -52 150 -52 ZM1249 334 q0 74 25.5 141.5 q25.5 67.5 77.5 121.5 q117 121 316 121 q182 0 294 -114 q104 -105 104 -256 q0 -154 -114 -261 q-120 -112 -306 -112 q-171 0 -283 103 q-114 104 -114 256 ZM1461 348 q0 -34 13.5 -64.5 q13.5 -30.5 39.5 -53.5 q57 -52 152 -52 q87 0 142 52 q53 48 53 120 q0 67 -53 116 q-56 53 -149 53 q-91 0 -147 -52 q-51 -48 -51 -119 Z" /><glyph glyph-name="ampersand" unicode="&amp;" d="M988 118 q-165 -143 -399 -143 q-230 0 -380 137 q-147 133 -147 330 q0 178 154 296 q46 36 99 60 q-57 96 -57 188 q0 92 30 157 q30 65 83 112 q113 100 290 100 q126 0 231 -60 q-5 -85 -5 -131 q0 -63 1.5 -79 q1.5 -16 1 -22.5 q-0.5 -6.5 -1.5 -10.5 q-4 -6 -2 -14 l-5 -7 q-40 60 -155 86 q-35 8 -90 8 q-55 0 -90.5 -33 q-35.5 -33 -35.5 -83 q0 -86 122 -219 q38 -42 92 -95 l235 -215 q32 87 32 183 q0 59 -30 98 q-7 9 -11 12 l0 12 l145 -58 q42 -17 68 -26 q26 -9 39 -15 q23 -10 23 -22 q0 -180 -81 -342 q102 -84 131 -95 q29 -11 44 -13 q48 -6 56 4 l5 -6 l-103 -225 q-17 -12 -58 -12 q-63 0 -231 143 ZM396 287 q83 -72 199.5 -72 q116.5 0 209.5 64 l-108 99 q-173 157 -275 274 q-109 -79 -109 -186 q0 -107 83 -179 Z" /><glyph glyph-name="quotesingle" unicode="&#39;" d="M232 1110 q-7 230 -16 320 l251 0 q-12 -111 -17 -321 l-3 -132 l-211 0 l-4 133 Z" /><glyph glyph-name="parenleft" unicode="(" d="M500 -100 q-318 274 -318 780 q0 337 180 596 q59 86 138 154 l256 0 l0 -6 q-249 -226 -302 -528 q-18 -102 -18 -221 q0 -435 310 -769 l0 -6 l-246 0 Z" /><glyph glyph-name="parenright" unicode=")" d="M428 -100 q318 274 318 780 q0 337 -180 596 q-59 86 -138 154 l-256 0 l0 -6 q249 -226 302 -528 q18 -102 18 -221 q0 -435 -310 -769 l0 -6 l246 0 Z" /><glyph glyph-name="asterisk" unicode="*" d="M483 759 l32 282 l-258 -199 l-128 191 l289 133 l-288 170 l157 180 l225 -217 l-40 306 l244 0 l-42 -318 l228 201 l151 -181 l-303 -146 l313 -150 l-134 -186 l-254 206 l37 -307 l-233 0 q0 1 4 35 Z" /><glyph glyph-name="plus" unicode="+" d="M351 500 q-76 0 -124 -5 l3 247 q22 -6 132 -6 l202 0 l0 192 q0 110 -6 132 l247 3 q-5 -48 -5 -124 l0 -203 l201 0 q109 0 132 6 l3 -247 q-48 5 -124 5 l-212 0 l0 -222 q0 -76 5 -124 l-247 3 q6 23 6 132 l0 211 l-213 0 Z" /><glyph glyph-name="comma" unicode="," d="M144.5 -116.5 q13.5 109.5 13.5 183 q0 73.5 -11 153.5 l249 40 l8 -51 q8 -56 8 -115.5 q0 -59.5 -6 -110 q-6 -50.5 -16 -93.5 q-23 -94 -52 -112 q-49 -31 -235 -70 l-6 6 q34 60 47.5 169.5 Z" /><glyph glyph-name="hyphen" unicode="-" d="M302 500 q-76 0 -124 -5 l3 247 q23 -6 132 -6 l389 0 q110 0 132 6 l3 -247 q-48 5 -124 5 l-411 0 Z" /><glyph glyph-name="period" unicode="." d="M109 0 q9 61 9 108 q0 47 -0.5 64.5 q-0.5 17.5 -1.5 34.5 q-1 17 -2 32 l-3 25 l290 0 q-3 -38 -3 -62 l-2 -42 q0 -19 0 -71.5 q0 -52.5 5 -88.5 l-292 0 Z" /><glyph glyph-name="slash" unicode="/" d="M599 1530 l256 0 l-599 -1700 l-256 0 l599 1700 Z" /><glyph glyph-name="zero" unicode="0" d="M106 646 q0 151 44.5 282 q44.5 131 124.5 226 q171 201 433 201 q251 0 402 -189 q147 -184 147 -487 q0 -342 -178 -533 q-159 -171 -408 -171 q-241 0 -402 186 q-163 189 -163 485 ZM456 330 q44 -57 105 -88.5 q61 -31.5 124.5 -31.5 q63.5 0 118.5 28 q55 28 99 84 q99 128 99 335 q0 212 -84 339 q-85 125 -230 125 q-146 0 -236 -130 q-91 -131 -91 -339 q0 -199 95 -322 Z" /><glyph glyph-name="one" unicode="1" d="M217 1330 l255 0 l0 -1330 l-255 0 l0 1330 Z" /><glyph glyph-name="two" unicode="2" d="M553 600 q148 188 170 297 q7 34 7 65 q0 73 -55 117 q-55 44 -158 44 q-97 0 -201 -51 q-95 -47 -135 -107 l-13 -2 l8 300 q88 57 246 83 q49 9 94 9 q252 0 376 -121 q106 -101 106 -270 q0 -116 -72 -250 q-62 -112 -163 -242 l-196 -242 l324 0 q66 0 103.5 5.5 q37.5 5.5 63.5 25.5 l7 -3 l-73 -273 l-109 6 q-283 16 -800 2 l470 607 Z" /><glyph glyph-name="three" unicode="3" d="M872 778 q241 -102 241 -346 q0 -194 -159 -322 q-167 -135 -442 -135 q-265 0 -426 123 l-4 267 l10 12 q120 -163 418 -163 q348 0 348 231 q0 83 -102 130 q-92 42 -214 42 q-168 0 -258 -57 l-6 7 l10 236 q121 33 254 33 l52 0 q28 0 55 -2 q64 38 83 114 q6 21 6 42.5 q0 21.5 -13 44 q-13 22.5 -39 39.5 q-57 39 -128.5 39 q-71.5 0 -120.5 -8 q-49 -8 -95 -23 q-99 -33 -148 -82 l-5 5 l-12 256 q161 94 391 94 q181 0 302 -83 q130 -90 130 -240 q0 -82 -36 -147.5 q-36 -65.5 -92 -106.5 ZM556 809 q25 0 42 4 l-42 -4 Z" /><glyph glyph-name="four" unicode="4" d="M922 563 q152 0 252 26 l5 -7 l-73 -232 l-184 0 l0 -350 l-255 0 l0 350 l-616 0 l-4 74 l553 904 l322 2 l0 -767 ZM667 563 l0 474 l-273 -474 l273 0 Z" /><glyph glyph-name="five" unicode="5" d="M483 875 q99 21 218 21 q119 0 219.5 -33 q100.5 -33 167.5 -89 q136 -112 136 -288 q0 -224 -166 -368 q-167 -143 -421 -143 q-285 0 -451 138 l-11 283 l10 7 q142 -195 456 -195 q142 0 227 66 q85 66 85 168 q0 167 -173 224 q-58 19 -122 19 q-64 0 -119.5 -5.5 q-55.5 -5.5 -108.5 -15.5 q-110 -21 -182 -60 l0 726 l627 0 q192 0 227 32 l4 -3 l-24 -244 q-44 -21 -203 -21 l-396 0 l0 -219 Z" /><glyph glyph-name="six" unicode="6" d="M263 159 q-72 85 -108 199 q-36 114 -36 226 q0 112 18 205 q18 93 55 177 q37 84 94 155 q57 71 134 123 q166 111 398 111 q175 0 301 -59 l9 -246 l-4 -6 q-110 81 -324 81 q-161 0 -278 -109 q-112 -105 -147 -268 q124 124 313 160 q56 10 132 10 q76 0 161 -30 q85 -30 145 -86 q128 -120 128 -318 q0 -220 -166 -366 q-161 -143 -394 -143 q-275 0 -431 184 ZM384 444 q33 -111 109 -174.5 q76 -63.5 193 -63.5 q134 0 221 72 q91 74 91 198 q0 93 -60 153 q-65 65 -176 65 q-141 0 -246 -74 q-99 -71 -132 -176 Z" /><glyph glyph-name="seven" unicode="7" d="M582 128 q0 -68 7 -128 l-304 0 q0 148 103 478 q121 392 284 627 l-492 -8 q-109 0 -138 -25 l-7 5 l-8 260 l520 -3 q91 0 164.5 0 q73.5 0 130.5 1 q130 2 205 6 l-172 -350 q-293 -594 -293 -863 Z" /><glyph glyph-name="eight" unicode="8" d="M1036 710 q115 -40 176 -130 q56 -80 56 -180.5 q0 -100.5 -40 -179.5 q-40 -79 -114 -134 q-151 -114 -419 -114 q-242 0 -413 105 q-187 115 -187 323 q0 146 125 259 q39 36 89 61 q-123 98 -123 254 q0 164 129 270 q138 113 379 113 q235 0 375 -119 q127 -107 127 -270.5 q0 -163.5 -160 -257.5 ZM458 1036 q-17 -27 -17 -58.5 q0 -31.5 19.5 -61.5 q19.5 -30 61.5 -57 q91 -57 278 -86 q95 48 129 137 q43 114 -53 174 q-68 43 -195 43 q-168 0 -223 -91 ZM485 604 q-124 -72 -124 -179 q0 -219 345 -223 q221 -3 277 92 q20 34 20 76.5 q0 42.5 -18 67.5 q-18 25 -54 44 q-57 29 -157 48.5 q-100 19.5 -135 27.5 q-35 8 -63 16 q-51 13 -91 30 Z" /><glyph glyph-name="nine" unicode="9" d="M244 286 q110 -81 324 -81 q155 0 268 100 q109 97 146 250 q-115 -107 -305 -135 q-54 -8 -129.5 -8 q-75.5 0 -160.5 30 q-85 30 -145 86 q-128 120 -128 318 q0 220 166 366 q161 143 394 143 q275 0 431 -184 q144 -170 144 -442 q0 -312 -167 -520 q-188 -234 -532 -234 q-175 0 -301 59 l-9 246 l4 6 ZM614 636 q67 0 129.5 18 q62.5 18 110.5 48 q98 63 127 163 q-47 186 -191 241 q-48 18 -110.5 18 q-62.5 0 -119.5 -18.5 q-57 -18.5 -99 -53.5 q-91 -74 -91 -198 q0 -93 60 -153 q65 -65 184 -65 Z" /><glyph glyph-name="colon" unicode=":" d="M396 770 q0 -19 0 -71.5 q0 -52.5 5 -88.5 l-292 0 q9 61 9 108 q0 47 -0.5 64.5 q-0.5 17.5 -1.5 34.5 q-1 17 -2 32 l-3 25 l290 0 q-3 -38 -3 -62 l-2 -42 ZM396 160 q0 -19 0 -71.5 q0 -52.5 5 -88.5 l-292 0 q9 61 9 108 q0 47 -0.5 64.5 q-0.5 17.5 -1.5 34.5 q-1 17 -2 32 l-3 25 l290 0 q-3 -38 -3 -62 l-2 -42 Z" /><glyph glyph-name="semicolon" unicode=";" d="M402 690 q-4 -50 -4 -127.5 q0 -77.5 4 -112.5 l-265 0 q8 62 8 122.5 q0 60.5 -6 117.5 l263 0 ZM148.5 -116.5 q13.5 109.5 13.5 183 q0 73.5 -11 153.5 l249 40 l8 -51 q8 -56 8 -115.5 q0 -59.5 -6 -110 q-6 -50.5 -16 -93.5 q-23 -94 -52 -112 q-49 -31 -235 -70 l-6 6 q34 60 47.5 169.5 Z" /><glyph glyph-name="less" unicode="&lt;" d="M344 648 l675 417 l0 -281 l-440 -248 l440 -271 l0 -280 l-675 449 l0 214 Z" /><glyph glyph-name="equal" unicode="=" d="M351 720 q-76 0 -124 -5 l3 247 q22 -6 132 -6 l639 0 q109 0 132 6 l3 -247 q-48 5 -124 5 l-661 0 ZM351 300 q-76 0 -124 -5 l3 247 q22 -6 132 -6 l639 0 q109 0 132 6 l3 -247 q-48 5 -124 5 l-661 0 Z" /><glyph glyph-name="greater" unicode="&gt;" d="M342 265 l439 271 l-439 248 l0 281 l675 -417 l0 -214 l-675 -449 l0 280 Z" /><glyph glyph-name="question" unicode="?" d="M610 456 q-87 -65 -188 -113 q-125 48 -125 178 q0 56 29 103 q58 90 169 183 q81 68 103 100 q33 48 33 89 q0 41 -17 69.5 q-17 28.5 -47 48.5 q-61 41 -154 41 q-122 0 -219 -83 q-33 -28 -54 -68 l-7 -2 q3 44 -9 89 l-42 150 q142 134 367 134 q191 0 319 -109 q120 -104 120 -249 q0 -72 -30 -124 q-49 -86 -128 -155.5 q-79 -69.5 -109 -100.5 q-30 -31 -45 -52 q-23 -32 -23 -61 q0 -29 17.5 -46.5 q17.5 -17.5 39.5 -21.5 ZM588 240 q-4 -50 -4 -127.5 q0 -77.5 4 -112.5 l-265 0 q8 62 8 122.5 q0 60.5 -6 117.5 l263 0 Z" /><glyph glyph-name="at" unicode="@" d="M845.5 744.5 q75.5 60.5 175.5 95.5 q100 35 208.5 35 q108.5 0 204.5 -39 l2 19 l253 0 l-43 -455 q-4 -34 -4 -80 q0 -105 112 -105 q134 0 192 148 q30 77 30 194.5 q0 117.5 -48.5 226 q-48.5 108.5 -140.5 187.5 q-197 169 -522 169 q-373 0 -607 -217 q-251 -231 -251 -570 q0 -276 199 -447 q209 -179 571 -179 q209 0 405 51 q183 46 245 104 l6 -3 l-95 -240 q-250 -126 -590 -126 q-463 0 -729 211 q-269 215 -269 599 q0 37 8.5 131 q8.5 94 54.5 209.5 q46 115.5 121 217.5 q75 102 175.5 188 q100.5 86 220.5 149 q254 131 544 131 q304 0 533 -109 q207 -99 321 -278 q107 -169 107 -371 q0 -166 -56.5 -283 q-56.5 -117 -126.5 -185 q-144 -138 -324 -138 q-180 0 -272 101 q-152 -101 -333 -101 q-213 0 -339 122 q-118 114 -118 284 q0 113 52 203 q52 90 127.5 150.5 ZM1411 598 q-75 47 -194 47 q-121 0 -201 -61 q-77 -58 -85 -150 q-16 -148 129 -198 q49 -16 139 -16 q90 0 185 56 q-2 28 2 56 l25 266 Z" /><glyph glyph-name="A" unicode="a" d="M269 -8 q-86 8 -201 8 l-79 0 l435 1219 q29 82 29 95.5 q0 13.5 -1 16.5 l1 2 q65 -3 138 -3 q60 0 144 2 l1 -2 q-2 -4 -2 -11 q0 -19 30 -101 l444 -1221 q-20 1 -47 1 q0 0 -52 2 q-25 0 -45 0 l-155 0 l-94 288 l-452 0 l-94 -296 ZM737 528 l-151 465 l-147 -465 l298 0 Z" /><glyph glyph-name="B" unicode="b" d="M1012.5 97.5 q-73.5 -58.5 -190.5 -90.5 q-117 -32 -287.5 -32 q-170.5 0 -362.5 31 l0 1318 q194 31 336.5 31 q142.5 0 234 -27 q91.5 -27 149.5 -73 q114 -89 114 -230.5 q0 -141.5 -103 -234.5 q122 -38 189 -144 q61 -95 61 -210.5 q0 -115.5 -33.5 -197.5 q-33.5 -82 -107 -140.5 ZM437 827 q42 -7 105 -7 q63 0 103.5 16.5 q40.5 16.5 62.5 41.5 q36 41 36 114 q0 153 -180 153 q-76 0 -127 -6 l0 -312 ZM585 613 q-84 0 -148 -11 l0 -393 q70 -18 147 -18 q77 0 135.5 18.5 q58.5 18.5 98.5 50.5 q81 66 81 168 q0 185 -314 185 Z" /><glyph glyph-name="C" unicode="c" d="M768 1355 q187 0 319 -65 l0 -306 l-2 -2 q-56 86 -236 114 q-53 9 -134 9 q-81 0 -159 -30.5 q-78 -30.5 -128 -86.5 q-97 -109 -97 -311 q0 -235 123 -350 q102 -96 270 -96 q190 0 308 81 q43 29 73 72 l3 -2 l0 -280 q-153 -127 -412 -127 q-305 0 -478 194 q-166 185 -166 490 q0 323 182 509 q184 187 534 187 Z" /><glyph glyph-name="D" unicode="d" d="M496 -25 q-162 0 -305 26 l0 1338 q132 16 306.5 16 q174.5 0 316 -47.5 q141.5 -47.5 236.5 -135.5 q192 -176 192 -493 q0 -355 -214 -539 q-192 -165 -532 -165 ZM451 219 q65 -12 130 -12 q65 0 140 25.5 q75 25.5 130 79.5 q118 114 118 332 q0 358 -261 440 q-86 27 -199 27 l-27 0 q-15 0 -31 -1 l0 -891 Z" /><glyph glyph-name="E" unicode="e" d="M841 240 q62 0 86 12 l4 -1 l-10 -251 l-749 0 l0 1337 q27 -2 60 -3 l70 -2 q70 -2 152 -2 q229 0 453 8 q-11 -88 -11 -235 q0 -16 2 -24 l-2 -3 q-52 15 -148 15 l-315 0 l0 -255 l237 0 q110 0 132 6 l3 -247 q-48 5 -124 5 l-248 0 l0 -360 l408 0 Z" /><glyph glyph-name="F" unicode="f" d="M873 575 q-48 5 -124 5 l-303 0 l0 -580 l-274 0 l0 1337 q27 -2 62 -3 l74 -2 q76 -2 158 -2 q246 0 470 8 q-11 -88 -11 -235 q0 -16 2 -24 l-2 -3 q-53 15 -148 15 l-331 0 l0 -275 l292 0 q110 0 132 6 l3 -247 Z" /><glyph glyph-name="G" unicode="g" d="M1268 802 q-19 -34 -19 -163 l0 -310 q0 -141 -146 -245 q-151 -109 -370 -109 q-304 0 -485 191 q-175 182 -175 464 q0 300 178 500 q199 225 548 225 q233 0 369 -90 l-16 -295 l-8 -2 q-35 61 -138 100 q-98 37 -205.5 37 q-107.5 0 -188 -34 q-80.5 -34 -136.5 -97 q-118 -129 -118 -341 q0 -185 104 -297 q104 -111 268 -111 q181 0 244 94 q20 30 20 68 l0 166 l-129 0 q-104 0 -113 -18 l-3 1 l-9 261 q28 -8 227 -8 l118 0 q110 0 180 15 l3 -2 Z" /><glyph glyph-name="H" unicode="h" d="M442 -6 q-96 6 -228 6 l-32 0 l0 1335 q62 -5 88 -5 l41 0 q79 0 131 8 l0 -533 l470 0 l0 530 q83 -5 161.5 -5 q78.5 0 98.5 8 l0 -1344 q-48 6 -190 6 l-70 0 l0 565 l-470 0 l0 -571 Z" /><glyph glyph-name="I" unicode="i" d="M203 1334 q100 -4 121 -4 l72 0 q53 0 85 8 l-1 -1338 l-277 0 l0 1334 Z" /><glyph glyph-name="J" unicode="j" d="M448 1335 q62 -5 90 -5 l78 0 q49 0 97 8 l0 -896 q0 -220 -117 -346 q-111 -121 -300 -121 q-130 0 -218 52 q-33 19 -66 46 l0 289 l7 2 q42 -66 98.5 -108 q56.5 -42 140.5 -42 q190 0 190 220 l0 901 Z" /><glyph glyph-name="K" unicode="k" d="M427 -6 q-69 6 -176 6 l-79 0 l0 1334 l40 -2 q42 -2 63 -2 l29 0 q88 0 123 8 l0 -565 l405 561 q64 -4 108 -4 l55 0 q103 0 147 8 l-386 -504 l380 -754 q24 -55 45 -80 l-61 0 q-211 0 -263 -8 q-11 67 -30 117 l-255 486 l-145 -190 l0 -411 Z" /><glyph glyph-name="L" unicode="l" d="M367 0 q-147 0 -195 -6 l0 1342 q24 -6 99.5 -6 q75.5 0 175.5 4 l0 -1094 l207 0 q90 0 144 6 q-7 -234 -7 -243 l0 -10 q-98 7 -329 7 l-95 0 Z" /><glyph glyph-name="M" unicode="m" d="M442 -6 q-48 6 -185 6 l-80 0 l0 1334 q64 -4 141 -4 q77 0 109 8 l336 -571 l323 571 q32 -8 122 -8 q90 0 154 4 l0 -1334 l-80 0 q-137 0 -185 -6 l0 896 l-327 -585 l-328 538 l0 -849 Z" /><glyph glyph-name="N" unicode="n" d="M181 0 q6 34 6 74 l0 1256 l200 0 l530 -834 l0 766 q0 55 -10 68 l270 0 q-5 -40 -5 -88 l0 -1242 l-208 0 l-522 801 l0 -801 l-261 0 Z" /><glyph glyph-name="O" unicode="o" d="M281 158 q-91 87 -143.5 209 q-52.5 122 -52.5 267.5 q0 145.5 49 275.5 q49 130 140 229 q91 99 220 157.5 q129 58.5 289 58.5 q276 0 465 -174 q202 -186 202 -502 q0 -306 -208 -509 q-128 -125 -305 -172 q-87 -23 -203.5 -23 q-116.5 0 -239 48 q-122.5 48 -213.5 135 ZM363 648 q0 -93 31 -171 q31 -78 86 -134 q117 -118 301 -118 q175 0 281 113 q108 117 108 319 q0 190 -103 317 q-111 136 -304 136 q-187 0 -297 -138 q-103 -129 -103 -324 Z" /><glyph glyph-name="P" unicode="p" d="M153 1337 q139 18 285 18 q272 0 413.5 -127.5 q141.5 -127.5 141.5 -381.5 q0 -227 -155 -359 q-145 -124 -373 -124 q-26 0 -57 3 l0 -366 l-255 0 l0 1337 ZM468 1114 q-30 0 -60 -2 l0 -526 q32 -4 78 -4 q46 0 96 19.5 q50 19.5 84 54.5 q71 73 71 192 q0 266 -269 266 Z" /><glyph glyph-name="Q" unicode="q" d="M918 -6 q-84 -19 -194 -19 q-110 0 -232.5 48 q-122.5 48 -213.5 135 q-196 187 -196 479 q0 296 190 502 q200 216 510 216 q282 0 468 -178 q197 -190 197 -498 q0 -247 -140 -432 q-44 -58 -98 -104 q36 -10 87 -33 q109 -51 206 -53 l20 0 q52 0 69 14 l4 -3 l-76 -191 q-14 -43 -53 -43 q-57 0 -116 24 q-59 24 -105.5 45 q-46.5 21 -88.5 37 q-42 16 -80 27 q-65 18 -158 27 ZM350 648 q0 -93 32.5 -172.5 q32.5 -79.5 89.5 -137.5 q122 -123 306 -123 q176 0 287 119 q115 122 115 323 q0 190 -108 317 q-117 136 -310 136 q-188 0 -304 -138 q-108 -130 -108 -324 Z" /><glyph glyph-name="R" unicode="r" d="M602 517 q-30 -2 -64 -2 q-34 0 -101 5 l0 -520 l-265 0 l0 1337 q140 18 344 18 q278 0 414.5 -102.5 q136.5 -102.5 136.5 -316.5 q0 -166 -125 -284 q-41 -38 -94 -66 l204 -430 q60 -133 92 -158 l-5 -5 q-97 16 -305 -1 l-232 525 ZM535 1119 q-51 0 -98 -5 l0 -382 q49 -7 115 -7 q66 0 111 11.5 q45 11.5 78 35.5 q71 53 71 159 q0 106 -74 149 q-69 39 -203 39 Z" /><glyph glyph-name="S" unicode="s" d="M975 1256 l-19 -294 l-7 -2 q-74 111 -252 144 q-56 11 -107.5 11 q-51.5 0 -88 -9 q-36.5 -9 -62.5 -26 q-55 -36 -55 -94 q0 -76 48 -114 q60 -46 199 -64.5 q139 -18.5 223 -50.5 q84 -32 138 -81 q102 -92 102 -260 q0 -220 -166 -339 q-142 -102 -358 -102 q-174 0 -344 66 q-56 22 -98 51 l11 334 l4 3 q124 -214 407 -214 q201 0 266 97 q22 33 22 73.5 q0 40.5 -13 67 q-13 26.5 -43 45.5 q-58 38 -195 51 q-137 13 -224 49 q-87 36 -139 89 q-94 96 -94 268 q0 178 125 288 q127 112 342.5 112 q215.5 0 377.5 -99 Z" /><glyph glyph-name="T" unicode="t" d="M652 -6 q-48 6 -247 6 l-32 0 l0 1106 l-198 0 q-88 0 -104 -9 q-16 -9 -25 -16 l-3 1 l0 256 l3 3 q33 -11 178 -11 l627 0 q88 0 104 9 q16 9 25 16 l3 -1 l0 -256 l-3 -3 q-33 11 -178 11 l-150 0 l0 -1112 Z" /><glyph glyph-name="U" unicode="u" d="M930 1335 q62 -5 103 -5 l83 0 q42 0 88 8 l0 -827 q0 -246 -149 -395 q-141 -141 -354 -141 q-233 0 -377 121 q-161 136 -161 392 l0 847 q83 -5 156.5 -5 q73.5 0 121.5 8 l0 -863 q0 -126 77 -196 q72 -64 180 -64 q160 0 213 164 q19 59 19 146 l0 810 Z" /><glyph glyph-name="V" unicode="v" d="M741 -4 q-32 4 -105 4 l-110 0 q-27 0 -49 -2 l-1 2 q4 7 4 16 q0 9 -1.5 19 q-1.5 10 -8.5 36 q-7 26 -22 75 l-42 134 l-372 1054 q62 -4 158 -4 q96 0 123 8 l301 -909 l264 905 q60 -4 148 -4 q120 0 140 8 l-365 -1055 q0 0 -35 -117 q-29 -100 -29 -129.5 q0 -29.5 4 -37.5 l-2 -3 Z" /><glyph glyph-name="W" unicode="w" d="M648 -4 q-30 4 -102 4 l-116 0 q-34 0 -56 -2 l-1 2 q4 7 4 16 q0 9 -1.5 19 q-1.5 10 -8 36 q-6.5 26 -19.5 75 l-340 1188 q64 -4 155 -4 q91 0 118 8 l236 -905 l230 901 q15 -1 27 -2 l22 0 q33 -2 83 -2 q50 0 103 8 l234 -905 l201 901 q60 -4 157 -4 q97 0 118 8 l-288 -1055 q-55 -182 -58 -216 q-3 -34 -3 -47 q0 -13 4 -21 l-2 -3 q-32 4 -101 4 q-60 0 -109 0 q-49 0 -71 -2 l-1 2 q4 7 4 16 q0 9 -1 18 q-1 9 -5.5 34.5 q-4.5 25.5 -14.5 75.5 l-27 136 l-164 623 l-156 -620 q-48 -191 -50 -220 q-4 -55 1 -64 l-2 -3 Z" /><glyph glyph-name="X" unicode="x" d="M779 1233 q21 44 21 65.5 q0 21.5 -4 31.5 l360 0 q-11 -12 -28 -28.5 q-17 -16.5 -38 -39.5 q-50 -56 -92 -130 l-241 -440 l225 -423 l27 -55 q76 -158 129 -214 l-326 0 q-4 35 -34 94 l-196 376 q-207 -419 -212 -432 q-5 -17 -8 -38 l-326 0 q37 38 76 107 l120 213 l213 361 l-280 527 q-45 85 -79 122 l336 0 q-4 -10 -4 -22 q0 -27 25 -75 l167 -334 l169 334 Z" /><glyph glyph-name="Y" unicode="y" d="M451 0 q13 39 13 182 l0 278 q-173 381 -221 475.5 q-48 94.5 -81 149.5 q-104 176 -125.5 202 q-21.5 26 -43.5 43 l345 0 q11 -20 30 -59 l242 -511 q17 42 40 94 q218 469 221 476 l330 0 q-51 -41 -125 -172 q-23 -39 -46 -89 l-226 -471 q-38 -85 -65 -153 l0 -287 q0 -100 12 -158 l-300 0 Z" /><glyph glyph-name="Z" unicode="z" d="M143 1240 q0 33 -3 90 l948 0 l-582 -1090 l363 0 q142 0 167.5 8.5 q25.5 8.5 40.5 15.5 l0 -279 q-43 4 -71 7 q-28 3 -59 5 q-47 3 -182 3 l-673 0 l602 1090 l-315 0 q-195 0 -248 -21 q12 50 12 141 l0 30 Z" /><glyph glyph-name="bracketleft" unicode="[" d="M195 -110 q4 64 4 76 l0 1224 q0 140 -5 240 q164 0 320 0 q156 0 194 5 l-3 -247 q-24 6 -122 6 l-129 0 l9 -1068 l67 0 q151 0 175 6 l3 -247 q-75 5 -146 5 l-367 0 Z" /><glyph glyph-name="backslash" unicode="\" d="M256 1530 l-256 0 l599 -1700 l256 0 l-599 1700 Z" /><glyph glyph-name="bracketright" unicode="]" d="M707 -110 q-4 64 -4 76 l0 1224 q0 140 5 240 q-164 0 -320 0 q-156 0 -194 5 l3 -247 q24 6 122 6 l129 0 l-9 -1068 l-67 0 q-151 0 -175 6 l-3 -247 q75 5 146 5 l367 0 Z" /><glyph glyph-name="asciicircum" unicode="^" d="M480 1415 l214 0 l417 -905 l-282 0 l-240 611 l-227 -611 l-281 0 l399 905 Z" /><glyph glyph-name="underscore" unicode="_" d="M1384 -174 l0 -160 l-1413 0 l0 160 l1413 0 Z" /><glyph glyph-name="grave" unicode="`" d="M132 1520 q170 -17 320 -17 l169 -313 l-226 0 l-262 323 l-1 7 Z" /><glyph glyph-name="a" unicode="a" d="M837 62 q-142 -77 -257 -77 q-115 0 -197 21.5 q-82 21.5 -139 63.5 q-116 85 -116 246 q0 144 142 240 q154 104 418 104 l40 -1 q12 -1 27 -1.5 q15 -0.5 27 -2.5 q-8 160 -138 187 q-43 9 -91.5 9 q-48.5 0 -95 -8.5 q-46.5 -8.5 -90.5 -22.5 q-97 -31 -139 -71 l-3 2 l-30 221 q177 93 387 93 q326 0 417 -235 q29 -75 29 -169 l0 -362 q0 -116 82 -158 l-181 -166 q-57 30 -92 87 ZM783 475 q-27 5 -56 5 l-40 0 q-221 0 -281 -98 q-18 -29 -18 -61 q0 -32 11.5 -56.5 q11.5 -24.5 38.5 -40.5 q52 -30 154.5 -30 q102.5 0 191.5 49 q-1 11 -1 23 l0 209 Z" /><glyph glyph-name="b" unicode="b" d="M397 1007 q112 58 229 58 q117 0 201.5 -36.5 q84.5 -36.5 148.5 -104.5 q139 -151 139 -382 q0 -253 -151 -408 q-145 -149 -361 -149 q-190 0 -313 99 q-138 112 -138 309 l0 1095 l245 0 l0 -481 ZM397 396 q0 -176 219 -176 q107 0 180 94 q74 96 74 239 q0 144 -78 217 q-70 65 -188 65 q-71 0 -157 -48 q-27 -15 -50 -33 l0 -358 Z" /><glyph glyph-name="c" unicode="c" d="M964 97 q-112 -112 -351 -112 q-232 0 -379 141 q-149 143 -149 380 q0 241 147 396 q156 163 417 163 q185 0 310 -81 l-40 -256 l-7 1 q-48 58 -101 76 q-86 30 -172 30 q-86 0 -135 -22 q-49 -22 -84 -61 q-70 -80 -70 -212 q0 -234 162 -306 q56 -24 118.5 -24 q62.5 0 109 11 q46.5 11 84.5 30 q81 40 110 93 l7 -3 l23 -244 Z" /><glyph glyph-name="d" unicode="d" d="M864 56 q-127 -71 -254 -71 q-127 0 -222 40 q-95 40 -162 110 q-138 144 -138 374 q0 238 160 396 q161 160 412 160 q77 0 151 -20 l0 445 l245 0 l0 -1069 q0 -133 12.5 -174 q12.5 -41 28 -60 q15.5 -19 39.5 -36 l-188 -166 q-52 28 -84 71 ZM657 215 q84 0 154 32 l0 554 q-70 29 -152 29 q-82 0 -140.5 -22 q-58.5 -22 -100.5 -61 q-88 -82 -88 -213 q0 -143 80 -228 q86 -91 247 -91 Z" /><glyph glyph-name="e" unicode="e" d="M97 514 q0 117 40 217 q40 100 113 175 q156 159 408 159 q213 0 342 -141 q127 -136 127 -342 q0 -79 -12 -108 q-100 -28 -407 -28 l-352 0 q26 -107 121 -166.5 q95 -59.5 247 -59.5 q159 0 273 57 q30 15 45 28 q-2 -42 -5 -86 l-11 -156 q-76 -52 -246 -72 q-50 -6 -96 -6 q-254 0 -420 148 q-167 149 -167 381 ZM861 640 q-41 215 -234 215 q-152 0 -231 -131 q-24 -40 -37 -88 q24 -1 59 -2 l74 0 q37 -1 71 -1 l57 0 q51 0 100 1 l82 3 q33 1 59 3 Z" /><glyph glyph-name="f" unicode="f" d="M646 930 q-8 -29 -8 -146 l0 -88 l-241 0 l0 -696 l-245 0 l0 696 l-147 0 q1 66 2 117 l2 107 l0 10 l143 0 l0 62 q0 240 112 386 q117 151 322 151 q87 0 115 -12 l1 -251 l-2 -5 q-38 38 -96.5 38 q-58.5 0 -94.5 -19.5 q-36 -19.5 -61 -55.5 q-51 -72 -51 -197 l0 -97 l249 0 Z" /><glyph glyph-name="g" unicode="g" d="M416 278 q-37 -49 -37 -77.5 q0 -28.5 9 -44 q9 -15.5 39 -29.5 q66 -31 217 -54.5 q151 -23.5 236.5 -58.5 q85.5 -35 138.5 -86 q99 -97 99 -275 q0 -178 -125 -273.5 q-125 -95.5 -371 -95.5 q-248 0 -400 108 q-152 108 -156 287 q-6 208 163 301 q-46 38 -61.5 89.5 q-15.5 51.5 -15.5 117.5 q0 111 97 188 q-113 107 -113 266 q0 178 128 298 q135 126 350 126 q113 0 212 -42 q130 55 191 96.5 q61 41.5 78 60.5 l6 -1 q9 -24 21 -68 l18 -72 q24 -89 29 -122 q-44 -48 -155 -68 q43 -83 43 -176 q0 -93 -32 -168.5 q-32 -75.5 -91 -132.5 q-131 -123 -334 -123 q-99 0 -184 29 ZM390 728 q-14 -36 -14 -73 q0 -37 15.5 -71 q15.5 -34 45.5 -61 q67 -60 175 -60 q82 0 142 55 q63 60 63 144.5 q0 84.5 -57 136.5 q-57 52 -157 52 q-165 0 -213 -123 ZM635 -504 q246 0 246 172 q0 82 -80 132 q-90 57 -309 89 l-52 9 q-66 -35 -97 -90 q-31 -55 -30.5 -104.5 q0.5 -49.5 23.5 -85.5 q23 -36 64 -63 q91 -59 235 -59 Z" /><glyph glyph-name="h" unicode="h" d="M418 112 q0 -86 4 -112 l-249 0 l0 1430 l245 0 l0 -463 q129 98 266 98 q168 0 270 -111 q100 -111 100 -294 l0 -398 q0 -169 5 -203 q5 -34 13.5 -44 q8.5 -10 14.5 -18 l-2 -4 q-81 7 -118 7 l-71 0 q-33 0 -87 -3 l0 579 q0 138 -61 204 q-46 50 -125 50 q-117 0 -205 -135 l0 -583 Z" /><glyph glyph-name="i" unicode="i" d="M115 1343 q80 125 167 220 l215 -169 q-43 -53 -80 -104 q0 0 -77 -109 l-225 162 ZM378 112 q0 -86 4 -112 l-254 0 l0 1045 l250 0 l0 -933 Z" /><glyph glyph-name="j" unicode="j" d="M95 1336 q65 104 149 196 l191 -151 q-50 -64 -68 -88 l-35 -49 q-17 -23 -36 -52 l-201 144 ZM-16 -155 q148 0 148 220 l0 980 l243 0 l0 -908 q0 -420 -239 -497 q-78 -25 -177 -25 l-104 263 l2 5 q57 -38 127 -38 Z" /><glyph glyph-name="k" unicode="k" d="M407 132 q0 -86 7 -132 l-252 0 l0 1430 l245 0 l0 -876 l457 491 l297 0 l-394 -415 l225 -307 q73 -116 110 -170 l66 -93 q30 -39 50 -60 l-158 0 q-88 0 -151 -15 l-312 456 l-190 -202 l0 -107 Z" /><glyph glyph-name="l" unicode="l" d="M379 112 q0 -86 4 -112 l-254 0 l0 1490 l250 0 l0 -1378 Z" /><glyph glyph-name="m" unicode="m" d="M417 289 q0 -225 8 -289 l-261 0 l0 1045 l253 0 l0 -90 q137 110 281 110 q170 0 247 -147 q77 79 128 104 q85 43 170.5 43 q85.5 0 145.5 -29 q60 -29 99 -82 q79 -107 79 -294 l0 -398 q0 -169 5 -203 q5 -34 13.5 -44 q8.5 -10 14.5 -18 l-2 -4 q-80 7 -118 7 l-75 0 q-37 0 -91 -3 l0 541 q0 234 -72 278 q-24 14 -56.5 14 q-32.5 0 -57.5 -7.5 q-25 -7.5 -47 -24.5 q-37 -27 -84 -106 q1 -8 1 -16 q0 -8 0 -264 q0 -256 12 -412 q-85 0 -144.5 0 q-59.5 0 -113.5 -3 l0 542 q0 163 -19.5 212 q-19.5 49 -41.5 64 q-22 15 -54 15 q-132 0 -220 -127 l0 -414 Z" /><glyph glyph-name="n" unicode="n" d="M410 128 q0 -88 8 -128 l-251 0 l0 1045 l243 0 l0 -89 q132 109 282 109 q164 0 262 -111.5 q98 -111.5 98 -293.5 l0 -398 q0 -169 5 -203 q5 -34 13.5 -44 q8.5 -10 14.5 -18 l-2 -4 q-81 7 -118 7 l-70 0 q-32 0 -86 -3 l0 545 q0 293 -178 293 q-132 0 -221 -136 l0 -571 Z" /><glyph glyph-name="o" unicode="o" d="M71 517 q0 110 37.5 210.5 q37.5 100.5 107.5 175.5 q153 162 397 162 q243 0 386 -153 q137 -146 137 -379 q0 -233 -141 -386 q-149 -162 -395 -162 q-254 0 -398 159 q-131 145 -131 373 ZM314 523 q0 -63 21 -122 q21 -59 60 -101 q83 -91 218 -91 q125 0 197 89 q70 86 70 224 q0 140 -72 226 q-77 92 -211 92 q-136 0 -213 -98 q-70 -90 -70 -219 Z" /><glyph glyph-name="p" unicode="p" d="M407 21 l0 -294 q0 -86 4 -112 l-249 0 l0 1430 l245 0 l0 -65 q121 85 232 85 q111 0 197 -31 q86 -31 151 -96 q143 -141 143 -402 q0 -173 -81 -309 q-69 -115 -191 -184 q-108 -61 -234 -61 q-126 0 -217 39 ZM407 273 q76 -64 197 -64 q198 0 256 191 q20 65 20 139.5 q0 74.5 -14 119 q-14 44.5 -36.5 77 q-22.5 32.5 -50.5 54 q-28 21.5 -57 34.5 q-51 23 -105 23 q-54 0 -112 -25 q-58 -25 -98 -67 l0 -482 Z" /><glyph glyph-name="q" unicode="q" d="M844 -385 q4 26 4 112 l0 365 q-124 -107 -275 -107 q-207 0 -336 133 q-135 138 -135 368 q0 260 144 418 q140 151 355 151 q164 0 258 -52 l234 42 l0 -1430 l-249 0 ZM848 769 q-72 69 -230 69 q-124 0 -198 -94 q-73 -93 -73 -233 q0 -208 148 -277 q50 -24 118 -24 q141 0 235 130 l0 429 Z" /><glyph glyph-name="r" unicode="r" d="M383 112 q0 -86 4 -112 l-249 0 l0 1045 l245 0 l0 -77 q85 97 178.5 97 q93.5 0 147.5 -23 l-18 -269 l-4 -3 q-35 62 -145 62 q-42 0 -85.5 -28.5 q-43.5 -28.5 -73.5 -75.5 l0 -616 Z" /><glyph glyph-name="s" unicode="s" d="M499 -15 q-282 0 -425 103 q2 30 6 68 l9 72 q8 71 10 88.5 q2 17.5 3 19 q1 1.5 16 -16 q15 -17.5 57 -42.5 q42 -25 97 -44 q119 -41 248 -41 q173 0 173 115 q0 37 -33 55 q-59 30 -173.5 45.5 q-114.5 15.5 -187.5 45.5 q-73 30 -119 72 q-85 79 -85 207 q0 156 120 245 q119 88 329 88 q208 0 355 -118 q-7 -26 -15 -50 q-23 -66 -34 -95 l-23 -59 q-2 -8 -3 -8 q-2 0 -16 21 q-63 73 -196 96 q-41 8 -84 8 q-182 0 -182 -110 q0 -38 38 -58 q71 -38 194.5 -56 q123.5 -18 187.5 -48.5 q64 -30.5 103 -73.5 q72 -78 72 -207 q0 -141 -113 -229 q-118 -93 -329 -93 Z" /><glyph glyph-name="t" unicode="t" d="M611 220 q129 0 177 67 l8 0 l3 -232 q-49 -49 -182 -65 q-36 -5 -89.5 -5 q-53.5 0 -116 20 q-62.5 20 -106.5 65 q-91 93 -91 291 l0 454 l-151 0 q-1 29 -1 59 l0 154 q0 17 1 17 l151 0 l0 285 l245 0 l0 -285 l275 0 l0 -230 l-275 0 l0 -408 q0 -157 87 -179 q28 -8 65 -8 Z" /><glyph glyph-name="u" unicode="u" d="M773 91 q-128 -106 -279 -106 q-162 0 -254 109 q-88 106 -88 291 l0 397 q0 200 -8.5 229.5 q-8.5 29.5 -12.5 37.5 q46 -4 96 -4 l83 0 q33 0 87 3 l0 -579 q0 -206 112 -239 q34 -10 74 -10 q118 0 190 86 l0 739 l248 0 l0 -917 q0 -88 8 -128 l-256 0 l0 91 Z" /><glyph glyph-name="v" unicode="v" d="M-4 1045 l283 0 l244 -688 l236 688 l277 0 l-413 -1045 l-206 0 l-421 1045 Z" /><glyph glyph-name="w" unicode="w" d="M7 1045 l269 0 l186 -751 l200 751 l230 0 l207 -767 l186 767 l242 0 l-308 -1045 l-259 0 l-198 685 l-184 -685 l-257 0 l-314 1045 Z" /><glyph glyph-name="x" unicode="x" d="M374 533 l-354 512 l313 0 l185 -319 l200 319 l291 0 q-1 0 -22 -29 l-326 -465 l370 -551 l-310 0 l-200 339 l-198 -339 l-313 0 l364 533 Z" /><glyph glyph-name="y" unicode="y" d="M51 -348 l66 53 q149 121 247 357 l46 111 l-383 872 l280 0 l240 -604 l223 604 l288 0 q-52 -72 -127 -268 l-150 -371 q-301 -708 -472 -844 l-258 90 Z" /><glyph glyph-name="z" unicode="z" d="M145 998 l-2 47 l845 0 l-510 -845 l393 0 q88 0 119 25 l-66 -240 q-44 3 -106 5 l-124 6 q-115 4 -217 4 q-226 0 -421 -15 l523 864 l-248 0 q-116 0 -190 -26 q4 78 4 121 l0 54 Z" /><glyph glyph-name="braceleft" unicode="{" d="M767 -93 q-69 -12 -150 -12 q-81 0 -150 21 q-69 21 -113 57 q-87 70 -87 187 q0 114 86 203 q27 61 41.5 98.5 q14.5 37.5 14.5 72.5 q0 81 -187 114 l0 55 q136 24 172 59 q15 14 15 32 q0 18 -2.5 33.5 q-2.5 15.5 -8.5 33.5 q-12 32 -44 96 q-87 83 -87 209 q0 108 84 186 q100 93 280 93 q59 0 136 -12 l-10 -203 l-4 -2 q-28 7 -48.5 8.5 q-20.5 1.5 -45.5 4 q-25 2.5 -51 -4 q-26 -6.5 -45 -18.5 q-40 -27 -40 -65 q0 -79 100 -175 q58 -122 58 -185 q0 -78 -159 -128 q159 -51 159 -119 q0 -60 -50 -171 l-49 -57 q-59 -69 -59 -115 q0 -46 43 -77 q45 -34 108 -26 q20 2 38.5 3.5 q18.5 1.5 40.5 8.5 l4 -2 l10 -203 Z" /><glyph glyph-name="bar" unicode="|" d="M333 -170 q4 64 4 119 l0 1459 q0 22 -5 122 l265 0 q-5 -100 -5 -183 l0 -1405 q0 -86 4 -112 l-263 0 Z" /><glyph glyph-name="braceright" unicode="}" d="M222 -93 q69 -12 150 -12 q81 0 150 21 q69 21 113 57 q87 70 87 187 q0 114 -86 203 q-27 61 -41.5 98.5 q-14.5 37.5 -14.5 72.5 q0 81 187 114 l0 55 q-136 24 -172 59 q-15 14 -15 32 q0 18 2.5 33.5 q2.5 15.5 8.5 33.5 q12 32 44 96 q87 83 87 209 q0 108 -84 186 q-100 93 -280 93 q-59 0 -136 -12 l10 -203 l4 -2 q28 7 48.5 8.5 q20.5 1.5 45.5 4 q25 2.5 51 -4 q26 -6.5 45 -18.5 q40 -27 40 -65 q0 -79 -100 -175 q-58 -122 -58 -185 q0 -78 159 -128 q-159 -51 -159 -119 q0 -60 50 -171 l49 -57 q59 -69 59 -115 q0 -46 -43 -77 q-45 -34 -108 -26 q-20 2 -38.5 3.5 q-18.5 1.5 -40.5 8.5 l-4 -2 l-10 -203 Z" /><glyph glyph-name="asciitilde" unicode="~" d="M1093 543 q212 0 283 205 l6 -3 l19 -273 q-87 -159 -338 -159 q-136 0 -319 133 q-113 82 -176 107 q-63 25 -114 25 q-51 0 -93 -9 q-42 -9 -79 -31 q-74 -43 -134 -145 l-6 3 l-8 276 q122 142 347 142 q121 0 319 -135.5 q198 -135.5 293 -135.5 Z" /><glyph glyph-name="nonbreakingspace" unicode=" " d="" /><glyph glyph-name="exclamdown" unicode="¡" d="M215 988 q51 -6 175 -6 l80 0 l2 -978 l-91 4 l-22 0 q-116 0 -148 -8 l4 988 ZM209 1122 q4 50 4 127.5 q0 77.5 -4 112.5 l265 0 q-8 -62 -8 -122.5 q0 -60.5 6 -117.5 l-263 0 Z" /><glyph glyph-name="cent" unicode="¢" d="M650 -195 q9 34 9 135 l0 37 q-225 18 -367 164 q-141 145 -141 355 q0 215 139 369 q136 150 362 189 l0 67 q0 101 -9 135 l269 0 q-4 -58 -4 -124 l0 -72 q167 -13 264 -51 l-28 -272 l-9 -9 q-80 68 -261 90 q-53 7 -122 7 q-69 0 -137 -23.5 q-68 -23.5 -113 -63.5 q-89 -79 -89 -206 q0 -138 100 -224 q107 -93 278 -93 q204 0 330 113 q39 35 59 79 l7 -6 l-14 -295 q-85 -79 -258 -111 l0 -66 q4 -121 4 -124 l-269 0 Z" /><glyph glyph-name="sterling" unicode="£" d="M656 576 q4 -40 4 -125.5 q0 -85.5 -36 -189.5 q59 -11 86 -15 q27 -4 49.5 -9 q22.5 -5 48.5 -10 q62 -12 120.5 -12 q58.5 0 95 3 q36.5 3 64.5 10 q57 14 89 40 l6 1 l-8 -260 q-84 -34 -202 -34 q-43 0 -123 13 l-117 20 q-54 9 -86 15 l-55 10 q-40 7 -71 7 q-45 0 -77 -7 q-84 -43 -212 -59 l-50 254 q49 28 171 43 q52 117 52 190 q0 73 -4 115 l-175 0 l-13 240 l145 0 q-12 77 -12 160 q0 83 32 155 q32 72 90 121 q122 103 324 103 q188 0 310 -43 l-36 -250 l-2 -5 q-76 33 -163.5 45.5 q-87.5 12.5 -115.5 12.5 q-184 0 -184 -163 q0 -84 8 -136 l256 0 q109 0 132 6 l3 -251 q-48 5 -124 5 l-220 0 Z" /><glyph glyph-name="currency" unicode="¤" d="M1167 865 q60 -98 60 -214 q0 -116 -68 -215 l77 -76 q46 -47 91 -85 l-191 -190 q-22 36 -89 101 l-90 90 q-91 -37 -193 -37 q-102 0 -187 34 l-88 -88 q-72 -72 -89 -102 l-190 191 q23 19 46 40 l122 122 q-59 92 -59 205.5 q0 113.5 57 209.5 l-75 75 q-65 67 -101 89 l190 191 q38 -45 85 -91 l92 -93 q99 43 209 43 q110 0 194 -35 q137 136 173 179 l191 -190 q-30 -17 -102 -89 l-65 -65 ZM569 652 q0 -38 17 -71 q17 -33 46 -57 q60 -49 147 -49 q85 0 143 48 q61 50 61 133 q0 71 -57 123 q-62 56 -153 56 q-90 0 -149 -55 q-55 -52 -55 -128 Z" /><glyph glyph-name="yen" unicode="¥" d="M662 0 q13 39 13 182 l0 188 l-351 0 l0 196 l351 0 l0 94 l-351 0 l0 196 l217 0 l-168 238 q-116 167 -205 236 l355 0 q7 -31 52 -100 l221 -368 l218 368 q45 81 42 100 l310 0 q-22 -12 -156 -230 l-159 -244 l83 0 q110 0 132 6 l0 -207 q-48 5 -122 5 l-214 0 l0 -94 l202 0 q110 0 132 6 l0 -207 q-48 5 -130 5 l-204 0 l0 -212 q0 -100 12 -158 l-280 0 Z" /><glyph glyph-name="brokenbar" unicode="¦" d="M592 963 q0 -86 4 -112 l-263 0 q4 64 4 77 l0 480 q0 22 -5 122 l265 0 q-5 -100 -5 -183 l0 -384 ZM592 -58 q0 -86 4 -112 l-263 0 l2 33 q2 34 2 73 l0 449 q0 22 -5 122 l265 0 q-5 -100 -5 -183 l0 -382 Z" /><glyph glyph-name="section" unicode="§" d="M1020 175 q135 -106 135 -247 q0 -186 -163 -290 q-145 -94 -346 -94 q-163 0 -318 70 q-45 21 -75 45 l-11 306 l3 2 q47 -79 175 -137 q126 -57 255 -57 q95 0 145 24.5 q50 24.5 69 45.5 q19 21 19 47 q0 105 -308 161 q-316 57 -418 229 q-34 56 -34 120 q0 210 204 325 q-145 116 -145 258 q0 160 139 263 q146 109 397 109 q172 0 305 -62 q38 -18 63 -37 l-38 -288 l-5 -3 q-81 108 -252 145 q-58 12 -118.5 12 q-60.5 0 -103 -9.5 q-42.5 -9.5 -72.5 -25.5 q-62 -33 -62 -82 q0 -82 166 -136 q52 -17 146 -32.5 q94 -15.5 183 -51.5 q89 -36 147 -82 q113 -91 113 -208 q0 -208 -195 -320 ZM407 513 q-15 -23 -15 -50.5 q0 -27.5 27 -52 q27 -24.5 69.5 -44.5 q42.5 -20 94.5 -35 q52 -15 101 -26 q77 -17 154 -28 l56 39 q52 36 65.5 62.5 q13.5 26.5 13.5 54.5 q0 28 -37 56 q-37 28 -96 51 q-104 41 -273 72 q-114 -29 -160 -99 Z" /><glyph glyph-name="dieresis" unicode="¨" d="M787 1430 q-4 -50 -4 -127.5 q0 -77.5 4 -112.5 l-265 0 q8 62 8 122.5 q0 60.5 -6 117.5 l263 0 ZM357 1430 q-4 -50 -4 -127.5 q0 -77.5 4 -112.5 l-265 0 q8 62 8 122.5 q0 60.5 -6 117.5 l263 0 Z" /><glyph glyph-name="copyright" unicode="©" d="M390 302 q-102 90 -159.5 217 q-57.5 127 -57.5 264 q0 137 31 232.5 q31 95.5 85 170.5 q54 75 127.5 130 q73.5 55 159.5 90 q265 110 558 47 q192 -41 334 -151 q147 -114 206 -291 q29 -89 29 -191.5 q0 -102.5 -27.5 -193.5 q-27.5 -91 -78 -169 q-50.5 -78 -120.5 -141.5 q-70 -63.5 -155 -107.5 q-177 -93 -363.5 -93 q-186.5 0 -326.5 48.5 q-140 48.5 -242 138.5 ZM408 799 q0 -98 38 -181 q38 -83 107 -146 q150 -137 380 -137 q248 0 395 131 q140 127 140 325 q0 214 -144 349 q-148 136 -388 136 q-246 0 -390 -138 q-138 -132 -138 -339 ZM1198 545 q-76 -64 -237 -64 q-171 0 -277 93 q-102 90 -102 226 q0 141 110 236 q114 99 292 99 q118 0 204 -40 l0 -227 l-1 0 q-44 41 -147 56 q-29 5 -54 5 q-90 0 -135.5 -34 q-45.5 -34 -45.5 -88 q0 -54 52.5 -87 q52.5 -33 140.5 -33 q85 0 162 39 q23 12 36 25 l2 -1 l0 -205 Z" /><glyph glyph-name="ordfeminine" unicode="ª" d="M773 671 q-101 -94 -229.5 -94 q-128.5 0 -206 32 q-77.5 32 -125.5 85 q-92 100 -92 263 q0 171 112 283 q115 115 304 115 q107 0 200 -58 l0 64 l255 0 l0 -463 q0 -169 81 -204 l-2 -5 l-198 -129 q-52 17 -99 111 ZM736 1093 q-90 42 -174.5 42 q-84.5 0 -135.5 -45 q-51 -45 -51 -121 q0 -76 58 -124 q60 -49 143.5 -49 q83.5 0 159.5 42 l0 255 Z" /><glyph glyph-name="guillemotleft" unicode="«" d="M229 449 q-28 49 -28 68 q0 34 23 78 l201 320 l255 0 l-227 -388 l233 -387 l-255 0 l-202 309 ZM706 449 q-28 49 -28 68 q0 34 23 78 l201 320 l255 0 l-227 -388 l233 -387 l-255 0 l-202 309 Z" /><glyph glyph-name="logicalnot" unicode="¬" d="M386 500 q-76 0 -124 -5 l3 247 q23 -6 132 -6 l739 0 q110 0 132 6 l0 -404 q0 -76 5 -124 l-247 3 q6 23 6 132 l0 151 l-646 0 Z" /><glyph glyph-name="uni00AD" unicode="­" d="" /><glyph glyph-name="registered" unicode="®" d="M388 302 q-102 90 -159.5 217 q-57.5 127 -57.5 264 q0 137 31 232.5 q31 95.5 85 170.5 q54 75 127.5 130 q73.5 55 159.5 90 q265 110 558 47 q192 -41 334 -151 q147 -114 206 -291 q29 -89 29 -191.5 q0 -102.5 -27.5 -193.5 q-27.5 -91 -78 -169 q-50.5 -78 -120.5 -141.5 q-70 -63.5 -155 -107.5 q-177 -93 -363.5 -93 q-186.5 0 -326.5 48.5 q-140 48.5 -242 138.5 ZM406 799 q0 -98 38 -181 q38 -83 107 -146 q150 -137 380 -137 q248 0 395 131 q140 127 140 325 q0 214 -144 349 q-148 136 -388 136 q-246 0 -390 -138 q-138 -132 -138 -339 ZM986 639 q-32 -4 -53 -4 l-30 0 q-9 0 -17 2 l0 -142 l-225 0 l0 610 q100 27 215 27 q115 0 184 -20 q69 -20 114 -54 q87 -67 87 -169 q0 -102 -82 -171 l54 -104 q8 -15 19 -34 q48 -80 56 -86 l-2 -2 q-23 3 -39 3 l-43 0 q-108 0 -164 -4 l-74 148 ZM932 804 q113 0 113 89 q0 33 -35.5 53 q-35.5 20 -71.5 20 l-42 0 q-5 0 -10 -1 l0 -159 q13 -2 24 -2 l22 0 Z" /><glyph glyph-name="macron" unicode="¯" d="M802 1523 q-4 -50 -4 -76 l0 -34 q0 -8 4 -60 l-675 0 l3 26 q5 33 5 60 q0 27 -6 84 l673 0 Z" /><glyph glyph-name="degree" unicode="°" d="M505 732 q-79 0 -143 26 q-64 26 -110 72 q-99 96 -99 243 q0 146 96 246 q103 107 273 107 q151 0 253 -108 q97 -102 97 -238 q0 -150 -103 -248 q-106 -100 -264 -100 ZM400 969 q21 -21 51.5 -32.5 q30.5 -11.5 66 -11.5 q35.5 0 63.5 11.5 q28 11.5 49 32.5 q43 45 43 114 q0 105 -91 143 q-30 13 -67.5 13 q-37.5 0 -66.5 -13 q-29 -13 -50 -34 q-42 -45 -42 -95 q0 -50 11.5 -78.5 q11.5 -28.5 32.5 -49.5 Z" /><glyph glyph-name="plusminus" unicode="±" d="M800 578 q0 -76 5 -124 l-247 3 q6 23 6 132 l0 211 l-213 0 q-76 0 -124 -5 l3 247 q22 -6 132 -6 l202 0 l0 192 q0 110 -6 132 l247 3 q-5 -48 -5 -124 l0 -203 l201 0 q109 0 132 6 l3 -247 q-48 5 -124 5 l-212 0 l0 -222 ZM351 100 q-76 0 -124 -5 l3 227 q22 -6 132 -6 l639 0 q109 0 132 6 l3 -227 q-48 5 -124 5 l-661 0 Z" /><glyph glyph-name="twosuperior" unicode="²" d="M657 603 q-139 9 -252 9 q-188 0 -306 -8 l91 145 q184 294 184 369 q0 29 -17 52 q-17 23 -37 23 q-20 0 -41.5 -3.5 q-21.5 -3.5 -42.5 -11.5 q-48 -16 -77 -41 l-7 -1 l5 229 q58 40 208 40 q117 0 197 -57 q82 -58 82 -158 q0 -139 -140 -378 l156 0 q69 0 91 17 l5 -2 l-99 -224 Z" /><glyph glyph-name="threesuperior" unicode="³" d="M593 1054 q61 -32 98 -86.5 q37 -54.5 37 -115.5 q0 -61 -23.5 -107.5 q-23.5 -46.5 -67.5 -78.5 q-91 -68 -247 -68 q-179 0 -276 73 l-2 199 l5 6 q50 -50 188 -72 q40 -7 78 -7 q114 0 114 63 q0 25 -20 40 q-37 29 -71.5 29 q-34.5 0 -50.5 -2 q-16 -2 -29 -4 q-28 -4 -31 -7 l-3 5 l5 155 q30 15 91 15 l1 0 q52 20 52 55 q0 66 -93.5 66 q-93.5 0 -164.5 -42 l-2 3 l-7 190 q78 52 234 52 q123 0 200 -51 q76 -52 76 -148 q0 -96 -91 -162 Z" /><glyph glyph-name="acute" unicode="´" d="M412 1503 q150 0 320 17 l-1 -7 l-262 -323 l-226 0 l169 313 Z" /><glyph glyph-name="mu" unicode="µ&#x3bc;" d="M356 -407 q-113 84 -113 362 l0 865 q0 142 -13 229 q46 -4 92 -4 l79 0 q33 0 87 3 l0 -746 q66 -82 197 -82 q86 0 149 61 l0 764 l245 0 l0 -671 q0 -154 106 -154 q53 0 81 32 l8 0 l-57 -248 q-33 -19 -106 -19 q-137 0 -215 100 q-125 -100 -263 -100 q-86 0 -168 41 q6 -238 92 -297 l0 -5 l-201 -131 Z" /><glyph glyph-name="paragraph" unicode="¶" d="M538 22 q-59 -22 -141 -22 q-82 0 -146 28 l0 239 l7 2 q54 -30 97.5 -30 q43.5 0 60.5 6 q17 6 28 21 q23 29 23 103 l0 194 q-168 6 -265 124 q-86 104 -86 257 q0 279 286 360 q94 26 219 26 l569 0 q-8 -82 -8 -239 l0 -979 q0 -86 4 -112 l-249 0 l0 1092 q-48 3 -83 3 l-67 0 q-32 0 -65 -1 l0 -627 q0 -374 -184 -445 Z" /><glyph glyph-name="periodcentered" unicode="·" d="M109 600 q9 61 9 108 q0 47 -0.5 64.5 q-0.5 17.5 -1.5 34.5 q-1 17 -2 32 l-3 25 l290 0 q-3 -38 -3 -62 l-2 -42 q0 -19 0 -71.5 q0 -52.5 5 -88.5 l-292 0 Z" /><glyph glyph-name="cedilla" unicode="¸" d="M449 40 q0 0 7 -51 q9 -56 9 -140 q0 -84 -22.5 -139 q-22.5 -55 -51.5 -72 q-59 -38 -215 -70 l-6 6 q70 99 70 426 l209 40 Z" /><glyph glyph-name="onesuperior" unicode="¹" d="M219 1390 l245 0 l0 -790 l-245 0 l0 790 Z" /><glyph glyph-name="ordmasculine" unicode="º" d="M584 577 q-102 0 -183.5 34 q-81.5 34 -134.5 88 q-106 106 -106 258 q0 169 125 283 q126 115 316 115 q185 0 307 -107 q124 -109 124 -276 q0 -163 -127 -278 q-128 -117 -321 -117 ZM458 842 q27 -23 64.5 -36 q37.5 -13 79 -13 q41.5 0 75 13 q33.5 13 57.5 36 q54 49 54 117 q0 75 -58 125 q-56 51 -122 51 q-66 0 -101.5 -16 q-35.5 -16 -59.5 -41 q-47 -49 -47 -100 q0 -51 15.5 -82 q15.5 -31 42.5 -54 Z" /><glyph glyph-name="guillemotright" unicode="»" d="M658 449 q28 49 28 68 q0 34 -23 78 l-201 320 l-255 0 l227 -388 l-233 -387 l255 0 l202 309 ZM1135 449 q28 49 28 68 q0 34 -23 78 l-201 320 l-255 0 l227 -388 l-233 -387 l255 0 l202 309 Z" /><glyph glyph-name="onequarter" unicode="¼" d="M250 1390 l245 0 l0 -790 l-245 0 l0 790 ZM1102 1330 l245 0 l-750 -1330 l-245 0 l750 1330 ZM1636 363 q94 0 148 14 l3 -3 l-62 -231 l-110 0 l0 -143 l-245 0 l0 143 l-386 0 l-20 44 l311 583 l340 -1 l0 -406 l21 0 ZM1370 363 l0 237 l-96 -237 l96 0 Z" /><glyph glyph-name="onehalf" unicode="½" d="M277 1390 l245 0 l0 -790 l-245 0 l0 790 ZM1105 1330 l245 0 l-750 -1330 l-245 0 l750 1330 ZM1666 -8 q-293 19 -558 1 l91 145 q184 294 184 369 q0 29 -17 52 q-17 23 -37 23 q-20 0 -41.5 -3.5 q-21.5 -3.5 -43.5 -10.5 q-47 -17 -76 -42 l-7 -1 l5 229 q58 40 208 40 q117 0 196 -56 q83 -59 83 -159 q0 -139 -140 -378 l156 0 q69 0 91 17 l5 -2 l-99 -224 Z" /><glyph glyph-name="threequarters" unicode="¾" d="M1314 1330 l245 0 l-750 -1330 l-245 0 l750 1330 ZM1846 363 q94 0 148 14 l3 -3 l-62 -231 l-110 0 l0 -143 l-245 0 l0 143 l-386 0 l-20 44 l311 583 l340 -1 l0 -406 l21 0 ZM1580 363 l0 237 l-96 -237 l96 0 ZM697 1054 q61 -32 98 -86.5 q37 -54.5 37 -115.5 q0 -61 -23.5 -107.5 q-23.5 -46.5 -67.5 -78.5 q-91 -68 -247 -68 q-179 0 -276 73 l-2 199 l5 6 q50 -50 188 -72 q40 -7 78 -7 q114 0 114 63 q0 25 -20 40 q-37 29 -71.5 29 q-34.5 0 -50.5 -2 q-16 -2 -29 -4 q-28 -4 -31 -7 l-3 5 l5 155 q30 15 91 15 l1 0 q52 20 52 55 q0 66 -93.5 66 q-93.5 0 -164.5 -42 l-2 3 l-7 190 q78 52 234 52 q123 0 200 -51 q76 -52 76 -148 q0 -96 -91 -162 Z" /><glyph glyph-name="questiondown" unicode="¿" d="M360 877 q87 65 188 113 q125 -48 125 -178 q0 -56 -29 -103 q-58 -90 -169 -183 q-81 -68 -103 -100 q-33 -48 -33 -89 q0 -41 17 -69.5 q17 -28.5 47 -48.5 q61 -41 154 -41 q122 0 219 83 q33 28 54 68 l7 2 q-3 -44 9 -89 l42 -150 q-142 -134 -367 -134 q-191 0 -319 109 q-120 104 -120 249 q0 72 30 124 q49 86 128 155.5 q79 69.5 109 100.5 q30 31 45 52 q23 32 23 61 q0 29 -17.5 46.5 q-17.5 17.5 -39.5 21.5 ZM382 1093 q4 50 4 127.5 q0 77.5 -4 112.5 l265 0 q-8 -62 -8 -122.5 q0 -60.5 6 -117.5 l-263 0 Z" /><glyph glyph-name="Agrave" unicode="à" d="M269 -8 q-86 8 -201 8 l-79 0 l435 1219 q29 82 29 95.5 q0 13.5 -1 16.5 l1 2 q65 -3 138 -3 q60 0 144 2 l1 -2 q-2 -4 -2 -11 q0 -19 30 -101 l444 -1221 q-20 1 -47 1 q0 0 -52 2 q-25 0 -45 0 l-155 0 l-94 288 l-452 0 l-94 -296 ZM737 528 l-151 465 l-147 -465 l298 0 ZM354 1805 q170 -17 320 -17 l169 -313 l-226 0 l-262 323 l-1 7 Z" /><glyph glyph-name="Aacute" unicode="á" d="M269 -8 q-86 8 -201 8 l-79 0 l435 1219 q29 82 29 95.5 q0 13.5 -1 16.5 l1 2 q65 -3 138 -3 q60 0 144 2 l1 -2 q-2 -4 -2 -11 q0 -19 30 -101 l444 -1221 q-20 1 -47 1 q0 0 -52 2 q-25 0 -45 0 l-155 0 l-94 288 l-452 0 l-94 -296 ZM737 528 l-151 465 l-147 -465 l298 0 ZM523 1788 q150 0 320 17 l-1 -7 l-262 -323 l-226 0 l169 313 Z" /><glyph glyph-name="Acircumflex" unicode="â" d="M269 -8 q-86 8 -201 8 l-79 0 l435 1219 q29 82 29 95.5 q0 13.5 -1 16.5 l1 2 q65 -3 138 -3 q60 0 144 2 l1 -2 q-2 -4 -2 -11 q0 -19 30 -101 l444 -1221 q-20 1 -47 1 q0 0 -52 2 q-25 0 -45 0 l-155 0 l-94 288 l-452 0 l-94 -296 ZM737 528 l-151 465 l-147 -465 l298 0 ZM497 1473 q-215 0 -263 -3 l-3 3 l242 331 q24 -3 66 -3 l51 0 l121 3 l255 -331 l-4 -3 l-255 3 l-113 177 l-97 -177 Z" /><glyph glyph-name="Atilde" unicode="ã" d="M269 -8 q-86 8 -201 8 l-79 0 l435 1219 q29 82 29 95.5 q0 13.5 -1 16.5 l1 2 q65 -3 138 -3 q60 0 144 2 l1 -2 q-2 -4 -2 -11 q0 -19 30 -101 l444 -1221 q-20 1 -47 1 q0 0 -52 2 q-25 0 -45 0 l-155 0 l-94 288 l-452 0 l-94 -296 ZM737 528 l-151 465 l-147 -465 l298 0 ZM435 1565 q-94 0 -167 -75 l-4 1 l-4 199 q68 80 185 80 q92 0 171 -54.5 q79 -54.5 163 -54.5 q119 0 156 84 l2 -2 l-10 -216 q-17 -30 -61 -49.5 q-44 -19.5 -92 -19.5 q-48 0 -77.5 8 q-29.5 8 -54.5 20 q-25 12 -46.5 25.5 q-21.5 13.5 -45.5 25.5 q-56 28 -115 28 Z" /><glyph glyph-name="Adieresis" unicode="ä" d="M269 -8 q-86 8 -201 8 l-79 0 l435 1219 q29 82 29 95.5 q0 13.5 -1 16.5 l1 2 q65 -3 138 -3 q60 0 144 2 l1 -2 q-2 -4 -2 -11 q0 -19 30 -101 l444 -1221 q-20 1 -47 1 q0 0 -52 2 q-25 0 -45 0 l-155 0 l-94 288 l-452 0 l-94 -296 ZM737 528 l-151 465 l-147 -465 l298 0 ZM946 1715 q-4 -50 -4 -127.5 q0 -77.5 4 -112.5 l-265 0 q8 62 8 122.5 q0 60.5 -6 117.5 l263 0 ZM516 1715 q-4 -50 -4 -127.5 q0 -77.5 4 -112.5 l-265 0 q8 62 8 122.5 q0 60.5 -6 117.5 l263 0 Z" /><glyph glyph-name="Aring" unicode="å" d="M269 -8 q-86 8 -201 8 l-79 0 l435 1219 q29 82 29 95.5 q0 13.5 -1 16.5 l1 2 q65 -3 138 -3 q60 0 144 2 l1 -2 q-2 -4 -2 -11 q0 -19 30 -101 l444 -1221 q-20 1 -47 1 q0 0 -52 2 q-25 0 -45 0 l-155 0 l-94 288 l-452 0 l-94 -296 ZM737 528 l-151 465 l-147 -465 l298 0 ZM592 1367 q-61 0 -111 16 q-50 16 -86 46 q-76 63 -76 172 q0 107 75 173 q76 69 212 69 q120 0 196 -69 q75 -67 75 -168 q0 -110 -80 -175 q-78 -64 -205 -64 ZM508 1537.5 q15 -13.5 38 -21.5 q23 -8 49.5 -8 q26.5 0 47.5 7.5 q21 7.5 37 20.5 q35 30 35 59.5 q0 29.5 -7.5 47 q-7.5 17.5 -22.5 31.5 q-34 33 -77.5 33 q-43.5 0 -65.5 -9 q-22 -9 -36 -24 q-28 -27 -28 -57 q0 -30 7.5 -48 q7.5 -18 22.5 -31.5 Z" /><glyph glyph-name="AE" unicode="æ" d="M279 -8 q-108 8 -215 8 l-79 0 l702 1219 l33 55 q17 26 17 38.5 q0 12.5 -2 18.5 l1 2 q64 -3 138 -3 l209 0 q61 0 119 0 l119 2 q131 1 267 6 q-11 -88 -11 -235 q0 -16 2 -24 l-2 -3 q-53 15 -148 15 l-331 0 l0 -255 l262 0 q110 0 132 6 l3 -247 q-48 5 -124 5 l-273 0 l0 -360 l424 0 q62 0 86 12 l4 -1 l-10 -251 l-759 0 l2 288 l-407 0 l-159 -296 ZM847 528 l4 529 l-284 -529 l280 0 Z" /><glyph glyph-name="Ccedilla" unicode="ç" d="M790 -20 q7 -56 7 -135.5 q0 -79.5 -22.5 -134.5 q-22.5 -55 -51.5 -72 q-59 -38 -215 -70 l-6 6 q49 70 66 298 q4 61 4 112 q-247 37 -387 224 q-133 179 -133 451 q0 323 182 509 q184 187 515 187 q206 0 338 -65 l0 -306 l-2 -2 q-56 86 -236 114 q-53 9 -134 9 q-81 0 -159 -30.5 q-78 -30.5 -128 -86.5 q-97 -109 -97 -311 q0 -235 123 -350 q102 -96 270 -96 q190 0 308 81 q43 29 73 72 l3 -2 l0 -280 q-122 -102 -318 -122 Z" /><glyph glyph-name="Egrave" unicode="è" d="M841 240 q62 0 86 12 l4 -1 l-10 -251 l-749 0 l0 1337 q27 -2 60 -3 l70 -2 q70 -2 152 -2 q229 0 453 8 q-11 -88 -11 -235 q0 -16 2 -24 l-2 -3 q-52 15 -148 15 l-315 0 l0 -255 l237 0 q110 0 132 6 l3 -247 q-48 5 -124 5 l-248 0 l0 -360 l408 0 ZM292 1805 q170 -17 320 -17 l169 -313 l-226 0 l-262 323 l-1 7 Z" /><glyph glyph-name="Eacute" unicode="é" d="M841 240 q62 0 86 12 l4 -1 l-10 -251 l-749 0 l0 1337 q27 -2 60 -3 l70 -2 q70 -2 152 -2 q229 0 453 8 q-11 -88 -11 -235 q0 -16 2 -24 l-2 -3 q-52 15 -148 15 l-315 0 l0 -255 l237 0 q110 0 132 6 l3 -247 q-48 5 -124 5 l-248 0 l0 -360 l408 0 ZM461 1788 q150 0 320 17 l-1 -7 l-262 -323 l-226 0 l169 313 Z" /><glyph glyph-name="Ecircumflex" unicode="ê" d="M841 240 q62 0 86 12 l4 -1 l-10 -251 l-749 0 l0 1337 q27 -2 60 -3 l70 -2 q70 -2 152 -2 q229 0 453 8 q-11 -88 -11 -235 q0 -16 2 -24 l-2 -3 q-52 15 -148 15 l-315 0 l0 -255 l237 0 q110 0 132 6 l3 -247 q-48 5 -124 5 l-248 0 l0 -360 l408 0 ZM435 1473 q-215 0 -263 -3 l-3 3 l242 331 q24 -3 66 -3 l51 0 l121 3 l255 -331 l-4 -3 l-255 3 l-113 177 l-97 -177 Z" /><glyph glyph-name="Edieresis" unicode="ë" d="M841 240 q62 0 86 12 l4 -1 l-10 -251 l-749 0 l0 1337 q27 -2 60 -3 l70 -2 q70 -2 152 -2 q229 0 453 8 q-11 -88 -11 -235 q0 -16 2 -24 l-2 -3 q-52 15 -148 15 l-315 0 l0 -255 l237 0 q110 0 132 6 l3 -247 q-48 5 -124 5 l-248 0 l0 -360 l408 0 ZM884 1715 q-4 -50 -4 -127.5 q0 -77.5 4 -112.5 l-265 0 q8 62 8 122.5 q0 60.5 -6 117.5 l263 0 ZM454 1715 q-4 -50 -4 -127.5 q0 -77.5 4 -112.5 l-265 0 q8 62 8 122.5 q0 60.5 -6 117.5 l263 0 Z" /><glyph glyph-name="Igrave" unicode="ì" d="M203 1334 q100 -4 121 -4 l72 0 q53 0 85 8 l-1 -1338 l-277 0 l0 1334 ZM86 1805 q170 -17 320 -17 l169 -313 l-226 0 l-262 323 l-1 7 Z" /><glyph glyph-name="Iacute" unicode="í" d="M203 1334 q100 -4 121 -4 l72 0 q53 0 85 8 l-1 -1338 l-277 0 l0 1334 ZM255 1788 q150 0 320 17 l-1 -7 l-262 -323 l-226 0 l169 313 Z" /><glyph glyph-name="Icircumflex" unicode="î" d="M203 1334 q100 -4 121 -4 l72 0 q53 0 85 8 l-1 -1338 l-277 0 l0 1334 ZM229 1473 q-215 0 -263 -3 l-3 3 l242 331 q24 -3 66 -3 l51 0 l121 3 l255 -331 l-4 -3 l-255 3 l-113 177 l-97 -177 Z" /><glyph glyph-name="Idieresis" unicode="ï" d="M203 1334 q100 -4 121 -4 l72 0 q53 0 85 8 l-1 -1338 l-277 0 l0 1334 ZM678 1715 q-4 -50 -4 -127.5 q0 -77.5 4 -112.5 l-265 0 q8 62 8 122.5 q0 60.5 -6 117.5 l263 0 ZM248 1715 q-4 -50 -4 -127.5 q0 -77.5 4 -112.5 l-265 0 q8 62 8 122.5 q0 60.5 -6 117.5 l263 0 Z" /><glyph glyph-name="Eth" unicode="ð" d="M496 -25 q-162 0 -305 26 l0 547 l-99 0 l0 236 l99 0 l0 555 q132 16 306.5 16 q174.5 0 316 -47.5 q141.5 -47.5 236.5 -135.5 q192 -176 192 -493 q0 -355 -214 -539 q-192 -165 -532 -165 ZM451 219 q65 -12 130 -12 q65 0 140 25.5 q75 25.5 130 79.5 q118 114 118 332 q0 358 -261 440 q-86 27 -199 27 l-27 0 q-15 0 -31 -1 l0 -326 l300 0 l0 -236 l-300 0 l0 -329 Z" /><glyph glyph-name="Ntilde" unicode="ñ" d="M181 0 q6 34 6 74 l0 1256 l200 0 l530 -834 l0 766 q0 55 -10 68 l270 0 q-5 -40 -5 -88 l0 -1242 l-208 0 l-522 801 l0 -801 l-261 0 ZM516 1565 q-94 0 -167 -75 l-4 1 l-4 199 q68 80 185 80 q92 0 171 -54.5 q79 -54.5 163 -54.5 q119 0 156 84 l2 -2 l-10 -216 q-17 -30 -61 -49.5 q-44 -19.5 -92 -19.5 q-48 0 -77.5 8 q-29.5 8 -54.5 20 q-25 12 -46.5 25.5 q-21.5 13.5 -45.5 25.5 q-56 28 -115 28 Z" /><glyph glyph-name="Ograve" unicode="ò" d="M281 158 q-91 87 -143.5 209 q-52.5 122 -52.5 267.5 q0 145.5 49 275.5 q49 130 140 229 q91 99 220 157.5 q129 58.5 289 58.5 q276 0 465 -174 q202 -186 202 -502 q0 -306 -208 -509 q-128 -125 -305 -172 q-87 -23 -203.5 -23 q-116.5 0 -239 48 q-122.5 48 -213.5 135 ZM363 648 q0 -93 31 -171 q31 -78 86 -134 q117 -118 301 -118 q175 0 281 113 q108 117 108 319 q0 190 -103 317 q-111 136 -304 136 q-187 0 -297 -138 q-103 -129 -103 -324 ZM523 1805 q170 -17 320 -17 l169 -313 l-226 0 l-262 323 l-1 7 Z" /><glyph glyph-name="Oacute" unicode="ó" d="M281 158 q-91 87 -143.5 209 q-52.5 122 -52.5 267.5 q0 145.5 49 275.5 q49 130 140 229 q91 99 220 157.5 q129 58.5 289 58.5 q276 0 465 -174 q202 -186 202 -502 q0 -306 -208 -509 q-128 -125 -305 -172 q-87 -23 -203.5 -23 q-116.5 0 -239 48 q-122.5 48 -213.5 135 ZM363 648 q0 -93 31 -171 q31 -78 86 -134 q117 -118 301 -118 q175 0 281 113 q108 117 108 319 q0 190 -103 317 q-111 136 -304 136 q-187 0 -297 -138 q-103 -129 -103 -324 ZM692 1788 q150 0 320 17 l-1 -7 l-262 -323 l-226 0 l169 313 Z" /><glyph glyph-name="Ocircumflex" unicode="ô" d="M281 158 q-91 87 -143.5 209 q-52.5 122 -52.5 267.5 q0 145.5 49 275.5 q49 130 140 229 q91 99 220 157.5 q129 58.5 289 58.5 q276 0 465 -174 q202 -186 202 -502 q0 -306 -208 -509 q-128 -125 -305 -172 q-87 -23 -203.5 -23 q-116.5 0 -239 48 q-122.5 48 -213.5 135 ZM363 648 q0 -93 31 -171 q31 -78 86 -134 q117 -118 301 -118 q175 0 281 113 q108 117 108 319 q0 190 -103 317 q-111 136 -304 136 q-187 0 -297 -138 q-103 -129 -103 -324 ZM666 1473 q-215 0 -263 -3 l-3 3 l242 331 q24 -3 66 -3 l51 0 l121 3 l255 -331 l-4 -3 l-255 3 l-113 177 l-97 -177 Z" /><glyph glyph-name="Otilde" unicode="õ" d="M281 158 q-91 87 -143.5 209 q-52.5 122 -52.5 267.5 q0 145.5 49 275.5 q49 130 140 229 q91 99 220 157.5 q129 58.5 289 58.5 q276 0 465 -174 q202 -186 202 -502 q0 -306 -208 -509 q-128 -125 -305 -172 q-87 -23 -203.5 -23 q-116.5 0 -239 48 q-122.5 48 -213.5 135 ZM363 648 q0 -93 31 -171 q31 -78 86 -134 q117 -118 301 -118 q175 0 281 113 q108 117 108 319 q0 190 -103 317 q-111 136 -304 136 q-187 0 -297 -138 q-103 -129 -103 -324 ZM604 1565 q-94 0 -167 -75 l-4 1 l-4 199 q68 80 185 80 q92 0 171 -54.5 q79 -54.5 163 -54.5 q119 0 156 84 l2 -2 l-10 -216 q-17 -30 -61 -49.5 q-44 -19.5 -92 -19.5 q-48 0 -77.5 8 q-29.5 8 -54.5 20 q-25 12 -46.5 25.5 q-21.5 13.5 -45.5 25.5 q-56 28 -115 28 Z" /><glyph glyph-name="Odieresis" unicode="ö" d="M281 158 q-91 87 -143.5 209 q-52.5 122 -52.5 267.5 q0 145.5 49 275.5 q49 130 140 229 q91 99 220 157.5 q129 58.5 289 58.5 q276 0 465 -174 q202 -186 202 -502 q0 -306 -208 -509 q-128 -125 -305 -172 q-87 -23 -203.5 -23 q-116.5 0 -239 48 q-122.5 48 -213.5 135 ZM363 648 q0 -93 31 -171 q31 -78 86 -134 q117 -118 301 -118 q175 0 281 113 q108 117 108 319 q0 190 -103 317 q-111 136 -304 136 q-187 0 -297 -138 q-103 -129 -103 -324 ZM1115 1715 q-4 -50 -4 -127.5 q0 -77.5 4 -112.5 l-265 0 q8 62 8 122.5 q0 60.5 -6 117.5 l263 0 ZM685 1715 q-4 -50 -4 -127.5 q0 -77.5 4 -112.5 l-265 0 q8 62 8 122.5 q0 60.5 -6 117.5 l263 0 Z" /><glyph glyph-name="multiply" unicode="×" d="M271 384 q23 13 97 89 l142 142 l-135 136 q-74 76 -97 89 l172 177 q38 -45 85 -91 l143 -143 l142 142 q76 74 89 97 l177 -172 q-45 -38 -91 -85 l-150 -150 l157 -156 q46 -47 91 -85 l-177 -172 q-13 23 -89 97 l-149 149 l-150 -150 q-47 -46 -85 -91 l-172 177 Z" /><glyph glyph-name="Oslash" unicode="ø" d="M730 -25 q-120 0 -248 53 l-116 -198 l-196 0 l165 282 q-115 88 -182.5 221 q-67.5 133 -67.5 290 q0 157 49 287 q49 130 140 229 q91 99 220 157.5 q129 58.5 276 58.5 q147 0 266 -45 l128 220 l196 0 l-175 -299 q265 -189 265 -552 q0 -306 -208 -509 q-199 -195 -512 -195 ZM905 1087 q-66 23 -153 23 q-87 0 -161.5 -37.5 q-74.5 -37.5 -124.5 -100.5 q-103 -129 -103 -324 q0 -181 111 -298 l431 737 ZM615 255 q81 -30 166.5 -30 q85.5 0 157 29 q71.5 29 123.5 84 q108 117 108 319 q0 209 -123 338 l-432 -740 Z" /><glyph glyph-name="Ugrave" unicode="ù" d="M930 1335 q62 -5 103 -5 l83 0 q42 0 88 8 l0 -827 q0 -246 -149 -395 q-141 -141 -354 -141 q-233 0 -377 121 q-161 136 -161 392 l0 847 q83 -5 156.5 -5 q73.5 0 121.5 8 l0 -863 q0 -126 77 -196 q72 -64 180 -64 q160 0 213 164 q19 59 19 146 l0 810 ZM439 1805 q170 -17 320 -17 l169 -313 l-226 0 l-262 323 l-1 7 Z" /><glyph glyph-name="Uacute" unicode="ú" d="M930 1335 q62 -5 103 -5 l83 0 q42 0 88 8 l0 -827 q0 -246 -149 -395 q-141 -141 -354 -141 q-233 0 -377 121 q-161 136 -161 392 l0 847 q83 -5 156.5 -5 q73.5 0 121.5 8 l0 -863 q0 -126 77 -196 q72 -64 180 -64 q160 0 213 164 q19 59 19 146 l0 810 ZM608 1788 q150 0 320 17 l-1 -7 l-262 -323 l-226 0 l169 313 Z" /><glyph glyph-name="Ucircumflex" unicode="û" d="M930 1335 q62 -5 103 -5 l83 0 q42 0 88 8 l0 -827 q0 -246 -149 -395 q-141 -141 -354 -141 q-233 0 -377 121 q-161 136 -161 392 l0 847 q83 -5 156.5 -5 q73.5 0 121.5 8 l0 -863 q0 -126 77 -196 q72 -64 180 -64 q160 0 213 164 q19 59 19 146 l0 810 ZM582 1473 q-215 0 -263 -3 l-3 3 l242 331 q24 -3 66 -3 l51 0 l121 3 l255 -331 l-4 -3 l-255 3 l-113 177 l-97 -177 Z" /><glyph glyph-name="Udieresis" unicode="ü" d="M930 1335 q62 -5 103 -5 l83 0 q42 0 88 8 l0 -827 q0 -246 -149 -395 q-141 -141 -354 -141 q-233 0 -377 121 q-161 136 -161 392 l0 847 q83 -5 156.5 -5 q73.5 0 121.5 8 l0 -863 q0 -126 77 -196 q72 -64 180 -64 q160 0 213 164 q19 59 19 146 l0 810 ZM1031 1715 q-4 -50 -4 -127.5 q0 -77.5 4 -112.5 l-265 0 q8 62 8 122.5 q0 60.5 -6 117.5 l263 0 ZM601 1715 q-4 -50 -4 -127.5 q0 -77.5 4 -112.5 l-265 0 q8 62 8 122.5 q0 60.5 -6 117.5 l263 0 Z" /><glyph glyph-name="Yacute" unicode="ý" d="M451 0 q13 39 13 182 l0 278 q-173 381 -221 475.5 q-48 94.5 -81 149.5 q-104 176 -125.5 202 q-21.5 26 -43.5 43 l345 0 q11 -20 30 -59 l242 -511 q17 42 40 94 q218 469 221 476 l330 0 q-51 -41 -125 -172 q-23 -39 -46 -89 l-226 -471 q-38 -85 -65 -153 l0 -287 q0 -100 12 -158 l-300 0 ZM521 1788 q150 0 320 17 l-1 -7 l-262 -323 l-226 0 l169 313 Z" /><glyph glyph-name="Thorn" unicode="þ" d="M920 314 q-74 -60 -181.5 -91 q-107.5 -31 -197 -31 q-89.5 0 -114.5 3 l0 -195 l-255 0 l0 1330 l255 0 l0 -196 q309 0 481 -132 q164 -126 164 -339 q0 -227 -152 -349 ZM726 828 q-40 35 -97.5 55.5 q-57.5 20.5 -112.5 20.5 q-55 0 -89 -4 l0 -476 q39 -3 71 -3 q146 0 227 57 q81 57 81 164 q0 115 -80 186 Z" /><glyph glyph-name="germandbls" unicode="ß" d="M774 213 q161 0 161 146 q0 92 -190 187 q-115 68 -150 111 q-58 70 -58 134 q0 64 21 110 q21 46 57 85.5 q36 39.5 50.5 61.5 q14.5 22 22.5 40 q15 32 15 56 q0 24 -8.5 39 q-8.5 15 -24.5 27 q-36 26 -87.5 26 q-51.5 0 -89 -17.5 q-37.5 -17.5 -64.5 -62.5 q-57 -93 -57 -307 l0 -894 q0 -152 -22 -217 q-35 -104 -91 -145 l-201 131 l0 5 q46 31 58 146 q11 100 11 396 l0 539 q0 635 475 635 q148 0 248 -81 q100 -81 100 -202 q0 -82 -56 -156 q-22 -29 -48 -55.5 q-26 -26.5 -37 -39.5 q-11 -13 -17 -23 q-11 -20 -11 -35 q0 -15 8.5 -28.5 q8.5 -13.5 30.5 -32.5 q49 -42 131 -92.5 q82 -50.5 123.5 -91.5 q41.5 -41 65.5 -86 q42 -79 42 -170.5 q0 -91.5 -24 -151.5 q-24 -60 -72 -108 q-107 -107 -291 -107 q-165 0 -248 55 l-10 250 l4 5 q50 -49 107 -65.5 q57 -16.5 126 -16.5 Z" /><glyph glyph-name="agrave" unicode="à" d="M837 62 q-142 -77 -257 -77 q-115 0 -197 21.5 q-82 21.5 -139 63.5 q-116 85 -116 246 q0 144 142 240 q154 104 418 104 l40 -1 q12 -1 27 -1.5 q15 -0.5 27 -2.5 q-8 160 -138 187 q-43 9 -91.5 9 q-48.5 0 -95 -8.5 q-46.5 -8.5 -90.5 -22.5 q-97 -31 -139 -71 l-3 2 l-30 221 q177 93 387 93 q326 0 417 -235 q29 -75 29 -169 l0 -362 q0 -116 82 -158 l-181 -166 q-57 30 -92 87 ZM783 475 q-27 5 -56 5 l-40 0 q-221 0 -281 -98 q-18 -29 -18 -61 q0 -32 11.5 -56.5 q11.5 -24.5 38.5 -40.5 q52 -30 154.5 -30 q102.5 0 191.5 49 q-1 11 -1 23 l0 209 ZM280 1520 q170 -17 320 -17 l169 -313 l-226 0 l-262 323 l-1 7 Z" /><glyph glyph-name="aacute" unicode="á" d="M837 62 q-142 -77 -257 -77 q-115 0 -197 21.5 q-82 21.5 -139 63.5 q-116 85 -116 246 q0 144 142 240 q154 104 418 104 l40 -1 q12 -1 27 -1.5 q15 -0.5 27 -2.5 q-8 160 -138 187 q-43 9 -91.5 9 q-48.5 0 -95 -8.5 q-46.5 -8.5 -90.5 -22.5 q-97 -31 -139 -71 l-3 2 l-30 221 q177 93 387 93 q326 0 417 -235 q29 -75 29 -169 l0 -362 q0 -116 82 -158 l-181 -166 q-57 30 -92 87 ZM783 475 q-27 5 -56 5 l-40 0 q-221 0 -281 -98 q-18 -29 -18 -61 q0 -32 11.5 -56.5 q11.5 -24.5 38.5 -40.5 q52 -30 154.5 -30 q102.5 0 191.5 49 q-1 11 -1 23 l0 209 ZM569 1503 q150 0 320 17 l-1 -7 l-262 -323 l-226 0 l169 313 Z" /><glyph glyph-name="acircumflex" unicode="â" d="M837 62 q-142 -77 -257 -77 q-115 0 -197 21.5 q-82 21.5 -139 63.5 q-116 85 -116 246 q0 144 142 240 q154 104 418 104 l40 -1 q12 -1 27 -1.5 q15 -0.5 27 -2.5 q-8 160 -138 187 q-43 9 -91.5 9 q-48.5 0 -95 -8.5 q-46.5 -8.5 -90.5 -22.5 q-97 -31 -139 -71 l-3 2 l-30 221 q177 93 387 93 q326 0 417 -235 q29 -75 29 -169 l0 -362 q0 -116 82 -158 l-181 -166 q-57 30 -92 87 ZM783 475 q-27 5 -56 5 l-40 0 q-221 0 -281 -98 q-18 -29 -18 -61 q0 -32 11.5 -56.5 q11.5 -24.5 38.5 -40.5 q52 -30 154.5 -30 q102.5 0 191.5 49 q-1 11 -1 23 l0 209 ZM483 1188 q-215 0 -263 -3 l-3 3 l242 331 q24 -3 66 -3 l51 0 l121 3 l255 -331 l-4 -3 l-255 3 l-113 177 l-97 -177 Z" /><glyph glyph-name="atilde" unicode="ã" d="M837 62 q-142 -77 -257 -77 q-115 0 -197 21.5 q-82 21.5 -139 63.5 q-116 85 -116 246 q0 144 142 240 q154 104 418 104 l40 -1 q12 -1 27 -1.5 q15 -0.5 27 -2.5 q-8 160 -138 187 q-43 9 -91.5 9 q-48.5 0 -95 -8.5 q-46.5 -8.5 -90.5 -22.5 q-97 -31 -139 -71 l-3 2 l-30 221 q177 93 387 93 q326 0 417 -235 q29 -75 29 -169 l0 -362 q0 -116 82 -158 l-181 -166 q-57 30 -92 87 ZM783 475 q-27 5 -56 5 l-40 0 q-221 0 -281 -98 q-18 -29 -18 -61 q0 -32 11.5 -56.5 q11.5 -24.5 38.5 -40.5 q52 -30 154.5 -30 q102.5 0 191.5 49 q-1 11 -1 23 l0 209 ZM421 1280 q-94 0 -167 -75 l-4 1 l-4 199 q68 80 185 80 q92 0 171 -54.5 q79 -54.5 163 -54.5 q119 0 156 84 l2 -2 l-10 -216 q-17 -30 -61 -49.5 q-44 -19.5 -92 -19.5 q-48 0 -77.5 8 q-29.5 8 -54.5 20 q-25 12 -46.5 25.5 q-21.5 13.5 -45.5 25.5 q-56 28 -115 28 Z" /><glyph glyph-name="adieresis" unicode="ä" d="M837 62 q-142 -77 -257 -77 q-115 0 -197 21.5 q-82 21.5 -139 63.5 q-116 85 -116 246 q0 144 142 240 q154 104 418 104 l40 -1 q12 -1 27 -1.5 q15 -0.5 27 -2.5 q-8 160 -138 187 q-43 9 -91.5 9 q-48.5 0 -95 -8.5 q-46.5 -8.5 -90.5 -22.5 q-97 -31 -139 -71 l-3 2 l-30 221 q177 93 387 93 q326 0 417 -235 q29 -75 29 -169 l0 -362 q0 -116 82 -158 l-181 -166 q-57 30 -92 87 ZM783 475 q-27 5 -56 5 l-40 0 q-221 0 -281 -98 q-18 -29 -18 -61 q0 -32 11.5 -56.5 q11.5 -24.5 38.5 -40.5 q52 -30 154.5 -30 q102.5 0 191.5 49 q-1 11 -1 23 l0 209 ZM932 1430 q-4 -50 -4 -127.5 q0 -77.5 4 -112.5 l-265 0 q8 62 8 122.5 q0 60.5 -6 117.5 l263 0 ZM502 1430 q-4 -50 -4 -127.5 q0 -77.5 4 -112.5 l-265 0 q8 62 8 122.5 q0 60.5 -6 117.5 l263 0 Z" /><glyph glyph-name="aring" unicode="å" d="M837 62 q-142 -77 -257 -77 q-115 0 -197 21.5 q-82 21.5 -139 63.5 q-116 85 -116 246 q0 144 142 240 q154 104 418 104 l40 -1 q12 -1 27 -1.5 q15 -0.5 27 -2.5 q-8 160 -138 187 q-43 9 -91.5 9 q-48.5 0 -95 -8.5 q-46.5 -8.5 -90.5 -22.5 q-97 -31 -139 -71 l-3 2 l-30 221 q177 93 387 93 q326 0 417 -235 q29 -75 29 -169 l0 -362 q0 -116 82 -158 l-181 -166 q-57 30 -92 87 ZM783 475 q-27 5 -56 5 l-40 0 q-221 0 -281 -98 q-18 -29 -18 -61 q0 -32 11.5 -56.5 q11.5 -24.5 38.5 -40.5 q52 -30 154.5 -30 q102.5 0 191.5 49 q-1 11 -1 23 l0 209 ZM578 1180 q-61 0 -111 16 q-50 16 -86 46 q-76 63 -76 172 q0 107 75 174 q76 68 212 68 q120 0 196 -69 q75 -67 75 -168 q0 -110 -80 -175 q-78 -64 -205 -64 ZM494 1350.5 q15 -13.5 38 -21.5 q23 -8 49.5 -8 q26.5 0 47.5 7.5 q21 7.5 37 21.5 q35 29 35 58.5 q0 29.5 -7.5 47 q-7.5 17.5 -22.5 32.5 q-34 32 -77.5 32 q-43.5 0 -65.5 -9 q-22 -9 -36 -23 q-28 -28 -28 -58 q0 -30 7.5 -48 q7.5 -18 22.5 -31.5 Z" /><glyph glyph-name="ae" unicode="æ" d="M892 104 q-154 -119 -369 -119 q-183 0 -292 99 q-106 97 -106 248 q0 165 149 276 q152 113 380 113 q30 0 47 -3 q-37 141 -211 141 q-117 0 -216 -83 q-31 -26 -54 -57 l-3 2 l-30 231 q143 113 354.5 113 q211.5 0 329.5 -149 q153 149 407 149 q202 0 340 -135 q139 -135 139 -348 q0 -58 -12 -106 q-111 -30 -417 -30 q-94 0 -166.5 0 q-72.5 0 -121 0.5 q-48.5 0.5 -81.5 0.5 q26 -108 123 -167.5 q97 -59.5 273 -59.5 q176 0 306 106 q-5 -111 -15 -263 q-80 -52 -244 -72 q-50 -6 -98 -6 q-257 0 -412 119 ZM978 666 q27 -1 64 -2 l73 0 q37 -1 71 -1 l54 0 q56 0 112 1 l92 3 q36 1 64 3 q-34 114 -170 153 q-43 12 -89.5 12 q-46.5 0 -87 -12 q-40.5 -12 -75.5 -33 q-71 -44 -108 -124 ZM765 271 q-58 98 -58 241 q-20 3 -68 3 q-48 0 -101.5 -12 q-53.5 -12 -91.5 -33 q-76 -44 -76 -115 q0 -71 48.5 -113.5 q48.5 -42.5 122.5 -42.5 q138 0 224 72 Z" /><glyph glyph-name="ccedilla" unicode="ç" d="M632 -15 q8 -54 8 -137 q0 -83 -22.5 -138 q-22.5 -55 -51.5 -72 q-59 -38 -215 -70 l-6 6 q70 99 70 426 l33 6 q-165 44 -264 176 q-99 133 -99 324 q0 241 147 396 q156 163 417 163 q185 0 310 -81 l-40 -256 l-7 1 q-48 58 -101 76 q-86 30 -172 30 q-86 0 -135 -22 q-49 -22 -84 -61 q-70 -80 -70 -212 q0 -234 162 -306 q56 -24 118.5 -24 q62.5 0 109 11 q46.5 11 84.5 30 q81 40 110 93 l7 -3 l23 -244 q-108 -108 -332 -112 Z" /><glyph glyph-name="egrave" unicode="è" d="M97 514 q0 117 40 217 q40 100 113 175 q156 159 408 159 q213 0 342 -141 q127 -136 127 -342 q0 -79 -12 -108 q-100 -28 -407 -28 l-352 0 q26 -107 121 -166.5 q95 -59.5 247 -59.5 q159 0 273 57 q30 15 45 28 q-2 -42 -5 -86 l-11 -156 q-76 -52 -246 -72 q-50 -6 -96 -6 q-254 0 -420 148 q-167 149 -167 381 ZM861 640 q-41 215 -234 215 q-152 0 -231 -131 q-24 -40 -37 -88 q24 -1 59 -2 l74 0 q37 -1 71 -1 l57 0 q51 0 100 1 l82 3 q33 1 59 3 ZM308 1520 q170 -17 320 -17 l169 -313 l-226 0 l-262 323 l-1 7 Z" /><glyph glyph-name="eacute" unicode="é" d="M97 514 q0 117 40 217 q40 100 113 175 q156 159 408 159 q213 0 342 -141 q127 -136 127 -342 q0 -79 -12 -108 q-100 -28 -407 -28 l-352 0 q26 -107 121 -166.5 q95 -59.5 247 -59.5 q159 0 273 57 q30 15 45 28 q-2 -42 -5 -86 l-11 -156 q-76 -52 -246 -72 q-50 -6 -96 -6 q-254 0 -420 148 q-167 149 -167 381 ZM861 640 q-41 215 -234 215 q-152 0 -231 -131 q-24 -40 -37 -88 q24 -1 59 -2 l74 0 q37 -1 71 -1 l57 0 q51 0 100 1 l82 3 q33 1 59 3 ZM597 1503 q150 0 320 17 l-1 -7 l-262 -323 l-226 0 l169 313 Z" /><glyph glyph-name="ecircumflex" unicode="ê" d="M97 514 q0 117 40 217 q40 100 113 175 q156 159 408 159 q213 0 342 -141 q127 -136 127 -342 q0 -79 -12 -108 q-100 -28 -407 -28 l-352 0 q26 -107 121 -166.5 q95 -59.5 247 -59.5 q159 0 273 57 q30 15 45 28 q-2 -42 -5 -86 l-11 -156 q-76 -52 -246 -72 q-50 -6 -96 -6 q-254 0 -420 148 q-167 149 -167 381 ZM861 640 q-41 215 -234 215 q-152 0 -231 -131 q-24 -40 -37 -88 q24 -1 59 -2 l74 0 q37 -1 71 -1 l57 0 q51 0 100 1 l82 3 q33 1 59 3 ZM511 1188 q-215 0 -263 -3 l-3 3 l242 331 q24 -3 66 -3 l51 0 l121 3 l255 -331 l-4 -3 l-255 3 l-113 177 l-97 -177 Z" /><glyph glyph-name="edieresis" unicode="ë" d="M97 514 q0 117 40 217 q40 100 113 175 q156 159 408 159 q213 0 342 -141 q127 -136 127 -342 q0 -79 -12 -108 q-100 -28 -407 -28 l-352 0 q26 -107 121 -166.5 q95 -59.5 247 -59.5 q159 0 273 57 q30 15 45 28 q-2 -42 -5 -86 l-11 -156 q-76 -52 -246 -72 q-50 -6 -96 -6 q-254 0 -420 148 q-167 149 -167 381 ZM861 640 q-41 215 -234 215 q-152 0 -231 -131 q-24 -40 -37 -88 q24 -1 59 -2 l74 0 q37 -1 71 -1 l57 0 q51 0 100 1 l82 3 q33 1 59 3 ZM960 1430 q-4 -50 -4 -127.5 q0 -77.5 4 -112.5 l-265 0 q8 62 8 122.5 q0 60.5 -6 117.5 l263 0 ZM530 1430 q-4 -50 -4 -127.5 q0 -77.5 4 -112.5 l-265 0 q8 62 8 122.5 q0 60.5 -6 117.5 l263 0 Z" /><glyph glyph-name="igrave" unicode="ì" d="M378 112 q0 -86 4 -112 l-254 0 l0 1045 l250 0 l0 -933 ZM-61 1520 q170 -17 320 -17 l169 -313 l-226 0 l-262 323 l-1 7 Z" /><glyph glyph-name="iacute" unicode="í" d="M378 112 q0 -86 4 -112 l-254 0 l0 1045 l250 0 l0 -933 ZM228 1503 q150 0 320 17 l-1 -7 l-262 -323 l-226 0 l169 313 Z" /><glyph glyph-name="icircumflex" unicode="î" d="M378 112 q0 -86 4 -112 l-254 0 l0 1045 l250 0 l0 -933 ZM142 1188 q-215 0 -263 -3 l-3 3 l242 331 q24 -3 66 -3 l51 0 l121 3 l255 -331 l-4 -3 l-255 3 l-113 177 l-97 -177 Z" /><glyph glyph-name="idieresis" unicode="ï" d="M378 112 q0 -86 4 -112 l-254 0 l0 1045 l250 0 l0 -933 ZM591 1430 q-4 -50 -4 -127.5 q0 -77.5 4 -112.5 l-265 0 q8 62 8 122.5 q0 60.5 -6 117.5 l263 0 ZM161 1430 q-4 -50 -4 -127.5 q0 -77.5 4 -112.5 l-265 0 q8 62 8 122.5 q0 60.5 -6 117.5 l263 0 Z" /><glyph glyph-name="eth" unicode="ð" d="M799 1162 q275 -323 275 -658 q0 -225 -150 -376 q-144 -143 -349 -143 q-207 0 -347 136 q-137 134 -137 322 q0 223 149 345 q130 107 329 107 q72 0 156 -30 q-60 105 -152 212 l-307 -116 l-57 182 l222 80 q-55 51 -117 103 l-133 104 l320 0 q84 -59 157 -124 l239 87 l56 -173 l-154 -58 ZM830 496 l-1 16 q-42 85 -103 119 q-61 34 -127 34 q-66 0 -107 -12.5 q-41 -12.5 -72 -36.5 q-71 -55 -71 -151 q0 -99 70 -171 q72 -74 179 -74 q93 0 157 64 q75 77 75 212 Z" /><glyph glyph-name="ntilde" unicode="ñ" d="M410 128 q0 -88 8 -128 l-251 0 l0 1045 l243 0 l0 -89 q132 109 282 109 q164 0 262 -111.5 q98 -111.5 98 -293.5 l0 -398 q0 -169 5 -203 q5 -34 13.5 -44 q8.5 -10 14.5 -18 l-2 -4 q-81 7 -118 7 l-70 0 q-32 0 -86 -3 l0 545 q0 293 -178 293 q-132 0 -221 -136 l0 -571 ZM483 1280 q-94 0 -167 -75 l-4 1 l-4 199 q68 80 185 80 q92 0 171 -54.5 q79 -54.5 163 -54.5 q119 0 156 84 l2 -2 l-10 -216 q-17 -30 -61 -49.5 q-44 -19.5 -92 -19.5 q-48 0 -77.5 8 q-29.5 8 -54.5 20 q-25 12 -46.5 25.5 q-21.5 13.5 -45.5 25.5 q-56 28 -115 28 Z" /><glyph glyph-name="ograve" unicode="ò" d="M71 517 q0 110 37.5 210.5 q37.5 100.5 107.5 175.5 q153 162 397 162 q243 0 386 -153 q137 -146 137 -379 q0 -233 -141 -386 q-149 -162 -395 -162 q-254 0 -398 159 q-131 145 -131 373 ZM314 523 q0 -63 21 -122 q21 -59 60 -101 q83 -91 218 -91 q125 0 197 89 q70 86 70 224 q0 140 -72 226 q-77 92 -211 92 q-136 0 -213 -98 q-70 -90 -70 -219 ZM294 1520 q170 -17 320 -17 l169 -313 l-226 0 l-262 323 l-1 7 Z" /><glyph glyph-name="oacute" unicode="ó" d="M71 517 q0 110 37.5 210.5 q37.5 100.5 107.5 175.5 q153 162 397 162 q243 0 386 -153 q137 -146 137 -379 q0 -233 -141 -386 q-149 -162 -395 -162 q-254 0 -398 159 q-131 145 -131 373 ZM314 523 q0 -63 21 -122 q21 -59 60 -101 q83 -91 218 -91 q125 0 197 89 q70 86 70 224 q0 140 -72 226 q-77 92 -211 92 q-136 0 -213 -98 q-70 -90 -70 -219 ZM583 1503 q150 0 320 17 l-1 -7 l-262 -323 l-226 0 l169 313 Z" /><glyph glyph-name="ocircumflex" unicode="ô" d="M71 517 q0 110 37.5 210.5 q37.5 100.5 107.5 175.5 q153 162 397 162 q243 0 386 -153 q137 -146 137 -379 q0 -233 -141 -386 q-149 -162 -395 -162 q-254 0 -398 159 q-131 145 -131 373 ZM314 523 q0 -63 21 -122 q21 -59 60 -101 q83 -91 218 -91 q125 0 197 89 q70 86 70 224 q0 140 -72 226 q-77 92 -211 92 q-136 0 -213 -98 q-70 -90 -70 -219 ZM497 1188 q-215 0 -263 -3 l-3 3 l242 331 q24 -3 66 -3 l51 0 l121 3 l255 -331 l-4 -3 l-255 3 l-113 177 l-97 -177 Z" /><glyph glyph-name="otilde" unicode="õ" d="M71 517 q0 110 37.5 210.5 q37.5 100.5 107.5 175.5 q153 162 397 162 q243 0 386 -153 q137 -146 137 -379 q0 -233 -141 -386 q-149 -162 -395 -162 q-254 0 -398 159 q-131 145 -131 373 ZM314 523 q0 -63 21 -122 q21 -59 60 -101 q83 -91 218 -91 q125 0 197 89 q70 86 70 224 q0 140 -72 226 q-77 92 -211 92 q-136 0 -213 -98 q-70 -90 -70 -219 ZM435 1280 q-94 0 -167 -75 l-4 1 l-4 199 q68 80 185 80 q92 0 171 -54.5 q79 -54.5 163 -54.5 q119 0 156 84 l2 -2 l-10 -216 q-17 -30 -61 -49.5 q-44 -19.5 -92 -19.5 q-48 0 -77.5 8 q-29.5 8 -54.5 20 q-25 12 -46.5 25.5 q-21.5 13.5 -45.5 25.5 q-56 28 -115 28 Z" /><glyph glyph-name="odieresis" unicode="ö" d="M71 517 q0 110 37.5 210.5 q37.5 100.5 107.5 175.5 q153 162 397 162 q243 0 386 -153 q137 -146 137 -379 q0 -233 -141 -386 q-149 -162 -395 -162 q-254 0 -398 159 q-131 145 -131 373 ZM314 523 q0 -63 21 -122 q21 -59 60 -101 q83 -91 218 -91 q125 0 197 89 q70 86 70 224 q0 140 -72 226 q-77 92 -211 92 q-136 0 -213 -98 q-70 -90 -70 -219 ZM946 1430 q-4 -50 -4 -127.5 q0 -77.5 4 -112.5 l-265 0 q8 62 8 122.5 q0 60.5 -6 117.5 l263 0 ZM516 1430 q-4 -50 -4 -127.5 q0 -77.5 4 -112.5 l-265 0 q8 62 8 122.5 q0 60.5 -6 117.5 l263 0 Z" /><glyph glyph-name="divide" unicode="÷" d="M826 1044 q-1 -18 -1 -70.5 q0 -52.5 5 -88.5 l-292 0 q9 61 9 108 q0 47 -0.5 64.5 q-0.5 17.5 -1.5 34.5 q-1 17 -3 32 l-2 25 l290 0 q-3 -38 -3 -62 l-1 -43 ZM351 500 q-76 0 -124 -5 l3 247 q22 -6 132 -6 l639 0 q109 0 132 6 l3 -247 q-48 5 -124 5 l-661 0 ZM826 256 q-1 -18 -1 -70.5 q0 -52.5 5 -88.5 l-292 0 q9 61 9 108 q0 47 -0.5 64.5 q-0.5 17.5 -1.5 34.5 q-1 17 -3 32 l-2 25 l290 0 q-3 -38 -3 -62 l-1 -43 Z" /><glyph glyph-name="oslash" unicode="ø" d="M995 147 q-69 -75 -168.5 -118.5 q-99.5 -43.5 -215.5 -43.5 q-116 0 -210 30 l-102 -185 l-176 0 l141 257 q-193 149 -193 425 q0 236 145 391 q153 162 397 162 q92 0 175 -25 l83 150 l176 0 l-119 -217 q101 -71 154.5 -185 q53.5 -114 53.5 -240.5 q0 -126.5 -36 -226 q-36 -99.5 -105 -174.5 ZM673 831 q-35 9 -91 9 q-56 0 -109.5 -27 q-53.5 -27 -88.5 -71 q-70 -90 -70 -213 q0 -132 73 -220 l286 522 ZM515 223 q47 -14 104 -14 q57 0 107 23.5 q50 23.5 84 65.5 q70 86 70 224 q0 142 -75 229 l-290 -528 Z" /><glyph glyph-name="ugrave" unicode="ù" d="M773 91 q-128 -106 -279 -106 q-162 0 -254 109 q-88 106 -88 291 l0 397 q0 200 -8.5 229.5 q-8.5 29.5 -12.5 37.5 q46 -4 96 -4 l83 0 q33 0 87 3 l0 -579 q0 -206 112 -239 q34 -10 74 -10 q118 0 190 86 l0 739 l248 0 l0 -917 q0 -88 8 -128 l-256 0 l0 91 ZM266 1520 q170 -17 320 -17 l169 -313 l-226 0 l-262 323 l-1 7 Z" /><glyph glyph-name="uacute" unicode="ú" d="M773 91 q-128 -106 -279 -106 q-162 0 -254 109 q-88 106 -88 291 l0 397 q0 200 -8.5 229.5 q-8.5 29.5 -12.5 37.5 q46 -4 96 -4 l83 0 q33 0 87 3 l0 -579 q0 -206 112 -239 q34 -10 74 -10 q118 0 190 86 l0 739 l248 0 l0 -917 q0 -88 8 -128 l-256 0 l0 91 ZM555 1503 q150 0 320 17 l-1 -7 l-262 -323 l-226 0 l169 313 Z" /><glyph glyph-name="ucircumflex" unicode="û" d="M773 91 q-128 -106 -279 -106 q-162 0 -254 109 q-88 106 -88 291 l0 397 q0 200 -8.5 229.5 q-8.5 29.5 -12.5 37.5 q46 -4 96 -4 l83 0 q33 0 87 3 l0 -579 q0 -206 112 -239 q34 -10 74 -10 q118 0 190 86 l0 739 l248 0 l0 -917 q0 -88 8 -128 l-256 0 l0 91 ZM469 1188 q-215 0 -263 -3 l-3 3 l242 331 q24 -3 66 -3 l51 0 l121 3 l255 -331 l-4 -3 l-255 3 l-113 177 l-97 -177 Z" /><glyph glyph-name="udieresis" unicode="ü" d="M773 91 q-128 -106 -279 -106 q-162 0 -254 109 q-88 106 -88 291 l0 397 q0 200 -8.5 229.5 q-8.5 29.5 -12.5 37.5 q46 -4 96 -4 l83 0 q33 0 87 3 l0 -579 q0 -206 112 -239 q34 -10 74 -10 q118 0 190 86 l0 739 l248 0 l0 -917 q0 -88 8 -128 l-256 0 l0 91 ZM918 1430 q-4 -50 -4 -127.5 q0 -77.5 4 -112.5 l-265 0 q8 62 8 122.5 q0 60.5 -6 117.5 l263 0 ZM488 1430 q-4 -50 -4 -127.5 q0 -77.5 4 -112.5 l-265 0 q8 62 8 122.5 q0 60.5 -6 117.5 l263 0 Z" /><glyph glyph-name="yacute" unicode="ý" d="M51 -348 l66 53 q149 121 247 357 l46 111 l-383 872 l280 0 l240 -604 l223 604 l288 0 q-52 -72 -127 -268 l-150 -371 q-301 -708 -472 -844 l-258 90 ZM554 1503 q150 0 320 17 l-1 -7 l-262 -323 l-226 0 l169 313 Z" /><glyph glyph-name="thorn" unicode="þ" d="M726 -2 q-58 -16 -147 -16 q-89 0 -172 37 l0 -292 q0 -86 4 -112 l-249 0 l0 1815 l249 0 q-4 -26 -4 -112 l0 -313 q112 60 222.5 60 q110.5 0 197 -32 q86.5 -32 153.5 -97 q145 -144 145 -400 q0 -253 -175 -412 q-101 -92 -224 -126 ZM407 293 q81 -73 187 -73 q126 0 204 88 q82 91 82 244 q0 197 -158 262 q-51 21 -105 21 q-54 0 -112 -23.5 q-58 -23.5 -98 -65.5 l0 -453 Z" /><glyph glyph-name="ydieresis" unicode="ÿ" d="M51 -348 l66 53 q149 121 247 357 l46 111 l-383 872 l280 0 l240 -604 l223 604 l288 0 q-52 -72 -127 -268 l-150 -371 q-301 -708 -472 -844 l-258 90 ZM917 1430 q-4 -50 -4 -127.5 q0 -77.5 4 -112.5 l-265 0 q8 62 8 122.5 q0 60.5 -6 117.5 l263 0 ZM487 1430 q-4 -50 -4 -127.5 q0 -77.5 4 -112.5 l-265 0 q8 62 8 122.5 q0 60.5 -6 117.5 l263 0 Z" /><glyph glyph-name="Amacron" unicode="&#x100;" d="M269 -8 q-86 8 -201 8 l-79 0 l435 1219 q29 82 29 95.5 q0 13.5 -1 16.5 l1 2 q65 -3 138 -3 q60 0 144 2 l1 -2 q-2 -4 -2 -11 q0 -19 30 -101 l444 -1221 q-20 1 -47 1 q0 0 -52 2 q-25 0 -45 0 l-155 0 l-94 288 l-452 0 l-94 -296 ZM737 528 l-151 465 l-147 -465 l298 0 ZM942 1700 q-4 -50 -4 -76 l0 -34 q0 -8 4 -60 l-675 0 l3 26 q5 33 5 60 q0 27 -6 84 l673 0 Z" /><glyph glyph-name="amacron" unicode="&#x101;" d="M837 62 q-142 -77 -257 -77 q-115 0 -197 21.5 q-82 21.5 -139 63.5 q-116 85 -116 246 q0 144 142 240 q154 104 418 104 l40 -1 q12 -1 27 -1.5 q15 -0.5 27 -2.5 q-8 160 -138 187 q-43 9 -91.5 9 q-48.5 0 -95 -8.5 q-46.5 -8.5 -90.5 -22.5 q-97 -31 -139 -71 l-3 2 l-30 221 q177 93 387 93 q326 0 417 -235 q29 -75 29 -169 l0 -362 q0 -116 82 -158 l-181 -166 q-57 30 -92 87 ZM783 475 q-27 5 -56 5 l-40 0 q-221 0 -281 -98 q-18 -29 -18 -61 q0 -32 11.5 -56.5 q11.5 -24.5 38.5 -40.5 q52 -30 154.5 -30 q102.5 0 191.5 49 q-1 11 -1 23 l0 209 ZM922 1523 q-4 -50 -4 -76 l0 -34 q0 -8 4 -60 l-675 0 l3 26 q5 33 5 60 q0 27 -6 84 l673 0 Z" /><glyph glyph-name="Abreve" unicode="&#x102;" d="M269 -8 q-86 8 -201 8 l-79 0 l435 1219 q29 82 29 95.5 q0 13.5 -1 16.5 l1 2 q65 -3 138 -3 q60 0 144 2 l1 -2 q-2 -4 -2 -11 q0 -19 30 -101 l444 -1221 q-20 1 -47 1 q0 0 -52 2 q-25 0 -45 0 l-155 0 l-94 288 l-452 0 l-94 -296 ZM737 528 l-151 465 l-147 -465 l298 0 ZM943 1806 q10 -10 10 -68 q0 -58 -20.5 -114.5 q-20.5 -56.5 -63.5 -101.5 q-97 -101 -271 -101 q-174 0 -271 101 q-84 88 -84 215 q0 59 10 69 l133 -3 q10 -79 37 -117 q59 -84 175 -84 q116 0 171 78 q31 44 41 123 l133 3 Z" /><glyph glyph-name="abreve" unicode="&#x103;" d="M837 62 q-142 -77 -257 -77 q-115 0 -197 21.5 q-82 21.5 -139 63.5 q-116 85 -116 246 q0 144 142 240 q154 104 418 104 l40 -1 q12 -1 27 -1.5 q15 -0.5 27 -2.5 q-8 160 -138 187 q-43 9 -91.5 9 q-48.5 0 -95 -8.5 q-46.5 -8.5 -90.5 -22.5 q-97 -31 -139 -71 l-3 2 l-30 221 q177 93 387 93 q326 0 417 -235 q29 -75 29 -169 l0 -362 q0 -116 82 -158 l-181 -166 q-57 30 -92 87 ZM783 475 q-27 5 -56 5 l-40 0 q-221 0 -281 -98 q-18 -29 -18 -61 q0 -32 11.5 -56.5 q11.5 -24.5 38.5 -40.5 q52 -30 154.5 -30 q102.5 0 191.5 49 q-1 11 -1 23 l0 209 ZM929 1610 q10 -10 10 -68 q0 -58 -20.5 -114.5 q-20.5 -56.5 -63.5 -101.5 q-97 -101 -271 -101 q-174 0 -271 101 q-84 88 -84 215 q0 59 10 69 l133 -3 q10 -79 37 -117 q59 -84 175 -84 q116 0 171 78 q31 44 41 123 l133 3 Z" /><glyph glyph-name="Aogonek" unicode="&#x104;" d="M269 -8 q-86 8 -201 8 l-79 0 l435 1219 q29 82 29 95.5 q0 13.5 -1 16.5 l1 2 q65 -3 138 -3 q60 0 144 2 l1 -2 q-2 -4 -2 -11 q0 -19 30 -101 l444 -1221 q-108 0 -186 -69 q-73 -65 -73 -146 q0 -105 191 -105 q37 0 59 16 l2 -5 l-104 -243 q-266 0 -359 162 q-34 59 -34 147 q0 103 92 207 q38 42 99 81 l-80 246 l-452 0 l-94 -296 ZM737 528 l-151 465 l-147 -465 l298 0 Z" /><glyph glyph-name="aogonek" unicode="&#x105;" d="M705 7 q-77 -22 -158.5 -22 q-81.5 0 -163.5 21.5 q-82 21.5 -139 63.5 q-116 85 -116 246 q0 144 142 240 q154 104 418 104 l40 -1 q12 -1 27 -1.5 q15 -0.5 27 -2.5 q-8 160 -138 187 q-43 9 -91.5 9 q-48.5 0 -95 -8.5 q-46.5 -8.5 -90.5 -22.5 q-97 -31 -139 -71 l-3 2 l-30 221 q177 93 387 93 q326 0 417 -235 q29 -75 29 -169 l0 -362 q0 -116 82 -158 l-181 -166 q-57 30 -92 87 q-64 -34 -132 -55 q45 45 109 85 l215 49 l81 0 l-142 -130 q-102 -94 -126.5 -143.5 q-24.5 -49.5 -24.5 -85.5 q0 -105 191 -105 q37 0 59 16 l2 -5 l-104 -243 q-266 0 -359 162 q-34 59 -34 147 q0 73 70 178 q26 38 63 75 ZM783 475 q-27 5 -56 5 l-40 0 q-221 0 -281 -98 q-18 -29 -18 -61 q0 -32 11.5 -56.5 q11.5 -24.5 38.5 -40.5 q52 -30 154.5 -30 q102.5 0 191.5 49 q-1 11 -1 23 l0 209 Z" /><glyph glyph-name="Cacute" unicode="&#x106;" d="M768 1355 q187 0 319 -65 l0 -306 l-2 -2 q-56 86 -236 114 q-53 9 -134 9 q-81 0 -159 -30.5 q-78 -30.5 -128 -86.5 q-97 -109 -97 -311 q0 -235 123 -350 q102 -96 270 -96 q190 0 308 81 q43 29 73 72 l3 -2 l0 -280 q-153 -127 -412 -127 q-305 0 -478 194 q-166 185 -166 490 q0 323 182 509 q184 187 534 187 ZM594 1788 q150 0 320 17 l-1 -7 l-262 -323 l-226 0 l169 313 Z" /><glyph glyph-name="cacute" unicode="&#x107;" d="M964 97 q-112 -112 -351 -112 q-232 0 -379 141 q-149 143 -149 380 q0 241 147 396 q156 163 417 163 q185 0 310 -81 l-40 -256 l-7 1 q-48 58 -101 76 q-86 30 -172 30 q-86 0 -135 -22 q-49 -22 -84 -61 q-70 -80 -70 -212 q0 -234 162 -306 q56 -24 118.5 -24 q62.5 0 109 11 q46.5 11 84.5 30 q81 40 110 93 l7 -3 l23 -244 ZM572 1503 q150 0 320 17 l-1 -7 l-262 -323 l-226 0 l169 313 Z" /><glyph glyph-name="Ccircumflex" unicode="&#x108;" d="M768 1355 q187 0 319 -65 l0 -306 l-2 -2 q-56 86 -236 114 q-53 9 -134 9 q-81 0 -159 -30.5 q-78 -30.5 -128 -86.5 q-97 -109 -97 -311 q0 -235 123 -350 q102 -96 270 -96 q190 0 308 81 q43 29 73 72 l3 -2 l0 -280 q-153 -127 -412 -127 q-305 0 -478 194 q-166 185 -166 490 q0 323 182 509 q184 187 534 187 ZM568 1473 q-215 0 -263 -3 l-3 3 l242 331 q24 -3 66 -3 l51 0 l121 3 l255 -331 l-4 -3 l-255 3 l-113 177 l-97 -177 Z" /><glyph glyph-name="ccircumflex" unicode="&#x109;" d="M964 97 q-112 -112 -351 -112 q-232 0 -379 141 q-149 143 -149 380 q0 241 147 396 q156 163 417 163 q185 0 310 -81 l-40 -256 l-7 1 q-48 58 -101 76 q-86 30 -172 30 q-86 0 -135 -22 q-49 -22 -84 -61 q-70 -80 -70 -212 q0 -234 162 -306 q56 -24 118.5 -24 q62.5 0 109 11 q46.5 11 84.5 30 q81 40 110 93 l7 -3 l23 -244 ZM486 1188 q-215 0 -263 -3 l-3 3 l242 331 q24 -3 66 -3 l51 0 l121 3 l255 -331 l-4 -3 l-255 3 l-113 177 l-97 -177 Z" /><glyph glyph-name="Cdotaccent" unicode="&#x10a;" d="M768 1355 q187 0 319 -65 l0 -306 l-2 -2 q-56 86 -236 114 q-53 9 -134 9 q-81 0 -159 -30.5 q-78 -30.5 -128 -86.5 q-97 -109 -97 -311 q0 -235 123 -350 q102 -96 270 -96 q190 0 308 81 q43 29 73 72 l3 -2 l0 -280 q-153 -127 -412 -127 q-305 0 -478 194 q-166 185 -166 490 q0 323 182 509 q184 187 534 187 ZM499 1618 q65 104 149 196 l191 -151 q-50 -64 -68 -88 l-35 -49 q-17 -23 -36 -52 l-201 144 Z" /><glyph glyph-name="cdotaccent" unicode="&#x10b;" d="M964 97 q-112 -112 -351 -112 q-232 0 -379 141 q-149 143 -149 380 q0 241 147 396 q156 163 417 163 q185 0 310 -81 l-40 -256 l-7 1 q-48 58 -101 76 q-86 30 -172 30 q-86 0 -135 -22 q-49 -22 -84 -61 q-70 -80 -70 -212 q0 -234 162 -306 q56 -24 118.5 -24 q62.5 0 109 11 q46.5 11 84.5 30 q81 40 110 93 l7 -3 l23 -244 ZM417 1336 q65 104 149 196 l191 -151 q-50 -64 -68 -88 l-35 -49 q-17 -23 -36 -52 l-201 144 Z" /><glyph glyph-name="Ccaron" unicode="&#x10c;" d="M768 1355 q187 0 319 -65 l0 -306 l-2 -2 q-56 86 -236 114 q-53 9 -134 9 q-81 0 -159 -30.5 q-78 -30.5 -128 -86.5 q-97 -109 -97 -311 q0 -235 123 -350 q102 -96 270 -96 q190 0 308 81 q43 29 73 72 l3 -2 l0 -280 q-153 -127 -412 -127 q-305 0 -478 194 q-166 185 -166 490 q0 323 182 509 q184 187 534 187 ZM661 1369 l-51 0 q-42 0 -66 -3 l-242 331 l3 3 q48 -3 263 -3 l97 -177 l113 177 l255 3 l4 -3 l-255 -331 l-121 3 Z" /><glyph glyph-name="ccaron" unicode="&#x10d;" d="M964 97 q-112 -112 -351 -112 q-232 0 -379 141 q-149 143 -149 380 q0 241 147 396 q156 163 417 163 q185 0 310 -81 l-40 -256 l-7 1 q-48 58 -101 76 q-86 30 -172 30 q-86 0 -135 -22 q-49 -22 -84 -61 q-70 -80 -70 -212 q0 -234 162 -306 q56 -24 118.5 -24 q62.5 0 109 11 q46.5 11 84.5 30 q81 40 110 93 l7 -3 l23 -244 ZM579 1188 l-51 0 q-42 0 -66 -3 l-242 331 l3 3 q48 -3 263 -3 l97 -177 l113 177 l255 3 l4 -3 l-255 -331 l-121 3 Z" /><glyph glyph-name="Dcaron" unicode="&#x10e;" d="M496 -25 q-162 0 -305 26 l0 1338 q132 16 306.5 16 q174.5 0 316 -47.5 q141.5 -47.5 236.5 -135.5 q192 -176 192 -493 q0 -355 -214 -539 q-192 -165 -532 -165 ZM451 219 q65 -12 130 -12 q65 0 140 25.5 q75 25.5 130 79.5 q118 114 118 332 q0 358 -261 440 q-86 27 -199 27 l-27 0 q-15 0 -31 -1 l0 -891 ZM712 1369 l-51 0 q-42 0 -66 -3 l-242 331 l3 3 q48 -3 263 -3 l97 -177 l113 177 l255 3 l4 -3 l-255 -331 l-121 3 Z" /><glyph glyph-name="dcaron" unicode="&#x10f;" d="M864 56 q-127 -71 -254 -71 q-127 0 -222 40 q-95 40 -162 110 q-138 144 -138 374 q0 238 160 396 q161 160 412 160 q77 0 151 -20 l0 445 l245 0 l0 -1069 q0 -133 12.5 -174 q12.5 -41 28 -60 q15.5 -19 39.5 -36 l-188 -166 q-52 28 -84 71 ZM657 215 q84 0 154 32 l0 554 q-70 29 -152 29 q-82 0 -140.5 -22 q-58.5 -22 -100.5 -61 q-88 -82 -88 -213 q0 -143 80 -228 q86 -91 247 -91 ZM1417 1445 q11 -105 11 -158.5 q0 -53.5 -3.5 -103.5 q-3.5 -50 -9.5 -90 q-15 -86 -36 -100 q-25 -16 -84 -27 l-111 -23 l-6 6 q16 28 16 180 l0 99 q0 102 -6 177 l229 40 Z" /><glyph glyph-name="Dcroat" unicode="&#x110;" d="M496 -25 q-162 0 -305 26 l0 547 l-99 0 l0 236 l99 0 l0 555 q132 16 306.5 16 q174.5 0 316 -47.5 q141.5 -47.5 236.5 -135.5 q192 -176 192 -493 q0 -355 -214 -539 q-192 -165 -532 -165 ZM451 219 q65 -12 130 -12 q65 0 140 25.5 q75 25.5 130 79.5 q118 114 118 332 q0 358 -261 440 q-86 27 -199 27 l-27 0 q-15 0 -31 -1 l0 -326 l300 0 l0 -236 l-300 0 l0 -329 Z" /><glyph glyph-name="dcroat" unicode="&#x111;" d="M864 56 q-127 -71 -254 -71 q-127 0 -222 40 q-95 40 -162 110 q-138 144 -138 374 q0 238 160 396 q161 160 412 160 q77 0 151 -20 l0 126 l-72 0 q-76 0 -124 -5 l3 187 q22 -6 132 -6 l61 0 l0 143 l245 0 l0 -143 q94 0 115 6 l3 -187 q-47 5 -118 5 l0 -750 q0 -133 12.5 -174 q12.5 -41 28 -60 q15.5 -19 39.5 -36 l-188 -166 q-52 28 -84 71 ZM657 215 q84 0 154 32 l0 554 q-70 29 -152 29 q-82 0 -140.5 -22 q-58.5 -22 -100.5 -61 q-88 -82 -88 -213 q0 -143 80 -228 q86 -91 247 -91 Z" /><glyph glyph-name="Emacron" unicode="&#x112;" d="M841 240 q62 0 86 12 l4 -1 l-10 -251 l-749 0 l0 1337 q27 -2 60 -3 l70 -2 q70 -2 152 -2 q229 0 453 8 q-11 -88 -11 -235 q0 -16 2 -24 l-2 -3 q-52 15 -148 15 l-315 0 l0 -255 l237 0 q110 0 132 6 l3 -247 q-48 5 -124 5 l-248 0 l0 -360 l408 0 ZM880 1700 q-4 -50 -4 -76 l0 -34 q0 -8 4 -60 l-675 0 l3 26 q5 33 5 60 q0 27 -6 84 l673 0 Z" /><glyph glyph-name="emacron" unicode="&#x113;" d="M97 514 q0 117 40 217 q40 100 113 175 q156 159 408 159 q213 0 342 -141 q127 -136 127 -342 q0 -79 -12 -108 q-100 -28 -407 -28 l-352 0 q26 -107 121 -166.5 q95 -59.5 247 -59.5 q159 0 273 57 q30 15 45 28 q-2 -42 -5 -86 l-11 -156 q-76 -52 -246 -72 q-50 -6 -96 -6 q-254 0 -420 148 q-167 149 -167 381 ZM861 640 q-41 215 -234 215 q-152 0 -231 -131 q-24 -40 -37 -88 q24 -1 59 -2 l74 0 q37 -1 71 -1 l57 0 q51 0 100 1 l82 3 q33 1 59 3 ZM950 1523 q-4 -50 -4 -76 l0 -34 q0 -8 4 -60 l-675 0 l3 26 q5 33 5 60 q0 27 -6 84 l673 0 Z" /><glyph glyph-name="Ebreve" unicode="&#x114;" d="M841 240 q62 0 86 12 l4 -1 l-10 -251 l-749 0 l0 1337 q27 -2 60 -3 l70 -2 q70 -2 152 -2 q229 0 453 8 q-11 -88 -11 -235 q0 -16 2 -24 l-2 -3 q-52 15 -148 15 l-315 0 l0 -255 l237 0 q110 0 132 6 l3 -247 q-48 5 -124 5 l-248 0 l0 -360 l408 0 ZM881 1806 q10 -10 10 -68 q0 -58 -20.5 -114.5 q-20.5 -56.5 -63.5 -101.5 q-97 -101 -271 -101 q-174 0 -271 101 q-84 88 -84 215 q0 59 10 69 l133 -3 q10 -79 37 -117 q59 -84 175 -84 q116 0 171 78 q31 44 41 123 l133 3 Z" /><glyph glyph-name="ebreve" unicode="&#x115;" d="M97 514 q0 117 40 217 q40 100 113 175 q156 159 408 159 q213 0 342 -141 q127 -136 127 -342 q0 -79 -12 -108 q-100 -28 -407 -28 l-352 0 q26 -107 121 -166.5 q95 -59.5 247 -59.5 q159 0 273 57 q30 15 45 28 q-2 -42 -5 -86 l-11 -156 q-76 -52 -246 -72 q-50 -6 -96 -6 q-254 0 -420 148 q-167 149 -167 381 ZM861 640 q-41 215 -234 215 q-152 0 -231 -131 q-24 -40 -37 -88 q24 -1 59 -2 l74 0 q37 -1 71 -1 l57 0 q51 0 100 1 l82 3 q33 1 59 3 ZM957 1610 q10 -10 10 -68 q0 -58 -20.5 -114.5 q-20.5 -56.5 -63.5 -101.5 q-97 -101 -271 -101 q-174 0 -271 101 q-84 88 -84 215 q0 59 10 69 l133 -3 q10 -79 37 -117 q59 -84 175 -84 q116 0 171 78 q31 44 41 123 l133 3 Z" /><glyph glyph-name="Edotaccent" unicode="&#x116;" d="M841 240 q62 0 86 12 l4 -1 l-10 -251 l-749 0 l0 1337 q27 -2 60 -3 l70 -2 q70 -2 152 -2 q229 0 453 8 q-11 -88 -11 -235 q0 -16 2 -24 l-2 -3 q-52 15 -148 15 l-315 0 l0 -255 l237 0 q110 0 132 6 l3 -247 q-48 5 -124 5 l-248 0 l0 -360 l408 0 ZM366 1618 q65 104 149 196 l191 -151 q-50 -64 -68 -88 l-35 -49 q-17 -23 -36 -52 l-201 144 Z" /><glyph glyph-name="edotaccent" unicode="&#x117;" d="M97 514 q0 117 40 217 q40 100 113 175 q156 159 408 159 q213 0 342 -141 q127 -136 127 -342 q0 -79 -12 -108 q-100 -28 -407 -28 l-352 0 q26 -107 121 -166.5 q95 -59.5 247 -59.5 q159 0 273 57 q30 15 45 28 q-2 -42 -5 -86 l-11 -156 q-76 -52 -246 -72 q-50 -6 -96 -6 q-254 0 -420 148 q-167 149 -167 381 ZM861 640 q-41 215 -234 215 q-152 0 -231 -131 q-24 -40 -37 -88 q24 -1 59 -2 l74 0 q37 -1 71 -1 l57 0 q51 0 100 1 l82 3 q33 1 59 3 ZM442 1336 q65 104 149 196 l191 -151 q-50 -64 -68 -88 l-35 -49 q-17 -23 -36 -52 l-201 144 Z" /><glyph glyph-name="Eogonek" unicode="&#x118;" d="M863 -320 q37 0 59 16 l2 -5 l-104 -243 q-266 0 -359 162 q-34 59 -34 147 q0 82 63 172 q26 36 67 71 l-385 0 l0 1337 q27 -2 60 -3 l70 -2 q70 -2 152 -2 q229 0 453 8 q-11 -88 -11 -235 q0 -16 2 -24 l-2 -3 q-52 15 -148 15 l-315 0 l0 -255 l237 0 q110 0 132 6 l3 -247 q-48 5 -124 5 l-248 0 l0 -360 l408 0 q62 0 86 12 l4 -1 l-10 -237 l10 -14 l-11 0 q-104 -4 -178 -72 q-70 -65 -70 -143 q0 -105 191 -105 Z" /><glyph glyph-name="eogonek" unicode="&#x119;" d="M542 -256 q0 118 130 241 q-249 4 -411 151 q-164 149 -164 380 q0 233 153 390 q156 159 408 159 q213 0 342 -141 q127 -136 127 -342 q0 -79 -12 -108 q-100 -28 -407 -28 l-352 0 q26 -107 121 -166.5 q95 -59.5 247 -59.5 q159 0 273 57 q30 15 45 28 q-2 -42 -5 -86 l-11 -156 l-18 -11 q-123 -75 -186 -164 q-45 -63 -45 -98 q0 -35 16.5 -56 q16.5 -21 42.5 -34 q47 -23 103 -23 q56 0 78 16 l2 -5 l-104 -243 q-373 0 -373 299 ZM861 640 q-41 215 -234 215 q-152 0 -231 -131 q-24 -40 -37 -88 q24 -1 59 -2 l74 0 q37 -1 71 -1 l57 0 q51 0 100 1 l82 3 q33 1 59 3 Z" /><glyph glyph-name="Ecaron" unicode="&#x11a;" d="M841 240 q62 0 86 12 l4 -1 l-10 -251 l-749 0 l0 1337 q27 -2 60 -3 l70 -2 q70 -2 152 -2 q229 0 453 8 q-11 -88 -11 -235 q0 -16 2 -24 l-2 -3 q-52 15 -148 15 l-315 0 l0 -255 l237 0 q110 0 132 6 l3 -247 q-48 5 -124 5 l-248 0 l0 -360 l408 0 ZM528 1369 l-51 0 q-42 0 -66 -3 l-242 331 l3 3 q48 -3 263 -3 l97 -177 l113 177 l255 3 l4 -3 l-255 -331 l-121 3 Z" /><glyph glyph-name="ecaron" unicode="&#x11b;" d="M97 514 q0 117 40 217 q40 100 113 175 q156 159 408 159 q213 0 342 -141 q127 -136 127 -342 q0 -79 -12 -108 q-100 -28 -407 -28 l-352 0 q26 -107 121 -166.5 q95 -59.5 247 -59.5 q159 0 273 57 q30 15 45 28 q-2 -42 -5 -86 l-11 -156 q-76 -52 -246 -72 q-50 -6 -96 -6 q-254 0 -420 148 q-167 149 -167 381 ZM861 640 q-41 215 -234 215 q-152 0 -231 -131 q-24 -40 -37 -88 q24 -1 59 -2 l74 0 q37 -1 71 -1 l57 0 q51 0 100 1 l82 3 q33 1 59 3 ZM604 1188 l-51 0 q-42 0 -66 -3 l-242 331 l3 3 q48 -3 263 -3 l97 -177 l113 177 l255 3 l4 -3 l-255 -331 l-121 3 Z" /><glyph glyph-name="Gcircumflex" unicode="&#x11c;" d="M1268 802 q-19 -34 -19 -163 l0 -310 q0 -141 -146 -245 q-151 -109 -370 -109 q-304 0 -485 191 q-175 182 -175 464 q0 300 178 500 q199 225 548 225 q233 0 369 -90 l-16 -295 l-8 -2 q-35 61 -138 100 q-98 37 -205.5 37 q-107.5 0 -188 -34 q-80.5 -34 -136.5 -97 q-118 -129 -118 -341 q0 -185 104 -297 q104 -111 268 -111 q181 0 244 94 q20 30 20 68 l0 166 l-129 0 q-104 0 -113 -18 l-3 1 l-9 261 q28 -8 227 -8 l118 0 q110 0 180 15 l3 -2 ZM620 1473 q-215 0 -263 -3 l-3 3 l242 331 q24 -3 66 -3 l51 0 l121 3 l255 -331 l-4 -3 l-255 3 l-113 177 l-97 -177 Z" /><glyph glyph-name="gcircumflex" unicode="&#x11d;" d="M416 278 q-37 -49 -37 -77.5 q0 -28.5 9 -44 q9 -15.5 39 -29.5 q66 -31 217 -54.5 q151 -23.5 236.5 -58.5 q85.5 -35 138.5 -86 q99 -97 99 -275 q0 -178 -125 -273.5 q-125 -95.5 -371 -95.5 q-248 0 -400 108 q-152 108 -156 287 q-6 208 163 301 q-46 38 -61.5 89.5 q-15.5 51.5 -15.5 117.5 q0 111 97 188 q-113 107 -113 266 q0 178 128 298 q135 126 350 126 q113 0 212 -42 q130 55 191 96.5 q61 41.5 78 60.5 l6 -1 q9 -24 21 -68 l18 -72 q24 -89 29 -122 q-44 -48 -155 -68 q43 -83 43 -176 q0 -93 -32 -168.5 q-32 -75.5 -91 -132.5 q-131 -123 -334 -123 q-99 0 -184 29 ZM390 728 q-14 -36 -14 -73 q0 -37 15.5 -71 q15.5 -34 45.5 -61 q67 -60 175 -60 q82 0 142 55 q63 60 63 144.5 q0 84.5 -57 136.5 q-57 52 -157 52 q-165 0 -213 -123 ZM635 -504 q246 0 246 172 q0 82 -80 132 q-90 57 -309 89 l-52 9 q-66 -35 -97 -90 q-31 -55 -30.5 -104.5 q0.5 -49.5 23.5 -85.5 q23 -36 64 -63 q91 -59 235 -59 ZM539 1188 q-215 0 -263 -3 l-3 3 l242 331 q24 -3 66 -3 l51 0 l121 3 l255 -331 l-4 -3 l-255 3 l-113 177 l-97 -177 Z" /><glyph glyph-name="Gbreve" unicode="&#x11e;" d="M1268 802 q-19 -34 -19 -163 l0 -310 q0 -141 -146 -245 q-151 -109 -370 -109 q-304 0 -485 191 q-175 182 -175 464 q0 300 178 500 q199 225 548 225 q233 0 369 -90 l-16 -295 l-8 -2 q-35 61 -138 100 q-98 37 -205.5 37 q-107.5 0 -188 -34 q-80.5 -34 -136.5 -97 q-118 -129 -118 -341 q0 -185 104 -297 q104 -111 268 -111 q181 0 244 94 q20 30 20 68 l0 166 l-129 0 q-104 0 -113 -18 l-3 1 l-9 261 q28 -8 227 -8 l118 0 q110 0 180 15 l3 -2 ZM1066 1806 q10 -10 10 -68 q0 -58 -20.5 -114.5 q-20.5 -56.5 -63.5 -101.5 q-97 -101 -271 -101 q-174 0 -271 101 q-84 88 -84 215 q0 59 10 69 l133 -3 q10 -79 37 -117 q59 -84 175 -84 q116 0 171 78 q31 44 41 123 l133 3 Z" /><glyph glyph-name="gbreve" unicode="&#x11f;" d="M416 278 q-37 -49 -37 -77.5 q0 -28.5 9 -44 q9 -15.5 39 -29.5 q66 -31 217 -54.5 q151 -23.5 236.5 -58.5 q85.5 -35 138.5 -86 q99 -97 99 -275 q0 -178 -125 -273.5 q-125 -95.5 -371 -95.5 q-248 0 -400 108 q-152 108 -156 287 q-6 208 163 301 q-46 38 -61.5 89.5 q-15.5 51.5 -15.5 117.5 q0 111 97 188 q-113 107 -113 266 q0 178 128 298 q135 126 350 126 q113 0 212 -42 q130 55 191 96.5 q61 41.5 78 60.5 l6 -1 q9 -24 21 -68 l18 -72 q24 -89 29 -122 q-44 -48 -155 -68 q43 -83 43 -176 q0 -93 -32 -168.5 q-32 -75.5 -91 -132.5 q-131 -123 -334 -123 q-99 0 -184 29 ZM390 728 q-14 -36 -14 -73 q0 -37 15.5 -71 q15.5 -34 45.5 -61 q67 -60 175 -60 q82 0 142 55 q63 60 63 144.5 q0 84.5 -57 136.5 q-57 52 -157 52 q-165 0 -213 -123 ZM635 -504 q246 0 246 172 q0 82 -80 132 q-90 57 -309 89 l-52 9 q-66 -35 -97 -90 q-31 -55 -30.5 -104.5 q0.5 -49.5 23.5 -85.5 q23 -36 64 -63 q91 -59 235 -59 ZM985 1610 q10 -10 10 -68 q0 -58 -20.5 -114.5 q-20.5 -56.5 -63.5 -101.5 q-97 -101 -271 -101 q-174 0 -271 101 q-84 88 -84 215 q0 59 10 69 l133 -3 q10 -79 37 -117 q59 -84 175 -84 q116 0 171 78 q31 44 41 123 l133 3 Z" /><glyph glyph-name="Gdotaccent" unicode="&#x120;" d="M1268 802 q-19 -34 -19 -163 l0 -310 q0 -141 -146 -245 q-151 -109 -370 -109 q-304 0 -485 191 q-175 182 -175 464 q0 300 178 500 q199 225 548 225 q233 0 369 -90 l-16 -295 l-8 -2 q-35 61 -138 100 q-98 37 -205.5 37 q-107.5 0 -188 -34 q-80.5 -34 -136.5 -97 q-118 -129 -118 -341 q0 -185 104 -297 q104 -111 268 -111 q181 0 244 94 q20 30 20 68 l0 166 l-129 0 q-104 0 -113 -18 l-3 1 l-9 261 q28 -8 227 -8 l118 0 q110 0 180 15 l3 -2 ZM551 1618 q65 104 149 196 l191 -151 q-50 -64 -68 -88 l-35 -49 q-17 -23 -36 -52 l-201 144 Z" /><glyph glyph-name="gdotaccent" unicode="&#x121;" d="M416 278 q-37 -49 -37 -77.5 q0 -28.5 9 -44 q9 -15.5 39 -29.5 q66 -31 217 -54.5 q151 -23.5 236.5 -58.5 q85.5 -35 138.5 -86 q99 -97 99 -275 q0 -178 -125 -273.5 q-125 -95.5 -371 -95.5 q-248 0 -400 108 q-152 108 -156 287 q-6 208 163 301 q-46 38 -61.5 89.5 q-15.5 51.5 -15.5 117.5 q0 111 97 188 q-113 107 -113 266 q0 178 128 298 q135 126 350 126 q113 0 212 -42 q130 55 191 96.5 q61 41.5 78 60.5 l6 -1 q9 -24 21 -68 l18 -72 q24 -89 29 -122 q-44 -48 -155 -68 q43 -83 43 -176 q0 -93 -32 -168.5 q-32 -75.5 -91 -132.5 q-131 -123 -334 -123 q-99 0 -184 29 ZM390 728 q-14 -36 -14 -73 q0 -37 15.5 -71 q15.5 -34 45.5 -61 q67 -60 175 -60 q82 0 142 55 q63 60 63 144.5 q0 84.5 -57 136.5 q-57 52 -157 52 q-165 0 -213 -123 ZM635 -504 q246 0 246 172 q0 82 -80 132 q-90 57 -309 89 l-52 9 q-66 -35 -97 -90 q-31 -55 -30.5 -104.5 q0.5 -49.5 23.5 -85.5 q23 -36 64 -63 q91 -59 235 -59 ZM470 1336 q65 104 149 196 l191 -151 q-50 -64 -68 -88 l-35 -49 q-17 -23 -36 -52 l-201 144 Z" /><glyph glyph-name="Gcommaaccent" unicode="&#x122;" d="M1268 802 q-19 -34 -19 -163 l0 -310 q0 -141 -146 -245 q-151 -109 -370 -109 q-304 0 -485 191 q-175 182 -175 464 q0 300 178 500 q199 225 548 225 q233 0 369 -90 l-16 -295 l-8 -2 q-35 61 -138 100 q-98 37 -205.5 37 q-107.5 0 -188 -34 q-80.5 -34 -136.5 -97 q-118 -129 -118 -341 q0 -185 104 -297 q104 -111 268 -111 q181 0 244 94 q20 30 20 68 l0 166 l-129 0 q-104 0 -113 -18 l-3 1 l-9 261 q28 -8 227 -8 l118 0 q110 0 180 15 l3 -2 ZM539 -607 q61 108 61 222 q0 114 -11 194 l249 40 l8 -51 q8 -56 8 -115.5 q0 -59.5 -6 -96 q-6 -36.5 -16 -62.5 q-24 -58 -82 -82 q-64 -26 -205 -55 l-6 6 Z" /><glyph glyph-name="gcommaaccent" unicode="&#x123;" d="M416 278 q-37 -49 -37 -77.5 q0 -28.5 9 -44 q9 -15.5 39 -29.5 q66 -31 217 -54.5 q151 -23.5 236.5 -58.5 q85.5 -35 138.5 -86 q99 -97 99 -275 q0 -178 -125 -273.5 q-125 -95.5 -371 -95.5 q-248 0 -400 108 q-152 108 -156 287 q-6 208 163 301 q-46 38 -61.5 89.5 q-15.5 51.5 -15.5 117.5 q0 111 97 188 q-113 107 -113 266 q0 178 128 298 q135 126 350 126 q113 0 212 -42 q130 55 191 96.5 q61 41.5 78 60.5 l6 -1 q9 -24 21 -68 l18 -72 q24 -89 29 -122 q-44 -48 -155 -68 q43 -83 43 -176 q0 -93 -32 -168.5 q-32 -75.5 -91 -132.5 q-131 -123 -334 -123 q-99 0 -184 29 ZM390 728 q-14 -36 -14 -73 q0 -37 15.5 -71 q15.5 -34 45.5 -61 q67 -60 175 -60 q82 0 142 55 q63 60 63 144.5 q0 84.5 -57 136.5 q-57 52 -157 52 q-165 0 -213 -123 ZM635 -504 q246 0 246 172 q0 82 -80 132 q-90 57 -309 89 l-52 9 q-66 -35 -97 -90 q-31 -55 -30.5 -104.5 q0.5 -49.5 23.5 -85.5 q23 -36 64 -63 q91 -59 235 -59 ZM739 1766 q-61 -108 -61 -222 q0 -114 11 -194 l-249 -40 l-8 51 q-8 56 -8 115.5 q0 59.5 6 96 q6 36.5 16 62.5 q24 58 82 82 q64 26 205 55 l6 -6 Z" /><glyph glyph-name="Hcircumflex" unicode="&#x124;" d="M442 -6 q-96 6 -228 6 l-32 0 l0 1335 q62 -5 88 -5 l41 0 q79 0 131 8 l0 -533 l470 0 l0 530 q83 -5 161.5 -5 q78.5 0 98.5 8 l0 -1344 q-48 6 -190 6 l-70 0 l0 565 l-470 0 l0 -571 ZM581 1473 q-215 0 -263 -3 l-3 3 l242 331 q24 -3 66 -3 l51 0 l121 3 l255 -331 l-4 -3 l-255 3 l-113 177 l-97 -177 Z" /><glyph glyph-name="hcircumflex" unicode="&#x125;" d="M418 112 q0 -86 4 -112 l-249 0 l0 1430 l245 0 l0 -463 q129 98 266 98 q168 0 270 -111 q100 -111 100 -294 l0 -398 q0 -169 5 -203 q5 -34 13.5 -44 q8.5 -10 14.5 -18 l-2 -4 q-81 7 -118 7 l-71 0 q-33 0 -87 -3 l0 579 q0 138 -61 204 q-46 50 -125 50 q-117 0 -205 -135 l0 -583 ZM563 1473 q-215 0 -263 -3 l-3 3 l242 331 q24 -3 66 -3 l51 0 l121 3 l255 -331 l-4 -3 l-255 3 l-113 177 l-97 -177 Z" /><glyph glyph-name="Hbar" unicode="&#x126;" d="M442 -6 q-96 6 -228 6 l-32 0 l0 975 l-124 0 l10 39 q4 12 4 39 q0 27 -10 67 l120 0 l0 215 q62 -5 88 -5 l41 0 q79 0 131 8 l0 -218 l470 0 l0 215 q83 -5 161.5 -5 q78.5 0 98.5 8 l0 -218 l127 0 q-6 -32 -6 -59 l0 -37 q0 -16 6 -49 l-127 0 l0 -981 q-48 6 -190 6 l-70 0 l0 565 l-470 0 l0 -571 ZM912 805 l0 170 l-470 0 l0 -170 l470 0 Z" /><glyph glyph-name="hbar" unicode="&#x127;" d="M418 112 q0 -86 4 -112 l-249 0 l0 1140 l-77 0 l4 26 q4 33 4 60 q0 27 -6 84 l75 0 l0 120 l245 0 l0 -120 l234 0 q-4 -50 -4 -76 l0 -36 q0 -6 4 -58 l-234 0 l0 -173 q129 98 266 98 q168 0 270 -111 q100 -111 100 -294 l0 -398 q0 -169 5 -203 q5 -34 13.5 -44 q8.5 -10 14.5 -18 l-2 -4 q-81 7 -118 7 l-71 0 q-33 0 -87 -3 l0 579 q0 138 -61 204 q-46 50 -125 50 q-117 0 -205 -135 l0 -583 Z" /><glyph glyph-name="Itilde" unicode="&#x128;" d="M203 1334 q100 -4 121 -4 l72 0 q53 0 85 8 l-1 -1338 l-277 0 l0 1334 ZM167 1565 q-94 0 -167 -75 l-4 1 l-4 199 q68 80 185 80 q92 0 171 -54.5 q79 -54.5 163 -54.5 q119 0 156 84 l2 -2 l-10 -216 q-17 -30 -61 -49.5 q-44 -19.5 -92 -19.5 q-48 0 -77.5 8 q-29.5 8 -54.5 20 q-25 12 -46.5 25.5 q-21.5 13.5 -45.5 25.5 q-56 28 -115 28 Z" /><glyph glyph-name="itilde" unicode="&#x129;" d="M378 112 q0 -86 4 -112 l-254 0 l0 1045 l250 0 l0 -933 ZM80 1280 q-94 0 -167 -75 l-4 1 l-4 199 q68 80 185 80 q92 0 171 -54.5 q79 -54.5 163 -54.5 q119 0 156 84 l2 -2 l-10 -216 q-17 -30 -61 -49.5 q-44 -19.5 -92 -19.5 q-48 0 -77.5 8 q-29.5 8 -54.5 20 q-25 12 -46.5 25.5 q-21.5 13.5 -45.5 25.5 q-56 28 -115 28 Z" /><glyph glyph-name="Imacron" unicode="&#x12a;" d="M203 1334 q100 -4 121 -4 l72 0 q53 0 85 8 l-1 -1338 l-277 0 l0 1334 ZM674 1700 q-4 -50 -4 -76 l0 -34 q0 -8 4 -60 l-675 0 l3 26 q5 33 5 60 q0 27 -6 84 l673 0 Z" /><glyph glyph-name="imacron" unicode="&#x12b;" d="M461 112 q0 -86 4 -112 l-254 0 l0 1045 l250 0 l0 -933 ZM664 1523 q-4 -50 -4 -76 l0 -34 q0 -8 4 -60 l-675 0 l3 26 q5 33 5 60 q0 27 -6 84 l673 0 Z" /><glyph glyph-name="Ibreve" unicode="&#x12c;" d="M203 1334 q100 -4 121 -4 l72 0 q53 0 85 8 l-1 -1338 l-277 0 l0 1334 ZM676 1806 q10 -10 10 -68 q0 -58 -20.5 -114.5 q-20.5 -56.5 -63.5 -101.5 q-97 -101 -271 -101 q-174 0 -271 101 q-84 88 -84 215 q0 59 10 69 l133 -3 q10 -79 37 -117 q59 -84 175 -84 q116 0 171 78 q31 44 41 123 l133 3 Z" /><glyph glyph-name="ibreve" unicode="&#x12d;" d="M461 112 q0 -86 4 -112 l-254 0 l0 1045 l250 0 l0 -933 ZM671 1610 q10 -10 10 -68 q0 -58 -20.5 -114.5 q-20.5 -56.5 -63.5 -101.5 q-97 -101 -271 -101 q-174 0 -271 101 q-84 88 -84 215 q0 59 10 69 l133 -3 q10 -79 37 -117 q59 -84 175 -84 q116 0 171 78 q31 44 41 123 l133 3 Z" /><glyph glyph-name="Iogonek" unicode="&#x12e;" d="M380.5 -300 q26.5 -13 58.5 -18 q32 -5 66 -5 q34 0 56 16 l2 -5 l-104 -243 q-177 0 -270 51 q-123 69 -123 228 q0 98 68 200 q27 40 69 76 l0 1334 q100 -4 121 -4 l41 0 q84 0 116 8 l-1 -1338 l-22 0 q-60 -36 -103 -116 q-34 -62 -34 -95.5 q0 -33.5 16.5 -54.5 q16.5 -21 43 -34 Z" /><glyph glyph-name="iogonek" unicode="&#x12f;" d="M115 1343 q80 125 167 220 l215 -169 q-43 -53 -80 -104 q0 0 -77 -109 l-225 162 ZM295.5 -300 q26.5 -13 58.5 -18 q32 -5 66 -5 q34 0 56 16 l2 -5 l-104 -243 q-177 0 -270 51 q-123 69 -123 228 q0 98 69 200 q26 40 68 76 l10 3 l0 1042 l250 0 l0 -933 q0 -86 4 -112 l-9 0 q-60 -36 -103 -116 q-34 -62 -34 -95.5 q0 -33.5 16.5 -54.5 q16.5 -21 43 -34 Z" /><glyph glyph-name="Idotaccent" unicode="&#x130;" d="M203 1334 q100 -4 121 -4 l72 0 q53 0 85 8 l-1 -1338 l-277 0 l0 1334 ZM161 1618 q65 104 149 196 l191 -151 q-50 -64 -68 -88 l-35 -49 q-17 -23 -36 -52 l-201 144 Z" /><glyph glyph-name="dotlessi" unicode="&#x131;" d="M378 112 q0 -86 4 -112 l-254 0 l0 1045 l250 0 l0 -933 Z" /><glyph glyph-name="IJ" unicode="&#x132;" d="M203 1334 q100 -4 121 -4 l72 0 q53 0 85 8 l-1 -1338 l-277 0 l0 1334 ZM1132 1335 q62 -5 90 -5 l78 0 q49 0 97 8 l0 -896 q0 -220 -117 -346 q-111 -121 -300 -121 q-130 0 -218 52 q-33 19 -66 46 l0 289 l7 2 q42 -66 98.5 -108 q56.5 -42 140.5 -42 q190 0 190 220 l0 901 Z" /><glyph glyph-name="ij" unicode="&#x133;" d="M115 1343 q80 125 167 220 l215 -169 q-43 -53 -80 -104 q0 0 -77 -109 l-225 162 ZM378 112 q0 -86 4 -112 l-254 0 l0 1045 l250 0 l0 -933 ZM608 1336 q65 104 149 196 l191 -151 q-50 -64 -68 -88 l-35 -49 q-17 -23 -36 -52 l-201 144 ZM497 -155 q148 0 148 220 l0 980 l243 0 l0 -908 q0 -420 -239 -497 q-78 -25 -177 -25 l-104 263 l2 5 q57 -38 127 -38 Z" /><glyph glyph-name="Jcircumflex" unicode="&#x134;" d="M448 1335 q62 -5 90 -5 l78 0 q49 0 97 8 l0 -896 q0 -220 -117 -346 q-111 -121 -300 -121 q-130 0 -218 52 q-33 19 -66 46 l0 289 l7 2 q42 -66 98.5 -108 q56.5 -42 140.5 -42 q190 0 190 220 l0 901 ZM481 1473 q-215 0 -263 -3 l-3 3 l242 331 q24 -3 66 -3 l51 0 l121 3 l255 -331 l-4 -3 l-255 3 l-113 177 l-97 -177 Z" /><glyph glyph-name="jcircumflex" unicode="&#x135;" d="M-14 -155 q146 0 146 220 l0 980 l245 0 l0 -908 q0 -420 -239 -497 q-78 -25 -177 -25 l-104 263 l2 5 q57 -38 127 -38 ZM156 1188 q-215 0 -263 -3 l-3 3 l242 331 q24 -3 66 -3 l51 0 l121 3 l255 -331 l-4 -3 l-255 3 l-113 177 l-97 -177 Z" /><glyph glyph-name="Kcommaaccent" unicode="&#x136;" d="M427 -6 q-69 6 -176 6 l-79 0 l0 1334 l40 -2 q42 -2 63 -2 l29 0 q88 0 123 8 l0 -565 l405 561 q64 -4 108 -4 l55 0 q103 0 147 8 l-386 -504 l380 -754 q24 -55 45 -80 l-61 0 q-211 0 -263 -8 q-11 67 -30 117 l-255 486 l-145 -190 l0 -411 ZM530 -607 q61 108 61 222 q0 114 -11 194 l249 40 l8 -51 q8 -56 8 -115.5 q0 -59.5 -6 -96 q-6 -36.5 -16 -62.5 q-24 -58 -82 -82 q-64 -26 -205 -55 l-6 6 Z" /><glyph glyph-name="kcommaaccent" unicode="&#x137;" d="M407 132 q0 -86 7 -132 l-252 0 l0 1430 l245 0 l0 -876 l457 491 l297 0 l-394 -415 l225 -307 q73 -116 110 -170 l66 -93 q30 -39 50 -60 l-158 0 q-88 0 -151 -15 l-312 456 l-190 -202 l0 -107 ZM484 -607 q61 108 61 222 q0 114 -11 194 l249 40 l8 -51 q8 -56 8 -115.5 q0 -59.5 -6 -96 q-6 -36.5 -16 -62.5 q-24 -58 -82 -82 q-64 -26 -205 -55 l-6 6 Z" /><glyph glyph-name="kgreenlandic" unicode="&#x138;" d="M407 132 q0 -86 7 -132 l-252 0 l0 1045 l245 0 l0 -491 l457 491 l297 0 l-394 -415 l225 -307 q73 -116 110 -170 l66 -93 q30 -39 50 -60 l-158 0 q-88 0 -151 -15 l-312 456 l-190 -202 l0 -107 Z" /><glyph glyph-name="Lacute" unicode="&#x139;" d="M367 0 q-147 0 -195 -6 l0 1342 q24 -6 99.5 -6 q75.5 0 175.5 4 l0 -1094 l207 0 q90 0 144 6 q-7 -234 -7 -243 l0 -10 q-98 7 -329 7 l-95 0 ZM470 1788 q150 0 320 17 l-1 -7 l-262 -323 l-226 0 l169 313 Z" /><glyph glyph-name="lacute" unicode="&#x13a;" d="M379 112 q0 -86 4 -112 l-254 0 l0 1355 l250 0 l0 -1243 ZM207 1788 q150 0 320 17 l-1 -7 l-262 -323 l-226 0 l169 313 Z" /><glyph glyph-name="Lcommaaccent" unicode="&#x13b;" d="M367 0 q-147 0 -195 -6 l0 1342 q24 -6 99.5 -6 q75.5 0 175.5 4 l0 -1094 l207 0 q90 0 144 6 q-7 -234 -7 -243 l0 -10 q-98 7 -329 7 l-95 0 ZM379 -607 q61 108 61 222 q0 114 -11 194 l249 40 l8 -51 q8 -56 8 -115.5 q0 -59.5 -6 -96 q-6 -36.5 -16 -62.5 q-24 -58 -82 -82 q-64 -26 -205 -55 l-6 6 Z" /><glyph glyph-name="lcommaaccent" unicode="&#x13c;" d="M379 112 q0 -86 4 -112 l-254 0 l0 1490 l250 0 l0 -1378 ZM91 -607 q61 108 61 222 q0 114 -11 194 l249 40 l8 -51 q8 -56 8 -115.5 q0 -59.5 -6 -96 q-6 -36.5 -16 -62.5 q-24 -58 -82 -82 q-64 -26 -205 -55 l-6 6 Z" /><glyph glyph-name="Lcaron" unicode="&#x13d;" d="M367 0 q-147 0 -195 -6 l0 1342 q24 -6 99.5 -6 q75.5 0 175.5 4 l0 -1094 l207 0 q90 0 144 6 q-7 -234 -7 -243 l0 -10 q-98 7 -329 7 l-95 0 ZM861 1445 q11 -105 11 -158.5 q0 -53.5 -3.5 -103.5 q-3.5 -50 -9.5 -90 q-15 -86 -36 -100 q-25 -16 -84 -27 l-111 -23 l-6 6 q16 28 16 180 l0 99 q0 102 -6 177 l229 40 Z" /><glyph glyph-name="lcaron" unicode="&#x13e;" d="M379 112 q0 -86 4 -112 l-254 0 l0 1490 l250 0 l0 -1378 ZM728 1445 q11 -105 11 -158.5 q0 -53.5 -3.5 -103.5 q-3.5 -50 -9.5 -90 q-15 -86 -36 -100 q-25 -16 -84 -27 l-111 -23 l-6 6 q16 28 16 180 l0 99 q0 102 -6 177 l229 40 Z" /><glyph glyph-name="Ldot" unicode="&#x13f;" d="M367 0 q-147 0 -195 -6 l0 1342 q24 -6 99.5 -6 q75.5 0 175.5 4 l0 -1094 l207 0 q90 0 144 6 q-7 -234 -7 -243 l0 -10 q-98 7 -329 7 l-95 0 ZM690 687 q9 61 9 108 q0 47 -0.5 64.5 q-0.5 17.5 -1.5 34.5 q-1 17 -2 32 l-3 25 l290 0 q-3 -38 -3 -62 l-2 -42 q0 -19 0 -71.5 q0 -52.5 5 -88.5 l-292 0 Z" /><glyph glyph-name="ldot" unicode="&#x140;" d="M562 605 q8 51 8 131 q0 80 -6 118 l234 0 q-5 -65 -5 -139.5 q0 -74.5 5 -109.5 l-236 0 ZM427 112 q0 -86 4 -112 l-254 0 l0 1490 l250 0 l0 -1378 Z" /><glyph glyph-name="Lslash" unicode="&#x141;" d="M367 0 q-147 0 -195 -6 l0 575 l-143 -49 q1 19 1 40 l0 74 q-4 95 -5 111 l147 51 l0 540 q24 -6 99.5 -6 q75.5 0 175.5 4 l0 -442 l258 90 l1 -112 l0 -90 q0 -15 1 -27 l-260 -90 l0 -423 l207 0 q90 0 144 6 q-7 -234 -7 -243 l0 -10 q-98 7 -329 7 l-95 0 Z" /><glyph glyph-name="lslash" unicode="&#x142;" d="M427 112 q0 -86 4 -112 l-254 0 l0 601 l-147 -56 q1 19 1 37 l0 67 l-2 51 q-1 26 -3 50 l151 56 l0 624 l250 0 l0 -531 l137 51 q-2 -26 -2 -53 l0 -49 q0 -47 4 -97 l-139 -54 l0 -585 Z" /><glyph glyph-name="Nacute" unicode="&#x143;" d="M181 0 q6 34 6 74 l0 1256 l200 0 l530 -834 l0 766 q0 55 -10 68 l270 0 q-5 -40 -5 -88 l0 -1242 l-208 0 l-522 801 l0 -801 l-261 0 ZM604 1788 q150 0 320 17 l-1 -7 l-262 -323 l-226 0 l169 313 Z" /><glyph glyph-name="nacute" unicode="&#x144;" d="M410 128 q0 -88 8 -128 l-251 0 l0 1045 l243 0 l0 -89 q132 109 282 109 q164 0 262 -111.5 q98 -111.5 98 -293.5 l0 -398 q0 -169 5 -203 q5 -34 13.5 -44 q8.5 -10 14.5 -18 l-2 -4 q-81 7 -118 7 l-70 0 q-32 0 -86 -3 l0 545 q0 293 -178 293 q-132 0 -221 -136 l0 -571 ZM631 1503 q150 0 320 17 l-1 -7 l-262 -323 l-226 0 l169 313 Z" /><glyph glyph-name="Ncommaaccent" unicode="&#x145;" d="M181 0 q6 34 6 74 l0 1256 l200 0 l530 -834 l0 766 q0 55 -10 68 l270 0 q-5 -40 -5 -88 l0 -1242 l-208 0 l-522 801 l0 -801 l-261 0 ZM513 -607 q61 108 61 222 q0 114 -11 194 l249 40 l8 -51 q8 -56 8 -115.5 q0 -59.5 -6 -96 q-6 -36.5 -16 -62.5 q-24 -58 -82 -82 q-64 -26 -205 -55 l-6 6 Z" /><glyph glyph-name="ncommaaccent" unicode="&#x146;" d="M410 128 q0 -88 8 -128 l-251 0 l0 1045 l243 0 l0 -89 q132 109 282 109 q164 0 262 -111.5 q98 -111.5 98 -293.5 l0 -398 q0 -169 5 -203 q5 -34 13.5 -44 q8.5 -10 14.5 -18 l-2 -4 q-81 7 -118 7 l-70 0 q-32 0 -86 -3 l0 545 q0 293 -178 293 q-132 0 -221 -136 l0 -571 ZM480 -607 q61 108 61 222 q0 114 -11 194 l249 40 l8 -51 q8 -56 8 -115.5 q0 -59.5 -6 -96 q-6 -36.5 -16 -62.5 q-24 -58 -82 -82 q-64 -26 -205 -55 l-6 6 Z" /><glyph glyph-name="Ncaron" unicode="&#x147;" d="M181 0 q6 34 6 74 l0 1256 l200 0 l530 -834 l0 766 q0 55 -10 68 l270 0 q-5 -40 -5 -88 l0 -1242 l-208 0 l-522 801 l0 -801 l-261 0 ZM671 1369 l-51 0 q-42 0 -66 -3 l-242 331 l3 3 q48 -3 263 -3 l97 -177 l113 177 l255 3 l4 -3 l-255 -331 l-121 3 Z" /><glyph glyph-name="ncaron" unicode="&#x148;" d="M410 128 q0 -88 8 -128 l-251 0 l0 1045 l243 0 l0 -89 q132 109 282 109 q164 0 262 -111.5 q98 -111.5 98 -293.5 l0 -398 q0 -169 5 -203 q5 -34 13.5 -44 q8.5 -10 14.5 -18 l-2 -4 q-81 7 -118 7 l-70 0 q-32 0 -86 -3 l0 545 q0 293 -178 293 q-132 0 -221 -136 l0 -571 ZM638 1188 l-51 0 q-42 0 -66 -3 l-242 331 l3 3 q48 -3 263 -3 l97 -177 l113 177 l255 3 l4 -3 l-255 -331 l-121 3 Z" /><glyph glyph-name="Eng" unicode="&#x14a;" d="M181 0 q6 34 6 74 l0 1256 l220 0 l509 -829 l0 761 q0 55 -10 68 l270 0 q-5 -40 -5 -88 l1 -1348 q0 -217 -136 -346 q-127 -121 -311.5 -121 q-184.5 0 -302.5 98 l0 249 l7 2 q84 -87 182 -104 q35 -6 82 -6 q47 0 89 16 q42 16 72 46 q63 61 63 158 l0 172 l-475 731 l0 -789 l-261 0 Z" /><glyph glyph-name="eng" unicode="&#x14b;" d="M410 128 q0 -88 8 -128 l-251 0 l0 1045 l243 0 l0 -89 q132 109 283 109 q164 0 262 -111.5 q98 -111.5 98 -293.5 l0 -218 q0 -471 -9 -576 q-9 -105 -41.5 -178.5 q-32.5 -73.5 -85.5 -117.5 q-99 -82 -281 -82 l-104 263 l2 5 q57 -38 109.5 -38 q52.5 0 80 12 q27.5 12 46.5 38 q38 56 38 170 l2 604 q0 293 -178 293 q-133 0 -222 -136 l0 -571 Z" /><glyph glyph-name="Omacron" unicode="&#x14c;" d="M281 158 q-91 87 -143.5 209 q-52.5 122 -52.5 267.5 q0 145.5 49 275.5 q49 130 140 229 q91 99 220 157.5 q129 58.5 289 58.5 q276 0 465 -174 q202 -186 202 -502 q0 -306 -208 -509 q-128 -125 -305 -172 q-87 -23 -203.5 -23 q-116.5 0 -239 48 q-122.5 48 -213.5 135 ZM363 648 q0 -93 31 -171 q31 -78 86 -134 q117 -118 301 -118 q175 0 281 113 q108 117 108 319 q0 190 -103 317 q-111 136 -304 136 q-187 0 -297 -138 q-103 -129 -103 -324 ZM1111 1700 q-4 -50 -4 -76 l0 -34 q0 -8 4 -60 l-675 0 l3 26 q5 33 5 60 q0 27 -6 84 l673 0 Z" /><glyph glyph-name="omacron" unicode="&#x14d;" d="M71 517 q0 110 37.5 210.5 q37.5 100.5 107.5 175.5 q153 162 397 162 q243 0 386 -153 q137 -146 137 -379 q0 -233 -141 -386 q-149 -162 -395 -162 q-254 0 -398 159 q-131 145 -131 373 ZM314 523 q0 -63 21 -122 q21 -59 60 -101 q83 -91 218 -91 q125 0 197 89 q70 86 70 224 q0 140 -72 226 q-77 92 -211 92 q-136 0 -213 -98 q-70 -90 -70 -219 ZM936 1523 q-4 -50 -4 -76 l0 -34 q0 -8 4 -60 l-675 0 l3 26 q5 33 5 60 q0 27 -6 84 l673 0 Z" /><glyph glyph-name="Obreve" unicode="&#x14e;" d="M281 158 q-91 87 -143.5 209 q-52.5 122 -52.5 267.5 q0 145.5 49 275.5 q49 130 140 229 q91 99 220 157.5 q129 58.5 289 58.5 q276 0 465 -174 q202 -186 202 -502 q0 -306 -208 -509 q-128 -125 -305 -172 q-87 -23 -203.5 -23 q-116.5 0 -239 48 q-122.5 48 -213.5 135 ZM363 648 q0 -93 31 -171 q31 -78 86 -134 q117 -118 301 -118 q175 0 281 113 q108 117 108 319 q0 190 -103 317 q-111 136 -304 136 q-187 0 -297 -138 q-103 -129 -103 -324 ZM1112 1806 q10 -10 10 -68 q0 -58 -20.5 -114.5 q-20.5 -56.5 -63.5 -101.5 q-97 -101 -271 -101 q-174 0 -271 101 q-84 88 -84 215 q0 59 10 69 l133 -3 q10 -79 37 -117 q59 -84 175 -84 q116 0 171 78 q31 44 41 123 l133 3 Z" /><glyph glyph-name="obreve" unicode="&#x14f;" d="M71 517 q0 110 37.5 210.5 q37.5 100.5 107.5 175.5 q153 162 397 162 q243 0 386 -153 q137 -146 137 -379 q0 -233 -141 -386 q-149 -162 -395 -162 q-254 0 -398 159 q-131 145 -131 373 ZM314 523 q0 -63 21 -122 q21 -59 60 -101 q83 -91 218 -91 q125 0 197 89 q70 86 70 224 q0 140 -72 226 q-77 92 -211 92 q-136 0 -213 -98 q-70 -90 -70 -219 ZM943 1610 q10 -10 10 -68 q0 -58 -20.5 -114.5 q-20.5 -56.5 -63.5 -101.5 q-97 -101 -271 -101 q-174 0 -271 101 q-84 88 -84 215 q0 59 10 69 l133 -3 q10 -79 37 -117 q59 -84 175 -84 q116 0 171 78 q31 44 41 123 l133 3 Z" /><glyph glyph-name="Ohungarumlaut" unicode="&#x150;" d="M281 158 q-91 87 -143.5 209 q-52.5 122 -52.5 267.5 q0 145.5 49 275.5 q49 130 140 229 q91 99 220 157.5 q129 58.5 289 58.5 q276 0 465 -174 q202 -186 202 -502 q0 -306 -208 -509 q-128 -125 -305 -172 q-87 -23 -203.5 -23 q-116.5 0 -239 48 q-122.5 48 -213.5 135 ZM363 648 q0 -93 31 -171 q31 -78 86 -134 q117 -118 301 -118 q175 0 281 113 q108 117 108 319 q0 190 -103 317 q-111 136 -304 136 q-187 0 -297 -138 q-103 -129 -103 -324 ZM999 1808 q80 0 250 17 l-1 -7 l-262 -323 l-156 0 l169 313 ZM614 1808 q52 0 90 4 l140 13 l-1 -7 l-262 -323 l-136 0 l169 313 Z" /><glyph glyph-name="ohungarumlaut" unicode="&#x151;" d="M71 517 q0 110 37.5 210.5 q37.5 100.5 107.5 175.5 q153 162 397 162 q243 0 386 -153 q137 -146 137 -379 q0 -233 -141 -386 q-149 -162 -395 -162 q-254 0 -398 159 q-131 145 -131 373 ZM314 523 q0 -63 21 -122 q21 -59 60 -101 q83 -91 218 -91 q125 0 197 89 q70 86 70 224 q0 140 -72 226 q-77 92 -211 92 q-136 0 -213 -98 q-70 -90 -70 -219 ZM830 1503 q80 0 250 17 l-1 -7 l-262 -323 l-156 0 l169 313 ZM445 1503 q52 0 90 3 l140 14 l-1 -7 l-262 -323 l-136 0 l169 313 Z" /><glyph glyph-name="OE" unicode="&#x152;" d="M1181 143 q-189 -168 -436 -168 q-286 0 -477 183 q-196 187 -196 479 q0 296 190 502 q200 216 510 216 q236 0 409 -146 l0 128 q27 -2 59 -3 l68 -2 q68 -2 149 -2 q245 0 469 8 q-11 -88 -11 -235 q0 -16 2 -24 l-2 -3 q-53 15 -148 15 l-331 0 l0 -255 l292 0 q110 0 132 6 l3 -247 q-48 5 -124 5 l-303 0 l0 -360 l424 0 q62 0 86 12 l4 -1 l-10 -251 l-759 0 l0 143 ZM330 648 q0 -93 34.5 -172.5 q34.5 -79.5 93.5 -137.5 q125 -123 310 -123 q175 0 291 119 q122 126 122 323 q0 195 -123 325 q-123 128 -306 128 q-189 0 -309 -138 q-113 -131 -113 -324 Z" /><glyph glyph-name="oe" unicode="&#x153;" d="M1527 -15 q-312 0 -477 192 q-77 -90 -189 -141 q-112 -51 -249.5 -51 q-137.5 0 -241.5 46.5 q-104 46.5 -172 121.5 q-135 147 -135 359 q0 239 155 394 q159 159 424.5 159 q265.5 0 414.5 -188 q158 188 434 188 q214 0 349 -130 q140 -134 140 -353 q0 -58 -12 -106 q-111 -30 -417 -30 q0 0 -143 0 q-65 0 -119 2 l0 222 q41 -7 119.5 -7 q78.5 0 113 0.5 q34.5 0.5 72.5 1.5 q0 0 73 2 q36 1 64 3 q-37 114 -179 153 q-44 12 -97.5 12 q-53.5 0 -104 -20 q-50.5 -20 -88.5 -57 q-80 -78 -88 -202 l1 -36 l0 -12 q0 -5 2.5 -40 q2.5 -35 33.5 -86.5 q31 -51.5 82 -87.5 q105 -74 283 -74 q178 0 308 106 q-5 -111 -15 -263 q-80 -52 -245 -72 q-49 -6 -97 -6 ZM307 526 q0 -60 24.5 -116.5 q24.5 -56.5 66.5 -99.5 q90 -91 221 -91 q132 0 219 79 q92 83 92 218 q0 136 -86 227 q-86 92 -222 92 q-142 0 -232 -96 q-83 -88 -83 -213 Z" /><glyph glyph-name="Racute" unicode="&#x154;" d="M602 517 q-30 -2 -64 -2 q-34 0 -101 5 l0 -520 l-265 0 l0 1337 q140 18 344 18 q278 0 414.5 -102.5 q136.5 -102.5 136.5 -316.5 q0 -166 -125 -284 q-41 -38 -94 -66 l204 -430 q60 -133 92 -158 l-5 -5 q-97 16 -305 -1 l-232 525 ZM535 1119 q-51 0 -98 -5 l0 -382 q49 -7 115 -7 q66 0 111 11.5 q45 11.5 78 35.5 q71 53 71 159 q0 106 -74 149 q-69 39 -203 39 ZM618 1788 q150 0 320 17 l-1 -7 l-262 -323 l-226 0 l169 313 Z" /><glyph glyph-name="racute" unicode="&#x155;" d="M383 112 q0 -86 4 -112 l-249 0 l0 1045 l245 0 l0 -77 q85 97 178.5 97 q93.5 0 147.5 -23 l-18 -269 l-4 -3 q-35 62 -145 62 q-42 0 -85.5 -28.5 q-43.5 -28.5 -73.5 -75.5 l0 -616 ZM443 1503 q150 0 320 17 l-1 -7 l-262 -323 l-226 0 l169 313 Z" /><glyph glyph-name="Rcommaaccent" unicode="&#x156;" d="M602 517 q-30 -2 -64 -2 q-34 0 -101 5 l0 -520 l-265 0 l0 1337 q140 18 344 18 q278 0 414.5 -102.5 q136.5 -102.5 136.5 -316.5 q0 -166 -125 -284 q-41 -38 -94 -66 l204 -430 q60 -133 92 -158 l-5 -5 q-97 16 -305 -1 l-232 525 ZM535 1119 q-51 0 -98 -5 l0 -382 q49 -7 115 -7 q66 0 111 11.5 q45 11.5 78 35.5 q71 53 71 159 q0 106 -74 149 q-69 39 -203 39 ZM527 -607 q61 108 61 222 q0 114 -11 194 l249 40 l8 -51 q8 -56 8 -115.5 q0 -59.5 -6 -96 q-6 -36.5 -16 -62.5 q-24 -58 -82 -82 q-64 -26 -205 -55 l-6 6 Z" /><glyph glyph-name="rcommaaccent" unicode="&#x157;" d="M383 112 q0 -86 4 -112 l-249 0 l0 1045 l245 0 l0 -77 q85 97 178.5 97 q93.5 0 147.5 -23 l-18 -269 l-4 -3 q-35 62 -145 62 q-42 0 -85.5 -28.5 q-43.5 -28.5 -73.5 -75.5 l0 -616 ZM113 -607 q61 108 61 222 q0 114 -11 194 l249 40 l8 -51 q8 -56 8 -115.5 q0 -59.5 -6 -96 q-6 -36.5 -16 -62.5 q-24 -58 -82 -82 q-64 -26 -205 -55 l-6 6 Z" /><glyph glyph-name="Rcaron" unicode="&#x158;" d="M602 517 q-30 -2 -64 -2 q-34 0 -101 5 l0 -520 l-265 0 l0 1337 q140 18 344 18 q278 0 414.5 -102.5 q136.5 -102.5 136.5 -316.5 q0 -166 -125 -284 q-41 -38 -94 -66 l204 -430 q60 -133 92 -158 l-5 -5 q-97 16 -305 -1 l-232 525 ZM535 1119 q-51 0 -98 -5 l0 -382 q49 -7 115 -7 q66 0 111 11.5 q45 11.5 78 35.5 q71 53 71 159 q0 106 -74 149 q-69 39 -203 39 ZM685 1369 l-51 0 q-42 0 -66 -3 l-242 331 l3 3 q48 -3 263 -3 l97 -177 l113 177 l255 3 l4 -3 l-255 -331 l-121 3 Z" /><glyph glyph-name="rcaron" unicode="&#x159;" d="M383 112 q0 -86 4 -112 l-249 0 l0 1045 l245 0 l0 -77 q85 97 178.5 97 q93.5 0 147.5 -23 l-18 -269 l-4 -3 q-35 62 -145 62 q-42 0 -85.5 -28.5 q-43.5 -28.5 -73.5 -75.5 l0 -616 ZM451 1188 l-51 0 q-42 0 -66 -3 l-242 331 l3 3 q48 -3 263 -3 l97 -177 l113 177 l255 3 l4 -3 l-255 -331 l-121 3 Z" /><glyph glyph-name="Sacute" unicode="&#x15a;" d="M975 1256 l-19 -294 l-7 -2 q-74 111 -252 144 q-56 11 -107.5 11 q-51.5 0 -88 -9 q-36.5 -9 -62.5 -26 q-55 -36 -55 -94 q0 -76 48 -114 q60 -46 199 -64.5 q139 -18.5 223 -50.5 q84 -32 138 -81 q102 -92 102 -260 q0 -220 -166 -339 q-142 -102 -358 -102 q-174 0 -344 66 q-56 22 -98 51 l11 334 l4 3 q124 -214 407 -214 q201 0 266 97 q22 33 22 73.5 q0 40.5 -13 67 q-13 26.5 -43 45.5 q-58 38 -195 51 q-137 13 -224 49 q-87 36 -139 89 q-94 96 -94 268 q0 178 125 288 q127 112 342.5 112 q215.5 0 377.5 -99 ZM521 1788 q150 0 320 17 l-1 -7 l-262 -323 l-226 0 l169 313 Z" /><glyph glyph-name="sacute" unicode="&#x15b;" d="M499 -15 q-282 0 -425 103 q2 30 6 68 l9 72 q8 71 10 88.5 q2 17.5 3 19 q1 1.5 16 -16 q15 -17.5 57 -42.5 q42 -25 97 -44 q119 -41 248 -41 q173 0 173 115 q0 37 -33 55 q-59 30 -173.5 45.5 q-114.5 15.5 -187.5 45.5 q-73 30 -119 72 q-85 79 -85 207 q0 156 120 245 q119 88 329 88 q208 0 355 -118 q-7 -26 -15 -50 q-23 -66 -34 -95 l-23 -59 q-2 -8 -3 -8 q-2 0 -16 21 q-63 73 -196 96 q-41 8 -84 8 q-182 0 -182 -110 q0 -38 38 -58 q71 -38 194.5 -56 q123.5 -18 187.5 -48.5 q64 -30.5 103 -73.5 q72 -78 72 -207 q0 -141 -113 -229 q-118 -93 -329 -93 ZM497 1503 q150 0 320 17 l-1 -7 l-262 -323 l-226 0 l169 313 Z" /><glyph glyph-name="Scircumflex" unicode="&#x15c;" d="M975 1256 l-19 -294 l-7 -2 q-74 111 -252 144 q-56 11 -107.5 11 q-51.5 0 -88 -9 q-36.5 -9 -62.5 -26 q-55 -36 -55 -94 q0 -76 48 -114 q60 -46 199 -64.5 q139 -18.5 223 -50.5 q84 -32 138 -81 q102 -92 102 -260 q0 -220 -166 -339 q-142 -102 -358 -102 q-174 0 -344 66 q-56 22 -98 51 l11 334 l4 3 q124 -214 407 -214 q201 0 266 97 q22 33 22 73.5 q0 40.5 -13 67 q-13 26.5 -43 45.5 q-58 38 -195 51 q-137 13 -224 49 q-87 36 -139 89 q-94 96 -94 268 q0 178 125 288 q127 112 342.5 112 q215.5 0 377.5 -99 ZM495 1473 q-215 0 -263 -3 l-3 3 l242 331 q24 -3 66 -3 l51 0 l121 3 l255 -331 l-4 -3 l-255 3 l-113 177 l-97 -177 Z" /><glyph glyph-name="scircumflex" unicode="&#x15d;" d="M499 -15 q-282 0 -425 103 q2 30 6 68 l9 72 q8 71 10 88.5 q2 17.5 3 19 q1 1.5 16 -16 q15 -17.5 57 -42.5 q42 -25 97 -44 q119 -41 248 -41 q173 0 173 115 q0 37 -33 55 q-59 30 -173.5 45.5 q-114.5 15.5 -187.5 45.5 q-73 30 -119 72 q-85 79 -85 207 q0 156 120 245 q119 88 329 88 q208 0 355 -118 q-7 -26 -15 -50 q-23 -66 -34 -95 l-23 -59 q-2 -8 -3 -8 q-2 0 -16 21 q-63 73 -196 96 q-41 8 -84 8 q-182 0 -182 -110 q0 -38 38 -58 q71 -38 194.5 -56 q123.5 -18 187.5 -48.5 q64 -30.5 103 -73.5 q72 -78 72 -207 q0 -141 -113 -229 q-118 -93 -329 -93 ZM411 1188 q-215 0 -263 -3 l-3 3 l242 331 q24 -3 66 -3 l51 0 l121 3 l255 -331 l-4 -3 l-255 3 l-113 177 l-97 -177 Z" /><glyph glyph-name="Scedilla" unicode="&#x15e;" d="M715 -11 q9 -63 9 -143.5 q0 -80.5 -22.5 -135.5 q-22.5 -55 -51.5 -72 q-59 -38 -215 -70 l-6 6 q49 70 65 294 q5 60 5 111 q-159 14 -292 70 q-45 19 -79 43 l11 334 l4 3 q124 -214 407 -214 q201 0 266 97 q22 33 22 73.5 q0 40.5 -13 67 q-13 26.5 -43 45.5 q-58 38 -195 51 q-137 13 -224 49 q-87 36 -139 89 q-94 96 -94 268 q0 178 125 288 q127 112 342.5 112 q215.5 0 377.5 -99 l-19 -294 l-7 -2 q-74 111 -252 144 q-56 11 -107.5 11 q-51.5 0 -88 -9 q-36.5 -9 -62.5 -26 q-55 -36 -55 -94 q0 -76 48 -114 q60 -46 199 -64.5 q139 -18.5 223 -50.5 q84 -32 138 -81 q102 -92 102 -260 q0 -180 -113 -294 q-98 -100 -266 -133 Z" /><glyph glyph-name="scedilla" unicode="&#x15f;" d="M415 -12 q-220 13 -341 100 q2 30 6 68 l9 72 q8 71 10 88.5 q2 17.5 3 19 q1 1.5 16 -16 q15 -17.5 57 -42.5 q42 -25 97 -44 q119 -41 248 -41 q173 0 173 115 q0 37 -33 55 q-59 30 -173.5 45.5 q-114.5 15.5 -187.5 45.5 q-73 30 -119 72 q-85 79 -85 207 q0 156 120 245 q119 88 329 88 q208 0 355 -118 q-7 -26 -15 -50 q-23 -66 -34 -95 l-23 -59 q-2 -8 -3 -8 q-2 0 -16 21 q-63 73 -196 96 q-41 8 -84 8 q-182 0 -182 -110 q0 -38 38 -58 q71 -38 194.5 -56 q123.5 -18 187.5 -48.5 q64 -30.5 103 -73.5 q72 -78 72 -207 q0 -181 -176 -269 q-58 -29 -134 -42 q9 -68 9 -149.5 q0 -81.5 -22.5 -136.5 q-22.5 -55 -51.5 -72 q-59 -38 -215 -70 l-6 6 q48 70 65 302 q5 61 5 112 Z" /><glyph glyph-name="Scaron" unicode="&#x160;" d="M975 1256 l-19 -294 l-7 -2 q-74 111 -252 144 q-56 11 -107.5 11 q-51.5 0 -88 -9 q-36.5 -9 -62.5 -26 q-55 -36 -55 -94 q0 -76 48 -114 q60 -46 199 -64.5 q139 -18.5 223 -50.5 q84 -32 138 -81 q102 -92 102 -260 q0 -220 -166 -339 q-142 -102 -358 -102 q-174 0 -344 66 q-56 22 -98 51 l11 334 l4 3 q124 -214 407 -214 q201 0 266 97 q22 33 22 73.5 q0 40.5 -13 67 q-13 26.5 -43 45.5 q-58 38 -195 51 q-137 13 -224 49 q-87 36 -139 89 q-94 96 -94 268 q0 178 125 288 q127 112 342.5 112 q215.5 0 377.5 -99 ZM588 1369 l-51 0 q-42 0 -66 -3 l-242 331 l3 3 q48 -3 263 -3 l97 -177 l113 177 l255 3 l4 -3 l-255 -331 l-121 3 Z" /><glyph glyph-name="scaron" unicode="&#x161;" d="M499 -15 q-282 0 -425 103 q2 30 6 68 l9 72 q8 71 10 88.5 q2 17.5 3 19 q1 1.5 16 -16 q15 -17.5 57 -42.5 q42 -25 97 -44 q119 -41 248 -41 q173 0 173 115 q0 37 -33 55 q-59 30 -173.5 45.5 q-114.5 15.5 -187.5 45.5 q-73 30 -119 72 q-85 79 -85 207 q0 156 120 245 q119 88 329 88 q208 0 355 -118 q-7 -26 -15 -50 q-23 -66 -34 -95 l-23 -59 q-2 -8 -3 -8 q-2 0 -16 21 q-63 73 -196 96 q-41 8 -84 8 q-182 0 -182 -110 q0 -38 38 -58 q71 -38 194.5 -56 q123.5 -18 187.5 -48.5 q64 -30.5 103 -73.5 q72 -78 72 -207 q0 -141 -113 -229 q-118 -93 -329 -93 ZM504 1188 l-51 0 q-42 0 -66 -3 l-242 331 l3 3 q48 -3 263 -3 l97 -177 l113 177 l255 3 l4 -3 l-255 -331 l-121 3 Z" /><glyph glyph-name="Tcommaaccent" unicode="&#x162;" d="M652 -6 q-48 6 -247 6 l-32 0 l0 1106 l-198 0 q-88 0 -104 -9 q-16 -9 -25 -16 l-3 1 l0 256 l3 3 q33 -11 178 -11 l627 0 q88 0 104 9 q16 9 25 16 l3 -1 l0 -256 l-3 -3 q-33 11 -178 11 l-150 0 l0 -1112 ZM347 -607 q61 108 61 222 q0 114 -11 194 l249 40 l8 -51 q8 -56 8 -115.5 q0 -59.5 -6 -96 q-6 -36.5 -16 -62.5 q-24 -58 -82 -82 q-64 -26 -205 -55 l-6 6 Z" /><glyph glyph-name="tcommaaccent" unicode="&#x163;" d="M611 220 q129 0 177 67 l8 0 l3 -232 q-49 -49 -182 -65 q-36 -5 -89.5 -5 q-53.5 0 -116 20 q-62.5 20 -106.5 65 q-91 93 -91 291 l0 454 l-151 0 q-1 29 -1 59 l0 154 q0 17 1 17 l151 0 l0 285 l245 0 l0 -285 l275 0 l0 -230 l-275 0 l0 -408 q0 -157 87 -179 q28 -8 65 -8 ZM264 -607 q61 108 61 222 q0 114 -11 194 l249 40 l8 -51 q8 -56 8 -115.5 q0 -59.5 -6 -96 q-6 -36.5 -16 -62.5 q-24 -58 -82 -82 q-64 -26 -205 -55 l-6 6 Z" /><glyph glyph-name="Tcaron" unicode="&#x164;" d="M652 -6 q-48 6 -247 6 l-32 0 l0 1106 l-198 0 q-88 0 -104 -9 q-16 -9 -25 -16 l-3 1 l0 256 l3 3 q33 -11 178 -11 l627 0 q88 0 104 9 q16 9 25 16 l3 -1 l0 -256 l-3 -3 q-33 11 -178 11 l-150 0 l0 -1112 ZM505 1369 l-51 0 q-42 0 -66 -3 l-242 331 l3 3 q48 -3 263 -3 l97 -177 l113 177 l255 3 l4 -3 l-255 -331 l-121 3 Z" /><glyph glyph-name="tcaron" unicode="&#x165;" d="M611 220 q129 0 177 67 l8 0 l3 -232 q-49 -49 -182 -65 q-36 -5 -89.5 -5 q-53.5 0 -116 20 q-62.5 20 -106.5 65 q-91 93 -91 291 l0 454 l-151 0 q-1 29 -1 59 l0 154 q0 17 1 17 l151 0 l0 285 l245 0 l0 -285 l275 0 l0 -230 l-275 0 l0 -408 q0 -157 87 -179 q28 -8 65 -8 ZM1061 1445 q11 -105 11 -158.5 q0 -53.5 -3.5 -103.5 q-3.5 -50 -9.5 -90 q-15 -86 -36 -100 q-25 -16 -84 -27 l-111 -23 l-6 6 q16 28 16 180 l0 99 q0 102 -6 177 l229 40 Z" /><glyph glyph-name="Tbar" unicode="&#x166;" d="M652 -6 q-48 6 -247 6 l-32 0 l0 649 l-204 0 l3 26 q5 33 5 48.5 q0 15.5 -0.5 33.5 q-0.5 18 -1.5 35 l-2 32 q-1 16 -2 25 l202 0 l0 257 l-198 0 q-88 0 -104 -9 q-16 -9 -25 -16 l-3 1 l0 256 l3 3 q33 -11 178 -11 l627 0 q88 0 104 9 q16 9 25 16 l3 -1 l0 -256 l-3 -3 q-33 11 -178 11 l-150 0 l0 -257 l192 0 q-4 -50 -4 -91 l0 -51 q0 -6 4 -58 l-192 0 l0 -655 Z" /><glyph glyph-name="tbar" unicode="&#x167;" d="M611 220 q129 0 177 67 l8 0 l3 -232 q-49 -49 -182 -65 q-36 -5 -89.5 -5 q-53.5 0 -116 20 q-62.5 20 -106.5 65 q-91 93 -91 291 l0 116 l-160 0 l4 26 q4 33 4 48.5 q0 15.5 -0.5 33.5 q-0.5 18 -1.5 35 l-2 32 q-1 16 -2 25 l158 0 l0 138 l-151 0 q-1 29 -1 59 l0 154 q0 17 1 17 l151 0 l0 285 l245 0 l0 -285 l275 0 l0 -230 l-275 0 l0 -138 l270 0 q-4 -50 -4 -91 l0 -51 q0 -6 4 -58 l-270 0 l0 -70 q0 -157 87 -179 q28 -8 65 -8 Z" /><glyph glyph-name="Utilde" unicode="&#x168;" d="M930 1335 q62 -5 103 -5 l83 0 q42 0 88 8 l0 -827 q0 -246 -149 -395 q-141 -141 -354 -141 q-233 0 -377 121 q-161 136 -161 392 l0 847 q83 -5 156.5 -5 q73.5 0 121.5 8 l0 -863 q0 -126 77 -196 q72 -64 180 -64 q160 0 213 164 q19 59 19 146 l0 810 ZM520 1565 q-94 0 -167 -75 l-4 1 l-4 199 q68 80 185 80 q92 0 171 -54.5 q79 -54.5 163 -54.5 q119 0 156 84 l2 -2 l-10 -216 q-17 -30 -61 -49.5 q-44 -19.5 -92 -19.5 q-48 0 -77.5 8 q-29.5 8 -54.5 20 q-25 12 -46.5 25.5 q-21.5 13.5 -45.5 25.5 q-56 28 -115 28 Z" /><glyph glyph-name="utilde" unicode="&#x169;" d="M773 91 q-128 -106 -279 -106 q-162 0 -254 109 q-88 106 -88 291 l0 397 q0 200 -8.5 229.5 q-8.5 29.5 -12.5 37.5 q46 -4 96 -4 l83 0 q33 0 87 3 l0 -579 q0 -206 112 -239 q34 -10 74 -10 q118 0 190 86 l0 739 l248 0 l0 -917 q0 -88 8 -128 l-256 0 l0 91 ZM407 1280 q-94 0 -167 -75 l-4 1 l-4 199 q68 80 185 80 q92 0 171 -54.5 q79 -54.5 163 -54.5 q119 0 156 84 l2 -2 l-10 -216 q-17 -30 -61 -49.5 q-44 -19.5 -92 -19.5 q-48 0 -77.5 8 q-29.5 8 -54.5 20 q-25 12 -46.5 25.5 q-21.5 13.5 -45.5 25.5 q-56 28 -115 28 Z" /><glyph glyph-name="Umacron" unicode="&#x16a;" d="M930 1335 q62 -5 103 -5 l83 0 q42 0 88 8 l0 -827 q0 -246 -149 -395 q-141 -141 -354 -141 q-233 0 -377 121 q-161 136 -161 392 l0 847 q83 -5 156.5 -5 q73.5 0 121.5 8 l0 -863 q0 -126 77 -196 q72 -64 180 -64 q160 0 213 164 q19 59 19 146 l0 810 ZM1027 1700 q-4 -50 -4 -76 l0 -34 q0 -8 4 -60 l-675 0 l3 26 q5 33 5 60 q0 27 -6 84 l673 0 Z" /><glyph glyph-name="umacron" unicode="&#x16b;" d="M773 91 q-128 -106 -279 -106 q-162 0 -254 109 q-88 106 -88 291 l0 397 q0 200 -8.5 229.5 q-8.5 29.5 -12.5 37.5 q46 -4 96 -4 l83 0 q33 0 87 3 l0 -579 q0 -206 112 -239 q34 -10 74 -10 q118 0 190 86 l0 739 l248 0 l0 -917 q0 -88 8 -128 l-256 0 l0 91 ZM908 1523 q-4 -50 -4 -76 l0 -34 q0 -8 4 -60 l-675 0 l3 26 q5 33 5 60 q0 27 -6 84 l673 0 Z" /><glyph glyph-name="Ubreve" unicode="&#x16c;" d="M930 1335 q62 -5 103 -5 l83 0 q42 0 88 8 l0 -827 q0 -246 -149 -395 q-141 -141 -354 -141 q-233 0 -377 121 q-161 136 -161 392 l0 847 q83 -5 156.5 -5 q73.5 0 121.5 8 l0 -863 q0 -126 77 -196 q72 -64 180 -64 q160 0 213 164 q19 59 19 146 l0 810 ZM1028 1806 q10 -10 10 -68 q0 -58 -20.5 -114.5 q-20.5 -56.5 -63.5 -101.5 q-97 -101 -271 -101 q-174 0 -271 101 q-84 88 -84 215 q0 59 10 69 l133 -3 q10 -79 37 -117 q59 -84 175 -84 q116 0 171 78 q31 44 41 123 l133 3 Z" /><glyph glyph-name="ubreve" unicode="&#x16d;" d="M773 91 q-128 -106 -279 -106 q-162 0 -254 109 q-88 106 -88 291 l0 397 q0 200 -8.5 229.5 q-8.5 29.5 -12.5 37.5 q46 -4 96 -4 l83 0 q33 0 87 3 l0 -579 q0 -206 112 -239 q34 -10 74 -10 q118 0 190 86 l0 739 l248 0 l0 -917 q0 -88 8 -128 l-256 0 l0 91 ZM915 1610 q10 -10 10 -68 q0 -58 -20.5 -114.5 q-20.5 -56.5 -63.5 -101.5 q-97 -101 -271 -101 q-174 0 -271 101 q-84 88 -84 215 q0 59 10 69 l133 -3 q10 -79 37 -117 q59 -84 175 -84 q116 0 171 78 q31 44 41 123 l133 3 Z" /><glyph glyph-name="Uring" unicode="&#x16e;" d="M930 1335 q62 -5 103 -5 l83 0 q42 0 88 8 l0 -827 q0 -246 -149 -395 q-141 -141 -354 -141 q-233 0 -377 121 q-161 136 -161 392 l0 847 q83 -5 156.5 -5 q73.5 0 121.5 8 l0 -863 q0 -126 77 -196 q72 -64 180 -64 q160 0 213 164 q19 59 19 146 l0 810 ZM677 1367 q-61 0 -111 16 q-50 16 -86 46 q-76 63 -76 172 q0 107 75 173 q76 69 212 69 q120 0 196 -69 q75 -67 75 -168 q0 -110 -80 -175 q-78 -64 -205 -64 ZM593 1537.5 q15 -13.5 38 -21.5 q23 -8 49.5 -8 q26.5 0 47.5 7.5 q21 7.5 37 20.5 q35 30 35 59.5 q0 29.5 -7.5 47 q-7.5 17.5 -22.5 31.5 q-34 33 -77.5 33 q-43.5 0 -65.5 -9 q-22 -9 -36 -24 q-28 -27 -28 -57 q0 -30 7.5 -48 q7.5 -18 22.5 -31.5 Z" /><glyph glyph-name="uring" unicode="&#x16f;" d="M773 91 q-128 -106 -279 -106 q-162 0 -254 109 q-88 106 -88 291 l0 397 q0 200 -8.5 229.5 q-8.5 29.5 -12.5 37.5 q46 -4 96 -4 l83 0 q33 0 87 3 l0 -579 q0 -206 112 -239 q34 -10 74 -10 q118 0 190 86 l0 739 l248 0 l0 -917 q0 -88 8 -128 l-256 0 l0 91 ZM564 1180 q-61 0 -111 16 q-50 16 -86 46 q-76 63 -76 172 q0 107 75 174 q76 68 212 68 q120 0 196 -69 q75 -67 75 -168 q0 -110 -80 -175 q-78 -64 -205 -64 ZM480 1350.5 q15 -13.5 38 -21.5 q23 -8 49.5 -8 q26.5 0 47.5 7.5 q21 7.5 37 21.5 q35 29 35 58.5 q0 29.5 -7.5 47 q-7.5 17.5 -22.5 32.5 q-34 32 -77.5 32 q-43.5 0 -65.5 -9 q-22 -9 -36 -23 q-28 -28 -28 -58 q0 -30 7.5 -48 q7.5 -18 22.5 -31.5 Z" /><glyph glyph-name="Uhungarumlaut" unicode="&#x170;" d="M930 1335 q62 -5 103 -5 l83 0 q42 0 88 8 l0 -827 q0 -246 -149 -395 q-141 -141 -354 -141 q-233 0 -377 121 q-161 136 -161 392 l0 847 q83 -5 156.5 -5 q73.5 0 121.5 8 l0 -863 q0 -126 77 -196 q72 -64 180 -64 q160 0 213 164 q19 59 19 146 l0 810 ZM915 1808 q80 0 250 17 l-1 -7 l-262 -323 l-156 0 l169 313 ZM530 1808 q52 0 90 4 l140 13 l-1 -7 l-262 -323 l-136 0 l169 313 Z" /><glyph glyph-name="uhungarumlaut" unicode="&#x171;" d="M773 91 q-128 -106 -279 -106 q-162 0 -254 109 q-88 106 -88 291 l0 397 q0 200 -8.5 229.5 q-8.5 29.5 -12.5 37.5 q46 -4 96 -4 l83 0 q33 0 87 3 l0 -579 q0 -206 112 -239 q34 -10 74 -10 q118 0 190 86 l0 739 l248 0 l0 -917 q0 -88 8 -128 l-256 0 l0 91 ZM802 1503 q80 0 250 17 l-1 -7 l-262 -323 l-156 0 l169 313 ZM417 1503 q52 0 90 3 l140 14 l-1 -7 l-262 -323 l-136 0 l169 313 Z" /><glyph glyph-name="Uogonek" unicode="&#x172;" d="M893 -323 q37 0 59 16 l2 -5 l-54 -243 q-174 0 -300 67 q-153 82 -153 242 q0 127 110 235 q-276 57 -363 301 q-31 86 -31 198 l0 847 q83 -5 156.5 -5 q73.5 0 121.5 8 l0 -863 q0 -126 77 -196 q72 -64 180 -64 q160 0 213 164 q19 59 19 146 l0 810 q62 -5 103 -5 l61 0 q64 0 110 8 l0 -827 q0 -249 -151 -397 q-47 -46 -76.5 -62.5 q-29.5 -16.5 -36.5 -19.5 l-20 -10 q-13 -7 -40 -20 q-27 -13 -63.5 -39 q-36.5 -26 -64.5 -55 q-60 -65 -60 -126 q0 -105 201 -105 Z" /><glyph glyph-name="uogonek" unicode="&#x173;" d="M652 15 q-71 -30 -155.5 -30 q-84.5 0 -148.5 28.5 q-64 28.5 -108 80.5 q-88 106 -88 291 l0 397 q0 200 -8.5 229.5 q-8.5 29.5 -12.5 37.5 q46 -4 96 -4 l83 0 q33 0 87 3 l0 -579 q0 -206 112 -239 q34 -10 74 -10 q118 0 190 86 l0 739 l248 0 l0 -917 q0 -88 8 -128 l-14 0 l2 -3 q-108 0 -187 -69 q-72 -65 -72 -146 q0 -105 201 -105 q37 0 59 16 l2 -5 l-74 -243 q-283 0 -393 162 q-40 59 -40 133 q0 158 139 275 Z" /><glyph glyph-name="Wcircumflex" unicode="&#x174;" d="M648 -4 q-30 4 -102 4 l-116 0 q-34 0 -56 -2 l-1 2 q4 7 4 16 q0 9 -1.5 19 q-1.5 10 -8 36 q-6.5 26 -19.5 75 l-340 1188 q64 -4 155 -4 q91 0 118 8 l236 -905 l230 901 q15 -1 27 -2 l22 0 q33 -2 83 -2 q50 0 103 8 l234 -905 l201 901 q60 -4 157 -4 q97 0 118 8 l-288 -1055 q-55 -182 -58 -216 q-3 -34 -3 -47 q0 -13 4 -21 l-2 -3 q-32 4 -101 4 q-60 0 -109 0 q-49 0 -71 -2 l-1 2 q4 7 4 16 q0 9 -1 18 q-1 9 -5.5 34.5 q-4.5 25.5 -14.5 75.5 l-27 136 l-164 623 l-156 -620 q-48 -191 -50 -220 q-4 -55 1 -64 l-2 -3 ZM754 1473 q-215 0 -263 -3 l-3 3 l242 331 q24 -3 66 -3 l51 0 l121 3 l255 -331 l-4 -3 l-255 3 l-113 177 l-97 -177 Z" /><glyph glyph-name="wcircumflex" unicode="&#x175;" d="M7 1045 l269 0 l186 -751 l200 751 l230 0 l207 -767 l186 767 l242 0 l-308 -1045 l-259 0 l-198 685 l-184 -685 l-257 0 l-314 1045 ZM666 1188 q-215 0 -263 -3 l-3 3 l242 331 q24 -3 66 -3 l51 0 l121 3 l255 -331 l-4 -3 l-255 3 l-113 177 l-97 -177 Z" /><glyph glyph-name="Ycircumflex" unicode="&#x176;" d="M451 0 q13 39 13 182 l0 278 q-173 381 -221 475.5 q-48 94.5 -81 149.5 q-104 176 -125.5 202 q-21.5 26 -43.5 43 l345 0 q11 -20 30 -59 l242 -511 q17 42 40 94 q218 469 221 476 l330 0 q-51 -41 -125 -172 q-23 -39 -46 -89 l-226 -471 q-38 -85 -65 -153 l0 -287 q0 -100 12 -158 l-300 0 ZM495 1473 q-215 0 -263 -3 l-3 3 l242 331 q24 -3 66 -3 l51 0 l121 3 l255 -331 l-4 -3 l-255 3 l-113 177 l-97 -177 Z" /><glyph glyph-name="ycircumflex" unicode="&#x177;" d="M51 -348 l66 53 q149 121 247 357 l46 111 l-383 872 l280 0 l240 -604 l223 604 l288 0 q-52 -72 -127 -268 l-150 -371 q-301 -708 -472 -844 l-258 90 ZM468 1188 q-215 0 -263 -3 l-3 3 l242 331 q24 -3 66 -3 l51 0 l121 3 l255 -331 l-4 -3 l-255 3 l-113 177 l-97 -177 Z" /><glyph glyph-name="Ydieresis" unicode="&#x178;" d="M451 0 q13 39 13 182 l0 278 q-173 381 -221 475.5 q-48 94.5 -81 149.5 q-104 176 -125.5 202 q-21.5 26 -43.5 43 l345 0 q11 -20 30 -59 l242 -511 q17 42 40 94 q218 469 221 476 l330 0 q-51 -41 -125 -172 q-23 -39 -46 -89 l-226 -471 q-38 -85 -65 -153 l0 -287 q0 -100 12 -158 l-300 0 ZM944 1715 q-4 -50 -4 -127.5 q0 -77.5 4 -112.5 l-265 0 q8 62 8 122.5 q0 60.5 -6 117.5 l263 0 ZM514 1715 q-4 -50 -4 -127.5 q0 -77.5 4 -112.5 l-265 0 q8 62 8 122.5 q0 60.5 -6 117.5 l263 0 Z" /><glyph glyph-name="Zacute" unicode="&#x179;" d="M143 1240 q0 33 -3 90 l948 0 l-582 -1090 l363 0 q142 0 167.5 8.5 q25.5 8.5 40.5 15.5 l0 -279 q-43 4 -71 7 q-28 3 -59 5 q-47 3 -182 3 l-673 0 l602 1090 l-315 0 q-195 0 -248 -21 q12 50 12 141 l0 30 ZM515 1788 q150 0 320 17 l-1 -7 l-262 -323 l-226 0 l169 313 Z" /><glyph glyph-name="zacute" unicode="&#x17a;" d="M145 998 l-2 47 l845 0 l-510 -845 l393 0 q88 0 119 25 l-66 -240 q-44 3 -106 5 l-124 6 q-115 4 -217 4 q-226 0 -421 -15 l523 864 l-248 0 q-116 0 -190 -26 q4 78 4 121 l0 54 ZM497 1503 q150 0 320 17 l-1 -7 l-262 -323 l-226 0 l169 313 Z" /><glyph glyph-name="Zdotaccent" unicode="&#x17b;" d="M143 1240 q0 33 -3 90 l948 0 l-582 -1090 l363 0 q142 0 167.5 8.5 q25.5 8.5 40.5 15.5 l0 -279 q-43 4 -71 7 q-28 3 -59 5 q-47 3 -182 3 l-673 0 l602 1090 l-315 0 q-195 0 -248 -21 q12 50 12 141 l0 30 ZM420 1618 q65 104 149 196 l191 -151 q-50 -64 -68 -88 l-35 -49 q-17 -23 -36 -52 l-201 144 Z" /><glyph glyph-name="zdotaccent" unicode="&#x17c;" d="M145 998 l-2 47 l845 0 l-510 -845 l393 0 q88 0 119 25 l-66 -240 q-44 3 -106 5 l-124 6 q-115 4 -217 4 q-226 0 -421 -15 l523 864 l-248 0 q-116 0 -190 -26 q4 78 4 121 l0 54 ZM342 1336 q65 104 149 196 l191 -151 q-50 -64 -68 -88 l-35 -49 q-17 -23 -36 -52 l-201 144 Z" /><glyph glyph-name="Zcaron" unicode="&#x17d;" d="M143 1240 q0 33 -3 90 l948 0 l-582 -1090 l363 0 q142 0 167.5 8.5 q25.5 8.5 40.5 15.5 l0 -279 q-43 4 -71 7 q-28 3 -59 5 q-47 3 -182 3 l-673 0 l602 1090 l-315 0 q-195 0 -248 -21 q12 50 12 141 l0 30 ZM582 1369 l-51 0 q-42 0 -66 -3 l-242 331 l3 3 q48 -3 263 -3 l97 -177 l113 177 l255 3 l4 -3 l-255 -331 l-121 3 Z" /><glyph glyph-name="zcaron" unicode="&#x17e;" d="M145 998 l-2 47 l845 0 l-510 -845 l393 0 q88 0 119 25 l-66 -240 q-44 3 -106 5 l-124 6 q-115 4 -217 4 q-226 0 -421 -15 l523 864 l-248 0 q-116 0 -190 -26 q4 78 4 121 l0 54 ZM504 1188 l-51 0 q-42 0 -66 -3 l-242 331 l3 3 q48 -3 263 -3 l97 -177 l113 177 l255 3 l4 -3 l-255 -331 l-121 3 Z" /><glyph glyph-name="florin" unicode="&#x192;" d="M846 1217 q-33 38 -95.5 38 q-62.5 0 -106 -19.5 q-43.5 -19.5 -76.5 -55.5 q-67 -73 -79 -197 l-6 -53 l276 0 q-10 -21 -23 -146 l-9 -88 l-270 0 l-96 -866 l-245 0 l97 866 l-124 0 l24 234 l126 0 q44 394 317 515 q91 40 190 40 q99 0 127 -12 l-25 -251 l-2 -5 Z" /><glyph glyph-name="AEacute" unicode="&#x1fc;" d="M279 -8 q-108 8 -215 8 l-79 0 l702 1219 l33 55 q17 26 17 38.5 q0 12.5 -2 18.5 l1 2 q64 -3 138 -3 l209 0 q61 0 119 0 l119 2 q131 1 267 6 q-11 -88 -11 -235 q0 -16 2 -24 l-2 -3 q-53 15 -148 15 l-331 0 l0 -255 l262 0 q110 0 132 6 l3 -247 q-48 5 -124 5 l-273 0 l0 -360 l424 0 q62 0 86 12 l4 -1 l-10 -251 l-759 0 l2 288 l-407 0 l-159 -296 ZM847 528 l4 529 l-284 -529 l280 0 ZM1030 1788 q150 0 320 17 l-1 -7 l-262 -323 l-226 0 l169 313 Z" /><glyph glyph-name="aeacute" unicode="&#x1fd;" d="M892 104 q-154 -119 -369 -119 q-183 0 -292 99 q-106 97 -106 248 q0 165 149 276 q152 113 380 113 q30 0 47 -3 q-37 141 -211 141 q-117 0 -216 -83 q-31 -26 -54 -57 l-3 2 l-30 231 q143 113 354.5 113 q211.5 0 329.5 -149 q153 149 407 149 q202 0 340 -135 q139 -135 139 -348 q0 -58 -12 -106 q-111 -30 -417 -30 q-94 0 -166.5 0 q-72.5 0 -121 0.5 q-48.5 0.5 -81.5 0.5 q26 -108 123 -167.5 q97 -59.5 273 -59.5 q176 0 306 106 q-5 -111 -15 -263 q-80 -52 -244 -72 q-50 -6 -98 -6 q-257 0 -412 119 ZM978 666 q27 -1 64 -2 l73 0 q37 -1 71 -1 l54 0 q56 0 112 1 l92 3 q36 1 64 3 q-34 114 -170 153 q-43 12 -89.5 12 q-46.5 0 -87 -12 q-40.5 -12 -75.5 -33 q-71 -44 -108 -124 ZM765 271 q-58 98 -58 241 q-20 3 -68 3 q-48 0 -101.5 -12 q-53.5 -12 -91.5 -33 q-76 -44 -76 -115 q0 -71 48.5 -113.5 q48.5 -42.5 122.5 -42.5 q138 0 224 72 ZM905 1503 q150 0 320 17 l-1 -7 l-262 -323 l-226 0 l169 313 Z" /><glyph glyph-name="Scommaaccent" unicode="&#x218;" d="M975 1256 l-19 -294 l-7 -2 q-74 111 -252 144 q-56 11 -107.5 11 q-51.5 0 -88 -9 q-36.5 -9 -62.5 -26 q-55 -36 -55 -94 q0 -76 48 -114 q60 -46 199 -64.5 q139 -18.5 223 -50.5 q84 -32 138 -81 q102 -92 102 -260 q0 -220 -166 -339 q-142 -102 -358 -102 q-174 0 -344 66 q-56 22 -98 51 l11 334 l4 3 q124 -214 407 -214 q201 0 266 97 q22 33 22 73.5 q0 40.5 -13 67 q-13 26.5 -43 45.5 q-58 38 -195 51 q-137 13 -224 49 q-87 36 -139 89 q-94 96 -94 268 q0 178 125 288 q127 112 342.5 112 q215.5 0 377.5 -99 ZM430 -607 q61 108 61 222 q0 114 -11 194 l249 40 l8 -51 q8 -56 8 -115.5 q0 -59.5 -6 -96 q-6 -36.5 -16 -62.5 q-24 -58 -82 -82 q-64 -26 -205 -55 l-6 6 Z" /><glyph glyph-name="scommaaccent" unicode="&#x219;" d="M499 -15 q-282 0 -425 103 q2 30 6 68 l9 72 q8 71 10 88.5 q2 17.5 3 19 q1 1.5 16 -16 q15 -17.5 57 -42.5 q42 -25 97 -44 q119 -41 248 -41 q173 0 173 115 q0 37 -33 55 q-59 30 -173.5 45.5 q-114.5 15.5 -187.5 45.5 q-73 30 -119 72 q-85 79 -85 207 q0 156 120 245 q119 88 329 88 q208 0 355 -118 q-7 -26 -15 -50 q-23 -66 -34 -95 l-23 -59 q-2 -8 -3 -8 q-2 0 -16 21 q-63 73 -196 96 q-41 8 -84 8 q-182 0 -182 -110 q0 -38 38 -58 q71 -38 194.5 -56 q123.5 -18 187.5 -48.5 q64 -30.5 103 -73.5 q72 -78 72 -207 q0 -141 -113 -229 q-118 -93 -329 -93 ZM346 -607 q61 108 61 222 q0 114 -11 194 l249 40 l8 -51 q8 -56 8 -115.5 q0 -59.5 -6 -96 q-6 -36.5 -16 -62.5 q-24 -58 -82 -82 q-64 -26 -205 -55 l-6 6 Z" /><glyph glyph-name="dotlessj" unicode="&#x237;" d="M-14 -155 q146 0 146 220 l0 980 l245 0 l0 -908 q0 -420 -239 -497 q-78 -25 -177 -25 l-104 263 l2 5 q57 -38 127 -38 Z" /><glyph glyph-name="circumflex" unicode="&#x2c6;" d="M363 1188 q-215 0 -263 -3 l-3 3 l242 331 q24 -3 66 -3 l51 0 l121 3 l255 -331 l-4 -3 l-255 3 l-113 177 l-97 -177 Z" /><glyph glyph-name="caron" unicode="&#x2c7;" d="M498 1188 l-51 0 q-42 0 -66 -3 l-242 331 l3 3 q48 -3 263 -3 l97 -177 l113 177 l255 3 l4 -3 l-255 -331 l-121 3 Z" /><glyph glyph-name="breve" unicode="&#x2d8;" d="M852 1610 q10 -10 10 -68 q0 -58 -20.5 -114.5 q-20.5 -56.5 -63.5 -101.5 q-97 -101 -271 -101 q-174 0 -271 101 q-84 88 -84 215 q0 59 10 69 l133 -3 q10 -79 37 -117 q59 -84 175 -84 q116 0 171 78 q31 44 41 123 l133 3 Z" /><glyph glyph-name="dotaccent" unicode="&#x2d9;" d="M169 1336 q65 104 149 196 l191 -151 q-50 -64 -68 -88 l-35 -49 q-17 -23 -36 -52 l-201 144 Z" /><glyph glyph-name="ring" unicode="&#x2da;" d="M370 1180 q-61 0 -111 16 q-50 16 -86 46 q-76 63 -76 172 q0 107 75 174 q76 68 212 68 q120 0 196 -69 q75 -67 75 -168 q0 -110 -80 -175 q-78 -64 -205 -64 ZM286 1350.5 q15 -13.5 38 -21.5 q23 -8 49.5 -8 q26.5 0 47.5 7.5 q21 7.5 37 21.5 q35 29 35 58.5 q0 29.5 -7.5 47 q-7.5 17.5 -22.5 32.5 q-34 32 -77.5 32 q-43.5 0 -65.5 -9 q-22 -9 -36 -23 q-28 -28 -28 -58 q0 -30 7.5 -48 q7.5 -18 22.5 -31.5 Z" /><glyph glyph-name="ogonek" unicode="&#x2db;" d="M446.5 -300 q26.5 -13 58.5 -18 q32 -5 66 -5 q34 0 56 16 l2 -5 l-104 -243 q-177 0 -270 51 q-123 69 -123 228 q0 98 68 200 q27 40 69 76 l116 40 l139 -40 q-60 -36 -103 -116 q-34 -62 -34 -95.5 q0 -33.5 16.5 -54.5 q16.5 -21 43 -34 Z" /><glyph glyph-name="tilde" unicode="&#x2dc;" d="M291 1280 q-94 0 -167 -75 l-4 1 l-4 199 q68 80 185 80 q92 0 171 -54.5 q79 -54.5 163 -54.5 q119 0 156 84 l2 -2 l-10 -216 q-17 -30 -61 -49.5 q-44 -19.5 -92 -19.5 q-48 0 -77.5 8 q-29.5 8 -54.5 20 q-25 12 -46.5 25.5 q-21.5 13.5 -45.5 25.5 q-56 28 -115 28 Z" /><glyph glyph-name="hungarumlaut" unicode="&#x2dd;" d="M756 1503 q80 0 250 17 l-1 -7 l-262 -323 l-156 0 l169 313 ZM371 1503 q52 0 90 3 l140 14 l-1 -7 l-262 -323 l-136 0 l169 313 Z" /><glyph glyph-name="Delta" unicode="&#x394;&#x2206;" d="M615 1415 l214 0 l548 -1415 l-1230 0 l468 1415 ZM499 238 l508 0 l-281 762 l-227 -762 Z" /><glyph glyph-name="Omega" unicode="&#x3a9;&#x2126;" d="M627 230.5 q24 -67.5 24 -126.5 q0 -59 -28 -119 l-463 0 l3 237 q23 -6 132 -6 l80 0 q-23 46 -58.5 93.5 q-35.5 47.5 -68.5 108.5 q-82 150 -82 345 q0 267 154 422 q151 153 414 153 q242 0 392.5 -160 q150.5 -160 150.5 -415 q0 -246 -123 -455 q-28 -46 -43 -92 q67 0 146.5 0 q79.5 0 103.5 6 l3 -237 l-477 0 q-30 76 -30 144 q0 68 11.5 116.5 q11.5 48.5 28 95 q16.5 46.5 36.5 92 q20 45.5 37 91.5 q39 112 39 209 q0 97 -21 170 q-21 73 -59 117 q-69 78 -208 78 q-310 0 -310 -378 q0 -115 120 -306 q72 -116 96 -183.5 Z" /><glyph glyph-name="pi" unicode="&#x3c0;" d="M1062 112 q0 -86 4 -112 l-249 0 l0 834 l-262 0 q-21 -561 -129 -776 q-15 -31 -25 -42.5 q-10 -11.5 -10 -15.5 l-248 0 q133 302 157 622 q7 100 10 212 l-177 0 l3 26 q5 33 5 81.5 q0 48.5 -6 102.5 l1110 0 q-4 -50 -4 -96 l0 -56 q0 -6 4 -58 l-183 0 l0 -722 Z" /><glyph glyph-name="uni1E02" unicode="&#x1e02;" d="M1012.5 97.5 q-73.5 -58.5 -190.5 -90.5 q-117 -32 -287.5 -32 q-170.5 0 -362.5 31 l0 1318 q194 31 336.5 31 q142.5 0 234 -27 q91.5 -27 149.5 -73 q114 -89 114 -230.5 q0 -141.5 -103 -234.5 q122 -38 189 -144 q61 -95 61 -210.5 q0 -115.5 -33.5 -197.5 q-33.5 -82 -107 -140.5 ZM437 827 q42 -7 105 -7 q63 0 103.5 16.5 q40.5 16.5 62.5 41.5 q36 41 36 114 q0 153 -180 153 q-76 0 -127 -6 l0 -312 ZM585 613 q-84 0 -148 -11 l0 -393 q70 -18 147 -18 q77 0 135.5 18.5 q58.5 18.5 98.5 50.5 q81 66 81 168 q0 185 -314 185 ZM517 1618 q65 104 149 196 l191 -151 q-50 -64 -68 -88 l-35 -49 q-17 -23 -36 -52 l-201 144 Z" /><glyph glyph-name="uni1E03" unicode="&#x1e03;" d="M397 1007 q112 58 229 58 q117 0 201.5 -36.5 q84.5 -36.5 148.5 -104.5 q139 -151 139 -382 q0 -253 -151 -408 q-145 -149 -361 -149 q-190 0 -313 99 q-138 112 -138 309 l0 1095 l245 0 l0 -481 ZM397 396 q0 -176 219 -176 q107 0 180 94 q74 96 74 239 q0 144 -78 217 q-70 65 -188 65 q-71 0 -157 -48 q-27 -15 -50 -33 l0 -358 ZM533 1336 q65 104 149 196 l191 -151 q-50 -64 -68 -88 l-35 -49 q-17 -23 -36 -52 l-201 144 Z" /><glyph glyph-name="uni1E0A" unicode="&#x1e0a;" d="M496 -25 q-162 0 -305 26 l0 1338 q132 16 306.5 16 q174.5 0 316 -47.5 q141.5 -47.5 236.5 -135.5 q192 -176 192 -493 q0 -355 -214 -539 q-192 -165 -532 -165 ZM451 219 q65 -12 130 -12 q65 0 140 25.5 q75 25.5 130 79.5 q118 114 118 332 q0 358 -261 440 q-86 27 -199 27 l-27 0 q-15 0 -31 -1 l0 -891 ZM550 1618 q65 104 149 196 l191 -151 q-50 -64 -68 -88 l-35 -49 q-17 -23 -36 -52 l-201 144 Z" /><glyph glyph-name="uni1E0B" unicode="&#x1e0b;" d="M864 56 q-127 -71 -254 -71 q-127 0 -222 40 q-95 40 -162 110 q-138 144 -138 374 q0 238 160 396 q161 160 412 160 q77 0 151 -20 l0 445 l245 0 l0 -1069 q0 -133 12.5 -174 q12.5 -41 28 -60 q15.5 -19 39.5 -36 l-188 -166 q-52 28 -84 71 ZM657 215 q84 0 154 32 l0 554 q-70 29 -152 29 q-82 0 -140.5 -22 q-58.5 -22 -100.5 -61 q-88 -82 -88 -213 q0 -143 80 -228 q86 -91 247 -91 ZM340 1336 q65 104 149 196 l191 -151 q-50 -64 -68 -88 l-35 -49 q-17 -23 -36 -52 l-201 144 Z" /><glyph glyph-name="uni1E1E" unicode="&#x1e1e;" d="M873 575 q-48 5 -124 5 l-303 0 l0 -580 l-274 0 l0 1337 q27 -2 62 -3 l74 -2 q76 -2 158 -2 q246 0 470 8 q-11 -88 -11 -235 q0 -16 2 -24 l-2 -3 q-53 15 -148 15 l-331 0 l0 -275 l292 0 q110 0 132 6 l3 -247 ZM404 1618 q65 104 149 196 l191 -151 q-50 -64 -68 -88 l-35 -49 q-17 -23 -36 -52 l-201 144 Z" /><glyph glyph-name="uni1E1F" unicode="&#x1e1f;" d="M646 930 q-8 -29 -8 -146 l0 -88 l-241 0 l0 -696 l-245 0 l0 696 l-147 0 q1 66 2 117 l2 107 l0 10 l143 0 l0 62 q0 240 112 386 q117 151 322 151 q87 0 115 -12 l1 -251 l-2 -5 q-38 38 -96.5 38 q-58.5 0 -94.5 -19.5 q-36 -19.5 -61 -55.5 q-51 -72 -51 -197 l0 -97 l249 0 ZM34 1633 q65 104 149 196 l191 -151 q-50 -64 -68 -88 l-35 -49 q-17 -23 -36 -52 l-201 144 Z" /><glyph glyph-name="uni1E40" unicode="&#x1e40;" d="M442 -6 q-48 6 -185 6 l-80 0 l0 1334 q64 -4 141 -4 q77 0 109 8 l336 -571 l323 571 q32 -8 122 -8 q90 0 154 4 l0 -1334 l-80 0 q-137 0 -185 -6 l0 896 l-327 -585 l-328 538 l0 -849 ZM599 1618 q65 104 149 196 l191 -151 q-50 -64 -68 -88 l-35 -49 q-17 -23 -36 -52 l-201 144 Z" /><glyph glyph-name="uni1E41" unicode="&#x1e41;" d="M417 289 q0 -225 8 -289 l-261 0 l0 1045 l253 0 l0 -90 q137 110 281 110 q170 0 247 -147 q77 79 128 104 q85 43 170.5 43 q85.5 0 145.5 -29 q60 -29 99 -82 q79 -107 79 -294 l0 -398 q0 -169 5 -203 q5 -34 13.5 -44 q8.5 -10 14.5 -18 l-2 -4 q-80 7 -118 7 l-75 0 q-37 0 -91 -3 l0 541 q0 234 -72 278 q-24 14 -56.5 14 q-32.5 0 -57.5 -7.5 q-25 -7.5 -47 -24.5 q-37 -27 -84 -106 q1 -8 1 -16 q0 -8 0 -264 q0 -256 12 -412 q-85 0 -144.5 0 q-59.5 0 -113.5 -3 l0 542 q0 163 -19.5 212 q-19.5 49 -41.5 64 q-22 15 -54 15 q-132 0 -220 -127 l0 -414 ZM735 1336 q65 104 149 196 l191 -151 q-50 -64 -68 -88 l-35 -49 q-17 -23 -36 -52 l-201 144 Z" /><glyph glyph-name="uni1E56" unicode="&#x1e56;" d="M153 1337 q139 18 285 18 q272 0 413.5 -127.5 q141.5 -127.5 141.5 -381.5 q0 -227 -155 -359 q-145 -124 -373 -124 q-26 0 -57 3 l0 -366 l-255 0 l0 1337 ZM468 1114 q-30 0 -60 -2 l0 -526 q32 -4 78 -4 q46 0 96 19.5 q50 19.5 84 54.5 q71 73 71 192 q0 266 -269 266 ZM343 1618 q65 104 149 196 l191 -151 q-50 -64 -68 -88 l-35 -49 q-17 -23 -36 -52 l-201 144 Z" /><glyph glyph-name="uni1E57" unicode="&#x1e57;" d="M407 21 l0 -294 q0 -86 4 -112 l-249 0 l0 1430 l245 0 l0 -65 q121 85 232 85 q111 0 197 -31 q86 -31 151 -96 q143 -141 143 -402 q0 -173 -81 -309 q-69 -115 -191 -184 q-108 -61 -234 -61 q-126 0 -217 39 ZM407 273 q76 -64 197 -64 q198 0 256 191 q20 65 20 139.5 q0 74.5 -14 119 q-14 44.5 -36.5 77 q-22.5 32.5 -50.5 54 q-28 21.5 -57 34.5 q-51 23 -105 23 q-54 0 -112 -25 q-58 -25 -98 -67 l0 -482 ZM476 1336 q65 104 149 196 l191 -151 q-50 -64 -68 -88 l-35 -49 q-17 -23 -36 -52 l-201 144 Z" /><glyph glyph-name="uni1E60" unicode="&#x1e60;" d="M975 1256 l-19 -294 l-7 -2 q-74 111 -252 144 q-56 11 -107.5 11 q-51.5 0 -88 -9 q-36.5 -9 -62.5 -26 q-55 -36 -55 -94 q0 -76 48 -114 q60 -46 199 -64.5 q139 -18.5 223 -50.5 q84 -32 138 -81 q102 -92 102 -260 q0 -220 -166 -339 q-142 -102 -358 -102 q-174 0 -344 66 q-56 22 -98 51 l11 334 l4 3 q124 -214 407 -214 q201 0 266 97 q22 33 22 73.5 q0 40.5 -13 67 q-13 26.5 -43 45.5 q-58 38 -195 51 q-137 13 -224 49 q-87 36 -139 89 q-94 96 -94 268 q0 178 125 288 q127 112 342.5 112 q215.5 0 377.5 -99 ZM426 1618 q65 104 149 196 l191 -151 q-50 -64 -68 -88 l-35 -49 q-17 -23 -36 -52 l-201 144 Z" /><glyph glyph-name="uni1E61" unicode="&#x1e61;" d="M499 -15 q-282 0 -425 103 q2 30 6 68 l9 72 q8 71 10 88.5 q2 17.5 3 19 q1 1.5 16 -16 q15 -17.5 57 -42.5 q42 -25 97 -44 q119 -41 248 -41 q173 0 173 115 q0 37 -33 55 q-59 30 -173.5 45.5 q-114.5 15.5 -187.5 45.5 q-73 30 -119 72 q-85 79 -85 207 q0 156 120 245 q119 88 329 88 q208 0 355 -118 q-7 -26 -15 -50 q-23 -66 -34 -95 l-23 -59 q-2 -8 -3 -8 q-2 0 -16 21 q-63 73 -196 96 q-41 8 -84 8 q-182 0 -182 -110 q0 -38 38 -58 q71 -38 194.5 -56 q123.5 -18 187.5 -48.5 q64 -30.5 103 -73.5 q72 -78 72 -207 q0 -141 -113 -229 q-118 -93 -329 -93 ZM342 1336 q65 104 149 196 l191 -151 q-50 -64 -68 -88 l-35 -49 q-17 -23 -36 -52 l-201 144 Z" /><glyph glyph-name="uni1E6A" unicode="&#x1e6a;" d="M652 -6 q-48 6 -247 6 l-32 0 l0 1106 l-198 0 q-88 0 -104 -9 q-16 -9 -25 -16 l-3 1 l0 256 l3 3 q33 -11 178 -11 l627 0 q88 0 104 9 q16 9 25 16 l3 -1 l0 -256 l-3 -3 q-33 11 -178 11 l-150 0 l0 -1112 ZM343 1618 q65 104 149 196 l191 -151 q-50 -64 -68 -88 l-35 -49 q-17 -23 -36 -52 l-201 144 Z" /><glyph glyph-name="uni1E6B" unicode="&#x1e6b;" d="M611 220 q129 0 177 67 l8 0 l3 -232 q-49 -49 -182 -65 q-36 -5 -89.5 -5 q-53.5 0 -116 20 q-62.5 20 -106.5 65 q-91 93 -91 291 l0 454 l-151 0 q-1 29 -1 59 l0 154 q0 17 1 17 l151 0 l0 285 l245 0 l0 -285 l275 0 l0 -230 l-275 0 l0 -408 q0 -157 87 -179 q28 -8 65 -8 ZM162 1506 q65 104 149 196 l191 -151 q-50 -64 -68 -88 l-35 -49 q-17 -23 -36 -52 l-201 144 Z" /><glyph glyph-name="Wgrave" unicode="&#x1e80;" d="M648 -4 q-30 4 -102 4 l-116 0 q-34 0 -56 -2 l-1 2 q4 7 4 16 q0 9 -1.5 19 q-1.5 10 -8 36 q-6.5 26 -19.5 75 l-340 1188 q64 -4 155 -4 q91 0 118 8 l236 -905 l230 901 q15 -1 27 -2 l22 0 q33 -2 83 -2 q50 0 103 8 l234 -905 l201 901 q60 -4 157 -4 q97 0 118 8 l-288 -1055 q-55 -182 -58 -216 q-3 -34 -3 -47 q0 -13 4 -21 l-2 -3 q-32 4 -101 4 q-60 0 -109 0 q-49 0 -71 -2 l-1 2 q4 7 4 16 q0 9 -1 18 q-1 9 -5.5 34.5 q-4.5 25.5 -14.5 75.5 l-27 136 l-164 623 l-156 -620 q-48 -191 -50 -220 q-4 -55 1 -64 l-2 -3 ZM611 1805 q170 -17 320 -17 l169 -313 l-226 0 l-262 323 l-1 7 Z" /><glyph glyph-name="wgrave" unicode="&#x1e81;" d="M7 1045 l269 0 l186 -751 l200 751 l230 0 l207 -767 l186 767 l242 0 l-308 -1045 l-259 0 l-198 685 l-184 -685 l-257 0 l-314 1045 ZM463 1520 q170 -17 320 -17 l169 -313 l-226 0 l-262 323 l-1 7 Z" /><glyph glyph-name="Wacute" unicode="&#x1e82;" d="M648 -4 q-30 4 -102 4 l-116 0 q-34 0 -56 -2 l-1 2 q4 7 4 16 q0 9 -1.5 19 q-1.5 10 -8 36 q-6.5 26 -19.5 75 l-340 1188 q64 -4 155 -4 q91 0 118 8 l236 -905 l230 901 q15 -1 27 -2 l22 0 q33 -2 83 -2 q50 0 103 8 l234 -905 l201 901 q60 -4 157 -4 q97 0 118 8 l-288 -1055 q-55 -182 -58 -216 q-3 -34 -3 -47 q0 -13 4 -21 l-2 -3 q-32 4 -101 4 q-60 0 -109 0 q-49 0 -71 -2 l-1 2 q4 7 4 16 q0 9 -1 18 q-1 9 -5.5 34.5 q-4.5 25.5 -14.5 75.5 l-27 136 l-164 623 l-156 -620 q-48 -191 -50 -220 q-4 -55 1 -64 l-2 -3 ZM780 1788 q150 0 320 17 l-1 -7 l-262 -323 l-226 0 l169 313 Z" /><glyph glyph-name="wacute" unicode="&#x1e83;" d="M7 1045 l269 0 l186 -751 l200 751 l230 0 l207 -767 l186 767 l242 0 l-308 -1045 l-259 0 l-198 685 l-184 -685 l-257 0 l-314 1045 ZM752 1503 q150 0 320 17 l-1 -7 l-262 -323 l-226 0 l169 313 Z" /><glyph glyph-name="Wdieresis" unicode="&#x1e84;" d="M648 -4 q-30 4 -102 4 l-116 0 q-34 0 -56 -2 l-1 2 q4 7 4 16 q0 9 -1.5 19 q-1.5 10 -8 36 q-6.5 26 -19.5 75 l-340 1188 q64 -4 155 -4 q91 0 118 8 l236 -905 l230 901 q15 -1 27 -2 l22 0 q33 -2 83 -2 q50 0 103 8 l234 -905 l201 901 q60 -4 157 -4 q97 0 118 8 l-288 -1055 q-55 -182 -58 -216 q-3 -34 -3 -47 q0 -13 4 -21 l-2 -3 q-32 4 -101 4 q-60 0 -109 0 q-49 0 -71 -2 l-1 2 q4 7 4 16 q0 9 -1 18 q-1 9 -5.5 34.5 q-4.5 25.5 -14.5 75.5 l-27 136 l-164 623 l-156 -620 q-48 -191 -50 -220 q-4 -55 1 -64 l-2 -3 ZM1203 1715 q-4 -50 -4 -127.5 q0 -77.5 4 -112.5 l-265 0 q8 62 8 122.5 q0 60.5 -6 117.5 l263 0 ZM773 1715 q-4 -50 -4 -127.5 q0 -77.5 4 -112.5 l-265 0 q8 62 8 122.5 q0 60.5 -6 117.5 l263 0 Z" /><glyph glyph-name="wdieresis" unicode="&#x1e85;" d="M7 1045 l269 0 l186 -751 l200 751 l230 0 l207 -767 l186 767 l242 0 l-308 -1045 l-259 0 l-198 685 l-184 -685 l-257 0 l-314 1045 ZM1115 1430 q-4 -50 -4 -127.5 q0 -77.5 4 -112.5 l-265 0 q8 62 8 122.5 q0 60.5 -6 117.5 l263 0 ZM685 1430 q-4 -50 -4 -127.5 q0 -77.5 4 -112.5 l-265 0 q8 62 8 122.5 q0 60.5 -6 117.5 l263 0 Z" /><glyph glyph-name="Ygrave" unicode="&#x1ef2;" d="M451 0 q13 39 13 182 l0 278 q-173 381 -221 475.5 q-48 94.5 -81 149.5 q-104 176 -125.5 202 q-21.5 26 -43.5 43 l345 0 q11 -20 30 -59 l242 -511 q17 42 40 94 q218 469 221 476 l330 0 q-51 -41 -125 -172 q-23 -39 -46 -89 l-226 -471 q-38 -85 -65 -153 l0 -287 q0 -100 12 -158 l-300 0 ZM352 1805 q170 -17 320 -17 l169 -313 l-226 0 l-262 323 l-1 7 Z" /><glyph glyph-name="ygrave" unicode="&#x1ef3;" d="M51 -348 l66 53 q149 121 247 357 l46 111 l-383 872 l280 0 l240 -604 l223 604 l288 0 q-52 -72 -127 -268 l-150 -371 q-301 -708 -472 -844 l-258 90 ZM265 1520 q170 -17 320 -17 l169 -313 l-226 0 l-262 323 l-1 7 Z" /><glyph glyph-name="endash" unicode="&#x2013;" d="M283 500 q-76 0 -124 -5 l3 247 q22 -6 132 -6 l761 0 q109 0 132 6 l3 -247 q-48 5 -124 5 l-783 0 Z" /><glyph glyph-name="emdash" unicode="&#x2014;" d="M286 500 q-76 0 -124 -5 l3 247 q23 -6 132 -6 l1098 0 q109 0 132 6 l3 -247 q-48 5 -124 5 l-1120 0 Z" /><glyph glyph-name="quoteleft" unicode="&#x2018;" d="M208 913 q-11 105 -11 158.5 q0 53.5 3.5 103.5 q3.5 50 9.5 90 q15 86 36 100 q49 31 235 70 l6 -6 q-36 -59 -36 -299 q0 -102 6 -177 l-249 -40 Z" /><glyph glyph-name="quoteright" unicode="&#x2019;" d="M476 1445 q11 -105 11 -158.5 q0 -53.5 -3.5 -103.5 q-3.5 -50 -9.5 -90 q-15 -86 -36 -100 q-50 -32 -235 -70 l-6 6 q36 67 36 299 q0 102 -6 177 l249 40 Z" /><glyph glyph-name="quotesinglbase" unicode="&#x201a;" d="M476 220 q11 -104 11 -158 q0 -54 -3.5 -104 q-3.5 -50 -9.5 -90 q-15 -86 -36 -100 q-49 -31 -235 -70 l-6 6 q36 67 36 299 q0 102 -6 177 l249 40 Z" /><glyph glyph-name="quotedblleft" unicode="&#x201c;" d="M847 1114 q0 -76 6 -151 l-249 -40 q-11 105 -11 158.5 q0 53.5 3.5 103.5 q3.5 50 9.5 90 q15 86 36 100 q50 31 235 70 l6 -6 q-36 -59 -36 -325 ZM397 1114 q0 -76 6 -151 l-249 -40 q-11 105 -11 158.5 q0 53.5 3.5 103.5 q3.5 50 9.5 90 q15 86 36 100 q49 31 235 70 l6 -6 q-36 -59 -36 -325 Z" /><glyph glyph-name="quotedblright" unicode="&#x201d;" d="M179 1254 q0 76 -6 151 l249 40 q11 -105 11 -158.5 q0 -53.5 -3.5 -103.5 q-3.5 -50 -9.5 -90 q-15 -86 -36 -100 q-50 -31 -235 -70 l-6 6 q36 59 36 325 ZM629 1254 q0 76 -6 151 l249 40 q11 -105 11 -158.5 q0 -53.5 -3.5 -103.5 q-3.5 -50 -9.5 -90 q-15 -86 -36 -100 q-49 -31 -235 -70 l-6 6 q36 59 36 325 Z" /><glyph glyph-name="quotedblbase" unicode="&#x201e;" d="M448 221 q11 -105 11 -158.5 q0 -53.5 -3.5 -103.5 q-3.5 -50 -9.5 -90 q-15 -86 -36 -100 q-50 -32 -235 -70 l-6 6 q36 67 36 299 q0 102 -6 177 l249 40 ZM846 221 q11 -105 11 -158.5 q0 -53.5 -3.5 -103.5 q-3.5 -50 -9.5 -90 q-15 -86 -36 -100 q-50 -32 -235 -70 l-6 6 q36 67 36 299 q0 102 -6 177 l249 40 Z" /><glyph glyph-name="dagger" unicode="&#x2020;" d="M296 -250 q4 64 4 119 l0 940 l-43 0 q-76 0 -124 -5 l3 247 q22 -6 132 -6 l32 0 l0 263 q0 22 -5 122 l265 0 q-5 -100 -5 -183 l0 -202 l32 0 q109 0 132 6 l3 -247 q-48 5 -124 5 l-43 0 l0 -947 q0 -86 4 -112 l-263 0 Z" /><glyph glyph-name="daggerdbl" unicode="&#x2021;" d="M257 273 q-76 0 -124 -5 l3 247 q22 -6 132 -6 l32 0 l0 300 l-43 0 q-76 0 -124 -5 l3 247 q22 -6 132 -6 l32 0 l0 263 q0 22 -5 122 l265 0 q-5 -100 -5 -183 l0 -202 l32 0 q109 0 132 6 l3 -247 q-48 5 -124 5 l-43 0 l0 -300 l32 0 q109 0 132 6 l3 -247 q-48 5 -124 5 l-43 0 l0 -411 q0 -86 4 -112 l-263 0 q4 64 4 119 l0 404 l-43 0 Z" /><glyph glyph-name="bullet" unicode="&#x2022;" d="M433 479 q-54 0 -103 16.5 q-49 16.5 -86 46.5 q-82 67 -82 169 q0 95 72 163 q75 71 192 71 q119 0 198 -73 q74 -69 74 -159 q0 -106 -79 -172 q-74 -62 -186 -62 Z" /><glyph glyph-name="ellipsis" unicode="&#x2026;" d="M1416 160 q0 -19 0 -71.5 q0 -52.5 5 -88.5 l-292 0 q9 61 9 108 q0 47 -0.5 64.5 q-0.5 17.5 -1.5 34.5 q-1 17 -2 32 l-3 25 l290 0 q-3 -38 -3 -62 l-2 -42 ZM906 160 q0 -19 0 -71.5 q0 -52.5 5 -88.5 l-292 0 q9 61 9 108 q0 47 -0.5 64.5 q-0.5 17.5 -1.5 34.5 q-1 17 -2 32 l-3 25 l290 0 q-3 -38 -3 -62 l-2 -42 ZM396 160 q0 -19 0 -71.5 q0 -52.5 5 -88.5 l-292 0 q9 61 9 108 q0 47 -0.5 64.5 q-0.5 17.5 -1.5 34.5 q-1 17 -2 32 l-3 25 l290 0 q-3 -38 -3 -62 l-2 -42 Z" /><glyph glyph-name="perthousand" unicode="&#x2030;" d="M565 612 q-90 0 -163 27 q-73 27 -126 75 q-114 105 -114 263 q0 150 103 257 q117 121 316 121 q182 0 294 -113 q104 -106 104 -257 q0 -154 -115 -261 q-119 -112 -299 -112 ZM1360 1330 l245 0 l-750 -1330 l-245 0 l750 1330 ZM576 816 q47 0 83 14 q36 14 61 38 q53 48 53 120 q0 67 -53 116 q-56 53 -149 53 q-91 0 -147 -52 q-51 -48 -51 -120 q0 -70 53 -117 q57 -52 150 -52 ZM2239 334 q0 74 25.5 141.5 q25.5 67.5 77.5 121.5 q117 121 316 121 q182 0 294 -114 q104 -105 104 -256 q0 -154 -114 -261 q-120 -112 -306 -112 q-171 0 -283 103 q-114 104 -114 256 ZM1263 334 q0 74 25.5 141.5 q25.5 67.5 77.5 121.5 q117 121 316 121 q182 0 294 -114 q104 -105 104 -256 q0 -154 -114 -261 q-120 -112 -306 -112 q-171 0 -283 103 q-114 104 -114 256 ZM2451 348 q0 -34 13.5 -64.5 q13.5 -30.5 39.5 -53.5 q57 -52 152 -52 q87 0 142 52 q53 48 53 120 q0 67 -53 116 q-56 53 -149 53 q-91 0 -147 -52 q-51 -48 -51 -119 ZM1475 348 q0 -34 13.5 -64.5 q13.5 -30.5 39.5 -53.5 q57 -52 152 -52 q87 0 142 52 q53 48 53 120 q0 67 -53 116 q-56 53 -149 53 q-91 0 -147 -52 q-51 -48 -51 -119 Z" /><glyph glyph-name="guilsinglleft" unicode="&#x2039;" d="M210 449 q-28 49 -28 68 q0 34 23 78 l201 320 l255 0 l-227 -388 l233 -387 l-255 0 l-202 309 Z" /><glyph glyph-name="guilsinglright" unicode="&#x203a;" d="M649 606 q28 -49 28 -68 q0 -34 -23 -78 l-201 -320 l-255 0 l227 388 l-233 387 l255 0 l202 -309 Z" /><glyph glyph-name="fraction" unicode="&#x2044;" d="M929 1330 l245 0 l-750 -1330 l-245 0 l750 1330 Z" /><glyph glyph-name="Euro" unicode="&#x20ac;" d="M1336 112 q-165 -137 -420 -137 q-251 0 -422 127 q-169 125 -226 338 l-187 0 l61 196 l100 0 l0 13 q0 33 5 91 l-165 0 l63 196 l152 0 q83 195 265 307 q184 112 417 112 q184 0 336 -75 l-70 -258 l-4 0 q-91 93 -268 93 q-132 0 -232 -48 q-100 -48 -161 -131 l401 0 q109 0 132 6 l-57 -207 q-48 5 -124 5 l-430 0 q-5 -30 -5 -56 l0 -32 q0 -8 1 -16 l402 0 q110 0 132 6 l-67 -207 q-48 5 -124 5 l-296 0 q85 -171 287 -213 q58 -12 112.5 -12 q54.5 0 111 12.5 q56.5 12.5 108.5 36.5 q110 51 169 135 l3 -2 l0 -285 Z" /><glyph glyph-name="trademark" unicode="&#x2122;" d="M608 487 l-196 3 l-12 0 l0 675 l-197 0 q-108 0 -130 -22 q-1 0 0.5 38.5 q1.5 38.5 1.5 75.5 q0 37 -0.5 52.5 q-0.5 15.5 -0.5 32.5 q33 -11 175 -11 l529 0 q89 0 103 8 q14 8 20 14 l0 -13 l1 -33 q0 -70 -2 -154 q-12 12 -168 12 l-124 0 l0 -678 ZM1263 481 q-32 4 -204 4 l0 848 q30 -2 43 -2 l31 0 q83 0 135 5 l330 -528 l315 528 q30 -5 79 -5 q56 0 94 0 q38 0 60 2 l0 -848 q-154 0 -204 -4 l0 529 l-339 -549 l-340 513 l0 -493 Z" /><glyph glyph-name="partialdiff" unicode="&#x2202;" d="M159 1340 q112 19 241 19 q129 0 240.5 -43 q111.5 -43 187 -113.5 q75.5 -70.5 120.5 -161.5 q45 -91 68 -186 q38 -152 38 -309.5 q0 -157.5 -39.5 -253 q-39.5 -95.5 -106.5 -164.5 q-142 -143 -345 -143 q-205 0 -341 136 q-133 133 -133 322 q0 226 144 355 q129 117 324 117 q98 0 197 -67 q-45 143 -130 215 q-103 86 -266 86 q-64 0 -158 -17 l-41 208 ZM800 496 q-6 37 -37 82.5 q-31 45.5 -61 65.5 q-54 36 -155 36 q-85 0 -139 -62 q-54 -62 -54 -164 q0 -100 60 -166 q63 -69 169 -69 q147 0 201 151 q18 52 16 126 Z" /><glyph glyph-name="product" unicode="&#x220f;" d="M457 -170 q-48 6 -223 6 l-32 0 l0 1257 l-2 0 l2 221 l0 19 l941 0 l2 -240 l-3 0 l0 -1263 q-48 6 -185 6 l-70 0 l0 1257 l-430 0 l0 -1263 Z" /><glyph glyph-name="summation" unicode="&#x2211;" d="M210 -173 q4 64 4 106 q0 42 -8 74 l470 572 l-470 557 q8 32 8 82 q0 50 -4 114 l930 0 q0 -167 6 -215 l-589 0 l442 -527 l-421 -548 l568 0 q-6 -48 -6 -215 l-930 0 Z" /><glyph glyph-name="minus" unicode="&#x2212;" d="M302 500 q-76 0 -124 -5 l3 247 q23 -6 132 -6 l389 0 q110 0 132 6 l3 -247 q-48 5 -124 5 l-411 0 Z" /><glyph glyph-name="radical" unicode="&#x221a;" d="M314 1039 q110 0 132 6 l251 -682 l410 1479 l277 0 l-584 -1842 l-206 0 l-340 803 l-87 0 q-76 0 -124 -5 l3 247 q22 -6 132 -6 l136 0 Z" /><glyph glyph-name="infinity" unicode="&#x221e;" d="M1262 201 q-239 0 -355 189 q-76 -126 -200 -167 q-36 -12 -68 -12 q-202 0 -319 160 q-100 139 -100 339 q0 241 137 372 q112 108 241 108 q127 0 185.5 -29 q58.5 -29 98 -66 q39.5 -37 81.5 -96 q75 140 211 179 q43 12 101 12 q58 0 127 -27 q69 -27 123 -85 q120 -127 120 -359 q0 -241 -113 -384 q-107 -134 -270 -134 ZM1054 787 q80 -331 192 -331 q63 0 106 64 q43 64 43 183.5 q0 119.5 -42.5 187 q-42.5 67.5 -114.5 65.5 q-104 -4 -184 -169 ZM470 721 q0 -256 203 -256 q47 0 80.5 26.5 q33.5 26.5 62.5 86.5 q-10 33 -20 71.5 q-10 38.5 -26 82.5 l-29 82 q-28 81 -59 104 q-31 23 -62.5 23 q-31.5 0 -58 -16 q-26.5 -16 -47.5 -45 q-44 -65 -44 -159 Z" /><glyph glyph-name="integral" unicode="&#x222b;" d="M100 -242 q61 -38 131 -38 q128 0 128 166 q0 25 -3 54 l-118 1342 q-7 63 -7 153 q0 90 26 165 q26 75 83 120 q106 84 369 84 l24 -263 l-2 -5 q-61 38 -130 38 q-128 0 -128 -166 q0 -26 3 -54 l118 -1342 q7 -63 7 -153 q0 -90 -25.5 -165 q-25.5 -75 -82.5 -120 q-106 -84 -367 -84 l-28 263 l2 5 Z" /><glyph glyph-name="approxequal" unicode="&#x2248;" d="M1013 849 q212 0 283 205 l6 -3 l19 -273 q-87 -159 -338 -159 q-136 0 -319 133 q-113 82 -176 107 q-63 25 -114 25 q-51 0 -93 -9 q-42 -9 -79 -31 q-74 -43 -134 -145 l-6 3 l-8 276 q122 142 347 142 q121 0 319 -135.5 q198 -135.5 293 -135.5 ZM1004 264 q212 0 283 205 l6 -3 l19 -273 q-87 -159 -338 -159 q-136 0 -319 133 q-113 82 -176 107 q-63 25 -114 25 q-51 0 -93 -9 q-42 -9 -79 -31 q-74 -43 -134 -145 l-6 3 l-8 276 q122 142 347 142 q121 0 319 -135.5 q198 -135.5 293 -135.5 Z" /><glyph glyph-name="notequal" unicode="&#x2260;" d="M1136 295 q-48 5 -124 5 l-323 0 l-93 -326 l-226 0 l93 326 l-112 0 q-76 0 -124 -5 l3 247 q22 -6 132 -6 l168 0 l53 184 l-232 0 q-76 0 -124 -5 l3 247 q22 -6 132 -6 l288 0 l100 348 l226 0 l-100 -348 l125 0 q109 0 132 6 l3 -247 q-48 5 -124 5 l-203 0 l-53 -184 l245 0 q109 0 132 6 l3 -247 Z" /><glyph glyph-name="lessequal" unicode="&#x2264;" d="M85 933 l675 417 l0 -281 l-440 -248 l440 -271 l0 -280 l-675 449 l0 214 ZM213 -25 q-76 0 -124 -5 l3 237 q22 -6 132 -6 l389 0 q109 0 132 6 l3 -237 q-48 5 -124 5 l-411 0 Z" /><glyph glyph-name="greaterequal" unicode="&#x2265;" d="M766 933 l-675 417 l0 -281 l440 -248 l-440 -271 l0 -280 l675 449 l0 214 ZM638 -25 q76 0 124 -5 l-3 237 q-22 -6 -132 -6 l-389 0 q-109 0 -132 6 l-3 -237 q48 5 124 5 l411 0 Z" /><glyph glyph-name="lozenge" unicode="&#x25ca;" d="M161 678 l1 0 l399 850 l214 0 l417 -850 l-1 0 l-399 -850 l-214 0 l-417 850 ZM910 678 l-240 562 l-227 -562 l239 -563 l228 563 Z" /><glyph glyph-name="ff" unicode="&#xfb00;" d="M646 930 q-8 -29 -8 -146 l0 -88 l-241 0 l0 -696 l-245 0 l0 696 l-147 0 q1 66 2 117 l2 107 l0 10 l143 0 l0 62 q0 240 112 386 q117 151 322 151 q87 0 115 -12 l1 -251 l-2 -5 q-38 38 -96.5 38 q-58.5 0 -94.5 -19.5 q-36 -19.5 -61 -55.5 q-51 -72 -51 -197 l0 -97 l249 0 ZM1330 930 q-8 -29 -8 -146 l0 -88 l-241 0 l0 -696 l-245 0 l0 696 l-147 0 q1 66 2 117 l2 107 l0 10 l143 0 l0 62 q0 240 112 386 q117 151 322 151 q87 0 115 -12 l1 -251 l-2 -5 q-38 38 -96.5 38 q-58.5 0 -94.5 -19.5 q-36 -19.5 -61 -55.5 q-51 -72 -51 -197 l0 -97 l249 0 Z" /><glyph glyph-name="fi" unicode="&#xfb01;" d="M646 930 q-8 -29 -8 -146 l0 -88 l-241 0 l0 -696 l-245 0 l0 696 l-147 0 q1 66 2 117 l2 107 l0 10 l143 0 l0 62 q0 240 112 386 q117 151 322 151 q87 0 115 -12 l1 -251 l-2 -5 q-38 38 -96.5 38 q-58.5 0 -94.5 -19.5 q-36 -19.5 -61 -55.5 q-51 -72 -51 -197 l0 -97 l249 0 ZM799 1343 q80 125 167 220 l215 -169 q-43 -53 -80 -104 q0 0 -77 -109 l-225 162 ZM1062 112 q0 -86 4 -112 l-254 0 l0 1045 l250 0 l0 -933 Z" /><glyph glyph-name="fl" unicode="&#xfb02;" d="M646 930 q-8 -29 -8 -146 l0 -88 l-241 0 l0 -696 l-245 0 l0 696 l-147 0 q1 66 2 117 l2 107 l0 10 l143 0 l0 62 q0 240 112 386 q117 151 322 151 q87 0 115 -12 l1 -251 l-2 -5 q-38 38 -96.5 38 q-58.5 0 -94.5 -19.5 q-36 -19.5 -61 -55.5 q-51 -72 -51 -197 l0 -97 l249 0 ZM1063 112 q0 -86 4 -112 l-254 0 l0 1490 l250 0 l0 -1378 Z" /></font>
</defs>
</svg>
